<svg width="132" height="36" viewBox="0 0 132 36" fill="none" xmlns="http://www.w3.org/2000/svg">
<path d="M29.54 12.12L19.2734 7.12842C19.1057 7.04689 18.9108 7.04255 18.7396 7.11651L7.16204 12.12L18.7121 17.7355C18.8985 17.8262 19.1172 17.8209 19.2991 17.7215L29.54 12.12Z" fill="#2B2B2B"/>
<path d="M7.16204 12.12L18.7121 17.7355C18.8985 17.8262 19.1172 17.8209 19.2991 17.7215L29.54 12.12L19.2734 7.12842C19.1057 7.04689 18.9108 7.04255 18.7396 7.11651L7.16204 12.12ZM7.16204 12.12C7.16204 12.12 6.55427 13.6507 6.50386 14.68C6.44152 15.953 7.16204 17.88 7.16204 17.88M29.54 17.88L19.2991 23.4815C19.1172 23.5809 18.8985 23.5862 18.7121 23.4955L7.16204 17.88M7.16204 17.88C7.16204 17.88 6.50386 19.8056 6.50386 21.08C6.50386 22.3544 7.16204 24.28 7.16204 24.28L18.7121 29.8955C18.8985 29.9862 19.1172 29.9809 19.2991 29.8815L29.54 24.28" stroke="#2B2B2B" stroke-width="2.56" stroke-linecap="round" stroke-linejoin="round"/>
<path d="M45.96 16.2H52.2V19.6H45.96V16.2ZM46.28 21.44H53.28V25H41.64V11H53.02V14.56H46.28V21.44ZM62.257 25.2C61.3104 25.2 60.5237 25 59.897 24.6C59.2837 24.1867 58.8304 23.5667 58.537 22.74C58.2437 21.9 58.097 20.8333 58.097 19.54C58.097 18.22 58.2304 17.1467 58.497 16.32C58.777 15.48 59.2237 14.86 59.837 14.46C60.4504 14.06 61.257 13.86 62.257 13.86C63.217 13.86 64.097 14.0933 64.897 14.56C65.697 15.0133 66.337 15.6667 66.817 16.52C67.297 17.36 67.537 18.3667 67.537 19.54C67.537 20.7133 67.297 21.7267 66.817 22.58C66.337 23.42 65.697 24.0667 64.897 24.52C64.097 24.9733 63.217 25.2 62.257 25.2ZM54.957 28.88V14.06H59.257V15.54L59.277 19.54L59.477 23.54V28.88H54.957ZM61.177 21.68C61.5104 21.68 61.8104 21.6 62.077 21.44C62.3437 21.28 62.557 21.04 62.717 20.72C62.877 20.4 62.957 20.0067 62.957 19.54C62.957 19.06 62.877 18.66 62.717 18.34C62.557 18.02 62.3437 17.78 62.077 17.62C61.8104 17.46 61.5104 17.38 61.177 17.38C60.8437 17.38 60.5437 17.46 60.277 17.62C60.0104 17.78 59.797 18.02 59.637 18.34C59.477 18.66 59.397 19.06 59.397 19.54C59.397 20.0067 59.477 20.4 59.637 20.72C59.797 21.04 60.0104 21.28 60.277 21.44C60.5437 21.6 60.8437 21.68 61.177 21.68ZM68.9609 25V14.06H73.4809V25H68.9609ZM71.2209 13.18C70.3943 13.18 69.7343 12.96 69.2409 12.52C68.7476 12.08 68.5009 11.5333 68.5009 10.88C68.5009 10.2267 68.7476 9.68 69.2409 9.24C69.7343 8.8 70.3943 8.58 71.2209 8.58C72.0476 8.58 72.7076 8.78667 73.2009 9.2C73.6943 9.61333 73.9409 10.1467 73.9409 10.8C73.9409 11.4933 73.6943 12.0667 73.2009 12.52C72.7076 12.96 72.0476 13.18 71.2209 13.18ZM81.0444 29.08C79.9644 29.08 78.951 28.9667 78.0044 28.74C77.0577 28.5133 76.2444 28.1733 75.5644 27.72L77.0844 24.64C77.511 24.9733 78.051 25.2333 78.7044 25.42C79.371 25.62 79.9977 25.72 80.5844 25.72C81.5177 25.72 82.1844 25.52 82.5844 25.12C82.9844 24.7333 83.1844 24.1733 83.1844 23.44V22.52L83.3844 19.12L83.4044 15.72V14.06H87.7044V22.82C87.7044 24.94 87.1177 26.5133 85.9444 27.54C84.771 28.5667 83.1377 29.08 81.0444 29.08ZM80.1644 24.4C79.2444 24.4 78.3844 24.1867 77.5844 23.76C76.7844 23.32 76.1377 22.7067 75.6444 21.92C75.151 21.1333 74.9044 20.2 74.9044 19.12C74.9044 18.04 75.151 17.1067 75.6444 16.32C76.1377 15.5333 76.7844 14.9267 77.5844 14.5C78.3844 14.0733 79.2444 13.86 80.1644 13.86C81.111 13.86 81.8844 14.0467 82.4844 14.42C83.0977 14.7933 83.551 15.3733 83.8444 16.16C84.1377 16.9333 84.2844 17.92 84.2844 19.12C84.2844 20.32 84.1377 21.3133 83.8444 22.1C83.551 22.8733 83.0977 23.4533 82.4844 23.84C81.8844 24.2133 81.111 24.4 80.1644 24.4ZM81.3644 20.88C81.7244 20.88 82.0444 20.8067 82.3244 20.66C82.6044 20.5133 82.8244 20.3067 82.9844 20.04C83.1444 19.7733 83.2244 19.4667 83.2244 19.12C83.2244 18.76 83.1444 18.4533 82.9844 18.2C82.8244 17.9333 82.6044 17.7333 82.3244 17.6C82.0444 17.4533 81.7244 17.38 81.3644 17.38C81.0177 17.38 80.6977 17.4533 80.4044 17.6C80.1244 17.7333 79.8977 17.9333 79.7244 18.2C79.5644 18.4533 79.4844 18.76 79.4844 19.12C79.4844 19.4667 79.5644 19.7733 79.7244 20.04C79.8977 20.3067 80.1244 20.5133 80.4044 20.66C80.6977 20.8067 81.0177 20.88 81.3644 20.88ZM89.7031 25V14.06H94.0031V17.36L93.3031 16.42C93.6365 15.5667 94.1698 14.9267 94.9031 14.5C95.6365 14.0733 96.5165 13.86 97.5431 13.86V17.86C97.3431 17.8333 97.1631 17.8133 97.0031 17.8C96.8565 17.7867 96.7031 17.78 96.5431 17.78C95.8631 17.78 95.3031 17.96 94.8631 18.32C94.4365 18.6667 94.2231 19.2733 94.2231 20.14V25H89.7031ZM104.839 25V23.06L104.519 22.54V18.86C104.519 18.3267 104.352 17.92 104.019 17.64C103.699 17.36 103.172 17.22 102.439 17.22C101.945 17.22 101.445 17.3 100.939 17.46C100.432 17.6067 99.9988 17.8133 99.6388 18.08L98.1988 15.1C98.8388 14.7 99.6054 14.3933 100.499 14.18C101.392 13.9667 102.265 13.86 103.119 13.86C104.999 13.86 106.452 14.28 107.479 15.12C108.519 15.96 109.039 17.2933 109.039 19.12V25H104.839ZM101.739 25.2C100.845 25.2 100.099 25.0467 99.4988 24.74C98.8988 24.4333 98.4454 24.0267 98.1388 23.52C97.8321 23 97.6788 22.4267 97.6788 21.8C97.6788 21.0933 97.8588 20.4933 98.2188 20C98.5788 19.5067 99.1254 19.1333 99.8587 18.88C100.605 18.6267 101.545 18.5 102.679 18.5H104.959V20.68H103.399C102.919 20.68 102.565 20.76 102.339 20.92C102.125 21.0667 102.019 21.2933 102.019 21.6C102.019 21.8533 102.112 22.0667 102.299 22.24C102.499 22.4 102.765 22.48 103.099 22.48C103.405 22.48 103.685 22.4 103.939 22.24C104.205 22.0667 104.399 21.8 104.519 21.44L105.099 22.78C104.925 23.5933 104.559 24.2 103.999 24.6C103.439 25 102.685 25.2 101.739 25.2ZM125.472 13.86C126.299 13.86 127.039 14.0333 127.692 14.38C128.359 14.7133 128.879 15.24 129.252 15.96C129.639 16.68 129.832 17.6133 129.832 18.76V25H125.312V19.54C125.312 18.86 125.199 18.38 124.972 18.1C124.746 17.8067 124.452 17.66 124.092 17.66C123.826 17.66 123.586 17.7267 123.372 17.86C123.159 17.9933 122.986 18.2067 122.852 18.5C122.732 18.78 122.672 19.1667 122.672 19.66V25H118.152V19.54C118.152 18.86 118.046 18.38 117.832 18.1C117.619 17.8067 117.319 17.66 116.932 17.66C116.666 17.66 116.426 17.7267 116.212 17.86C115.999 17.9933 115.826 18.2067 115.692 18.5C115.572 18.78 115.512 19.1667 115.512 19.66V25H110.992V14.06H115.292V17.2L114.412 16.32C114.826 15.4933 115.379 14.88 116.072 14.48C116.766 14.0667 117.539 13.86 118.392 13.86C119.352 13.86 120.199 14.1133 120.932 14.62C121.679 15.1133 122.179 15.9 122.432 16.98L121.052 16.76C121.452 15.8533 122.032 15.1467 122.792 14.64C123.566 14.12 124.459 13.86 125.472 13.86Z" fill="#2B2B2B"/>
</svg>
