<svg width="312" height="209" viewBox="0 0 312 209" fill="none" xmlns="http://www.w3.org/2000/svg">
<g clip-path="url(#clip0_1_32657)">
<rect width="312" height="209" rx="16" fill="#ECEFF4"/>
<rect x="195" y="53" width="8" height="8" rx="2" fill="#48BB98"/>
<g clip-path="url(#clip1_1_32657)">
<path d="M219 65C223.418 65 227 61.4183 227 57C227 52.5817 223.418 49 219 49C214.582 49 211 52.5817 211 57C211 61.4183 214.582 65 219 65Z" fill="#FBC85B"/>
<path d="M216.938 56.25C217.421 56.25 217.813 55.8582 217.813 55.375C217.813 54.8918 217.421 54.5 216.938 54.5C216.454 54.5 216.062 54.8918 216.062 55.375C216.062 55.8582 216.454 56.25 216.938 56.25Z" fill="#3E414D"/>
<path d="M221.063 56.25C221.546 56.25 221.938 55.8582 221.938 55.375C221.938 54.8918 221.546 54.5 221.063 54.5C220.579 54.5 220.188 54.8918 220.188 55.375C220.188 55.8582 220.579 56.25 221.063 56.25Z" fill="#3E414D"/>
<path d="M222.5 58.9688C221.838 60.1957 220.526 61.0313 219.016 61.0313C217.505 61.0313 216.193 60.1957 215.531 58.9688" stroke="#9A695E" stroke-width="1.07527" stroke-linecap="round"/>
</g>
<path d="M238.762 61.1172C238.184 61.1172 237.664 61.0195 237.203 60.8242C236.746 60.6289 236.385 60.3555 236.119 60.0039C235.857 59.6484 235.719 59.2422 235.703 58.7852H237.016C237.031 59.0312 237.115 59.2461 237.268 59.4297C237.424 59.6133 237.631 59.7559 237.889 59.8574C238.146 59.9551 238.434 60.0039 238.75 60.0039C239.086 60.0039 239.389 59.9453 239.658 59.8281C239.928 59.7109 240.139 59.5488 240.291 59.3418C240.443 59.1309 240.52 58.8906 240.52 58.6211C240.52 58.3438 240.443 58.0957 240.291 57.877C240.139 57.6582 239.918 57.4883 239.629 57.3672C239.344 57.2422 239.004 57.1797 238.609 57.1797H237.883V56.125H238.609C238.926 56.125 239.209 56.0684 239.459 55.9551C239.709 55.8418 239.902 55.6836 240.039 55.4805C240.18 55.2773 240.25 55.043 240.25 54.7773C240.25 54.5195 240.189 54.293 240.068 54.0977C239.947 53.9023 239.775 53.75 239.553 53.6406C239.33 53.5312 239.07 53.4766 238.773 53.4766C238.484 53.4766 238.217 53.5273 237.971 53.6289C237.725 53.7305 237.525 53.875 237.373 54.0625C237.225 54.25 237.145 54.4688 237.133 54.7188H235.891C235.902 54.2695 236.037 53.8691 236.295 53.5176C236.557 53.1621 236.906 52.8867 237.344 52.6914C237.781 52.4961 238.262 52.3984 238.785 52.3984C239.324 52.3984 239.799 52.502 240.209 52.709C240.623 52.916 240.941 53.1973 241.164 53.5527C241.387 53.9043 241.496 54.2891 241.492 54.707C241.496 55.1836 241.361 55.5898 241.088 55.9258C240.818 56.2578 240.453 56.4805 239.992 56.5938V56.6523C240.566 56.7344 241.014 56.9551 241.334 57.3145C241.658 57.6738 241.82 58.125 241.82 58.668C241.82 59.1328 241.688 59.5527 241.422 59.9277C241.156 60.2988 240.791 60.5898 240.326 60.8008C239.861 61.0117 239.34 61.1172 238.762 61.1172ZM246.121 61.1172C245.594 61.1172 245.115 61.0176 244.686 60.8184C244.256 60.6152 243.914 60.3379 243.66 59.9863C243.406 59.6309 243.27 59.2305 243.25 58.7852H244.504C244.527 59.0234 244.613 59.2383 244.762 59.4297C244.91 59.6211 245.104 59.7715 245.342 59.8809C245.58 59.9863 245.84 60.0391 246.121 60.0391C246.461 60.0391 246.764 59.9629 247.029 59.8105C247.299 59.6582 247.51 59.4492 247.662 59.1836C247.814 58.9141 247.891 58.6133 247.891 58.2812C247.891 57.9414 247.812 57.6367 247.656 57.3672C247.5 57.0938 247.283 56.8809 247.006 56.7285C246.729 56.5723 246.414 56.4922 246.062 56.4883C245.348 56.4883 244.852 56.7383 244.574 57.2383H243.355L243.906 52.5156H248.711V53.6172H244.973L244.691 55.9961H244.773C244.953 55.8242 245.184 55.6855 245.465 55.5801C245.75 55.4746 246.051 55.4219 246.367 55.4219C246.891 55.4219 247.363 55.543 247.785 55.7852C248.211 56.0273 248.543 56.3633 248.781 56.793C249.023 57.2227 249.145 57.707 249.145 58.2461C249.145 58.7969 249.016 59.291 248.758 59.7285C248.5 60.166 248.141 60.5078 247.68 60.7539C247.223 60.9961 246.703 61.1172 246.121 61.1172ZM252.461 56.5469C252.082 56.5508 251.758 56.4648 251.488 56.2891C251.219 56.1133 251.016 55.8672 250.879 55.5508C250.742 55.2305 250.676 54.8594 250.68 54.4375C250.676 54.0234 250.744 53.6582 250.885 53.3418C251.025 53.0254 251.23 52.7793 251.5 52.6035C251.77 52.4277 252.09 52.3398 252.461 52.3398C252.84 52.3398 253.162 52.4277 253.428 52.6035C253.697 52.7793 253.9 53.0254 254.037 53.3418C254.174 53.6543 254.242 54.0195 254.242 54.4375C254.242 54.8594 254.172 55.2305 254.031 55.5508C253.891 55.8711 253.686 56.1191 253.416 56.2949C253.15 56.4668 252.832 56.5508 252.461 56.5469ZM252.461 55.7266C252.73 55.7266 252.932 55.6113 253.064 55.3809C253.201 55.1504 253.27 54.8359 253.27 54.4375C253.27 54.0391 253.203 53.7266 253.07 53.5C252.938 53.2734 252.734 53.1602 252.461 53.1602C252.195 53.1641 251.992 53.2812 251.852 53.5117C251.711 53.7383 251.641 54.0469 251.641 54.4375C251.641 54.8359 251.709 55.1504 251.846 55.3809C251.986 55.6113 252.191 55.7266 252.461 55.7266ZM257.816 61.1758C257.438 61.1758 257.113 61.0879 256.844 60.9121C256.574 60.7363 256.371 60.4902 256.234 60.1738C256.098 59.8574 256.031 59.4883 256.035 59.0664C256.031 58.6484 256.1 58.2812 256.24 57.9648C256.381 57.6445 256.586 57.3965 256.855 57.2207C257.129 57.0449 257.449 56.957 257.816 56.957C258.195 56.957 258.518 57.0449 258.783 57.2207C259.053 57.3965 259.256 57.6426 259.393 57.959C259.529 58.2754 259.598 58.6445 259.598 59.0664C259.598 59.4844 259.527 59.8535 259.387 60.1738C259.246 60.4902 259.041 60.7363 258.771 60.9121C258.506 61.0879 258.188 61.1758 257.816 61.1758ZM257.816 60.3438C258.082 60.3438 258.283 60.2305 258.42 60.0039C258.557 59.7734 258.625 59.4609 258.625 59.0664C258.625 58.6641 258.559 58.3496 258.426 58.123C258.293 57.8926 258.09 57.7773 257.816 57.7773C257.551 57.7812 257.348 57.9004 257.207 58.1348C257.066 58.3652 256.996 58.6758 256.996 59.0664C256.996 59.457 257.066 59.7676 257.207 59.998C257.352 60.2285 257.555 60.3438 257.816 60.3438ZM257.465 52.5156H258.531L252.707 61H251.641L257.465 52.5156Z" fill="#3E3E3E"/>
<rect x="195" y="77" width="8" height="8" rx="2" fill="#FBC85B"/>
<g clip-path="url(#clip2_1_32657)">
<path d="M219 89C223.418 89 227 85.4183 227 81C227 76.5817 223.418 73 219 73C214.582 73 211 76.5817 211 81C211 85.4183 214.582 89 219 89Z" fill="#FBC85B"/>
<path d="M221.905 83.8888C221.898 84.2559 221.576 85.1478 220.435 85.7004C219.988 85.9181 219.497 86.0312 219 86.0312C218.503 86.0312 218.012 85.9181 217.565 85.7004C216.422 85.1498 216.102 84.2559 216.095 83.8888C216.082 83.6827 216.187 83.4362 216.466 83.5151C216.922 83.682 217.638 83.7801 218.193 83.8311C218.73 83.8822 219.27 83.8822 219.807 83.8311C220.362 83.7781 221.078 83.682 221.534 83.5151C221.813 83.4362 221.918 83.6827 221.905 83.8888Z" fill="#9A695E"/>
<path d="M219.838 78.0301C219.722 78.4646 219.777 78.9053 220.013 79.4182C220.222 79.8771 220.567 80.3775 220.967 80.9568C221.104 81.1547 221.257 81.3795 221.417 81.6164C221.459 81.679 221.522 81.7244 221.595 81.7443C221.669 81.7646 221.747 81.7569 221.815 81.7227C222.072 81.5964 222.312 81.4766 222.535 81.3765C223.171 81.0742 223.719 80.8133 224.131 80.5217C224.591 80.1944 224.859 79.8408 224.976 79.406C225.091 79.0029 225.05 78.571 224.86 78.197C224.768 78.0197 224.64 77.8637 224.483 77.7392C224.327 77.6147 224.146 77.5244 223.953 77.4742C223.659 77.3938 223.347 77.4162 223.068 77.5376C222.917 77.6012 222.777 77.6864 222.65 77.7905C222.593 77.6373 222.514 77.4929 222.416 77.3619C222.235 77.1191 221.977 76.9447 221.684 76.8672C221.491 76.8143 221.289 76.8023 221.092 76.832C220.894 76.8617 220.705 76.9323 220.536 77.0394C220.187 77.2702 219.938 77.6239 219.838 78.0301Z" fill="#E46E80"/>
<path d="M217.462 77.0438C217.293 76.9367 217.104 76.8661 216.906 76.8364C216.709 76.8068 216.507 76.8188 216.314 76.8716C216.022 76.9492 215.764 77.1235 215.582 77.3663C215.484 77.4974 215.405 77.6417 215.348 77.795C215.222 77.6909 215.081 77.6057 214.93 77.5421C214.651 77.4206 214.339 77.3982 214.045 77.4786C213.852 77.5288 213.671 77.6191 213.515 77.7437C213.359 77.8682 213.23 78.0242 213.138 78.2015C212.948 78.5755 212.907 79.0073 213.023 79.4104C213.139 79.8452 213.408 80.1989 213.868 80.5262C214.279 80.8178 214.828 81.0787 215.463 81.3809C215.68 81.4842 215.926 81.6008 216.183 81.7271C216.251 81.7613 216.33 81.769 216.403 81.7488C216.476 81.7289 216.539 81.6835 216.582 81.6208C216.741 81.3839 216.895 81.1591 217.031 80.9613C217.431 80.382 217.772 79.8804 217.986 79.4226C218.221 78.9097 218.276 78.4691 218.16 78.0346C218.06 77.6283 217.811 77.2747 217.462 77.0438Z" fill="#E46E80"/>
</g>
<path d="M235.75 84.0625L238.691 81.0977C239.047 80.7227 239.318 80.4219 239.506 80.1953C239.693 79.9688 239.836 79.748 239.934 79.5332C240.035 79.3145 240.086 79.0859 240.086 78.8477C240.086 78.5742 240.018 78.334 239.881 78.127C239.744 77.9199 239.557 77.7598 239.318 77.6465C239.08 77.5332 238.812 77.4766 238.516 77.4766C238.207 77.4766 237.936 77.5391 237.701 77.6641C237.467 77.7891 237.285 77.9648 237.156 78.1914C237.031 78.418 236.969 78.6797 236.969 78.9766H235.75C235.746 78.4688 235.863 78.0195 236.102 77.6289C236.34 77.2383 236.672 76.9355 237.098 76.7207C237.523 76.5059 238.004 76.3984 238.539 76.3984C239.078 76.3984 239.557 76.5039 239.975 76.7148C240.396 76.9219 240.725 77.209 240.959 77.5762C241.193 77.9434 241.312 78.3555 241.316 78.8125C241.312 79.1367 241.25 79.4492 241.129 79.75C241.008 80.0469 240.801 80.3789 240.508 80.7461C240.215 81.1094 239.801 81.5547 239.266 82.082L237.543 83.8281V83.8984H241.457V85H235.75V84.0625ZM245.84 85.1172C245.188 85.1172 244.627 84.9473 244.158 84.6074C243.693 84.2676 243.338 83.7715 243.092 83.1191C242.846 82.4629 242.723 81.6758 242.723 80.7578C242.723 79.8477 242.846 79.0664 243.092 78.4141C243.342 77.7578 243.701 77.2578 244.17 76.9141C244.639 76.5703 245.195 76.3984 245.84 76.3984C246.484 76.3984 247.041 76.5703 247.51 76.9141C247.979 77.2578 248.336 77.7578 248.582 78.4141C248.832 79.0664 248.957 79.8477 248.957 80.7578C248.957 81.6758 248.834 82.4609 248.588 83.1133C248.342 83.7656 247.984 84.2637 247.516 84.6074C247.047 84.9473 246.488 85.1172 245.84 85.1172ZM245.84 84.0039C246.223 84.0039 246.551 83.8809 246.824 83.6348C247.098 83.3848 247.307 83.0176 247.451 82.5332C247.596 82.0488 247.668 81.457 247.668 80.7578C247.668 80.0625 247.594 79.4707 247.445 78.9824C247.301 78.4902 247.092 78.1191 246.818 77.8691C246.545 77.6152 246.219 77.4883 245.84 77.4883C245.461 77.4883 245.135 77.6152 244.861 77.8691C244.588 78.1191 244.377 78.4902 244.229 78.9824C244.084 79.4707 244.012 80.0625 244.012 80.7578C244.012 81.457 244.084 82.0488 244.229 82.5332C244.373 83.0176 244.582 83.3848 244.855 83.6348C245.129 83.8809 245.457 84.0039 245.84 84.0039ZM252.238 80.5469C251.859 80.5508 251.535 80.4648 251.266 80.2891C250.996 80.1133 250.793 79.8672 250.656 79.5508C250.52 79.2305 250.453 78.8594 250.457 78.4375C250.453 78.0234 250.521 77.6582 250.662 77.3418C250.803 77.0254 251.008 76.7793 251.277 76.6035C251.547 76.4277 251.867 76.3398 252.238 76.3398C252.617 76.3398 252.939 76.4277 253.205 76.6035C253.475 76.7793 253.678 77.0254 253.814 77.3418C253.951 77.6543 254.02 78.0195 254.02 78.4375C254.02 78.8594 253.949 79.2305 253.809 79.5508C253.668 79.8711 253.463 80.1191 253.193 80.2949C252.928 80.4668 252.609 80.5508 252.238 80.5469ZM252.238 79.7266C252.508 79.7266 252.709 79.6113 252.842 79.3809C252.979 79.1504 253.047 78.8359 253.047 78.4375C253.047 78.0391 252.98 77.7266 252.848 77.5C252.715 77.2734 252.512 77.1602 252.238 77.1602C251.973 77.1641 251.77 77.2812 251.629 77.5117C251.488 77.7383 251.418 78.0469 251.418 78.4375C251.418 78.8359 251.486 79.1504 251.623 79.3809C251.764 79.6113 251.969 79.7266 252.238 79.7266ZM257.594 85.1758C257.215 85.1758 256.891 85.0879 256.621 84.9121C256.352 84.7363 256.148 84.4902 256.012 84.1738C255.875 83.8574 255.809 83.4883 255.812 83.0664C255.809 82.6484 255.877 82.2812 256.018 81.9648C256.158 81.6445 256.363 81.3965 256.633 81.2207C256.906 81.0449 257.227 80.957 257.594 80.957C257.973 80.957 258.295 81.0449 258.561 81.2207C258.83 81.3965 259.033 81.6426 259.17 81.959C259.307 82.2754 259.375 82.6445 259.375 83.0664C259.375 83.4844 259.305 83.8535 259.164 84.1738C259.023 84.4902 258.818 84.7363 258.549 84.9121C258.283 85.0879 257.965 85.1758 257.594 85.1758ZM257.594 84.3438C257.859 84.3438 258.061 84.2305 258.197 84.0039C258.334 83.7734 258.402 83.4609 258.402 83.0664C258.402 82.6641 258.336 82.3496 258.203 82.123C258.07 81.8926 257.867 81.7773 257.594 81.7773C257.328 81.7812 257.125 81.9004 256.984 82.1348C256.844 82.3652 256.773 82.6758 256.773 83.0664C256.773 83.457 256.844 83.7676 256.984 83.998C257.129 84.2285 257.332 84.3438 257.594 84.3438ZM257.242 76.5156H258.309L252.484 85H251.418L257.242 76.5156Z" fill="#C6C6C6"/>
<rect x="195" y="101" width="8" height="8" rx="2" fill="#B7C2D2"/>
<path d="M219 113C223.418 113 227 109.418 227 105C227 100.582 223.418 97 219 97C214.582 97 211 100.582 211 105C211 109.418 214.582 113 219 113Z" fill="#FBC85B"/>
<path d="M217.942 110.78L217.851 110.329L219.01 110.093C219.097 110.074 219.178 110.037 219.25 109.985C219.321 109.932 219.381 109.866 219.425 109.789C219.517 109.64 219.55 109.462 219.517 109.29C219.516 109.283 219.516 109.275 219.517 109.268C219.475 109.101 219.372 108.955 219.227 108.861C219.155 108.813 219.075 108.78 218.991 108.763C218.906 108.746 218.819 108.746 218.735 108.763L215.478 109.425C215.453 109.431 215.427 109.432 215.401 109.427C215.376 109.422 215.351 109.411 215.33 109.396C215.289 109.367 215.26 109.323 215.249 109.274C215.242 109.239 215.245 109.204 215.256 109.171L215.535 108.387V108.379C215.569 108.252 215.57 108.117 215.538 107.989C215.506 107.861 215.441 107.743 215.351 107.646C215.26 107.55 215.147 107.478 215.021 107.438C214.895 107.398 214.76 107.391 214.631 107.417C214.524 107.438 214.423 107.482 214.335 107.545C214.246 107.608 214.171 107.689 214.116 107.782L213.357 109.072C212.959 109.749 212.825 110.551 212.982 111.322C213.126 112.027 213.543 112.647 214.143 113.045C214.743 113.442 215.477 113.586 216.182 113.443C216.769 113.324 217.284 112.977 217.615 112.478C217.946 111.979 218.065 111.369 217.946 110.782L217.942 110.78Z" fill="#E8AA26"/>
<path d="M222.011 101.25C222.011 101.25 221.466 101.35 220.827 101.739C220.187 102.128 219.781 102.488 219.781 102.488" stroke="#3E414D" stroke-width="0.896057" stroke-linecap="round" stroke-linejoin="round"/>
<path d="M215.468 103.254C215.468 103.254 215.998 103.134 216.746 103.1C217.009 103.088 217.246 103.102 217.441 103.125" stroke="#3E414D" stroke-width="0.896057" stroke-linecap="round" stroke-linejoin="round"/>
<path d="M216.688 105.5C217.171 105.5 217.563 105.108 217.563 104.625C217.563 104.142 217.171 103.75 216.688 103.75C216.204 103.75 215.812 104.142 215.812 104.625C215.812 105.108 216.204 105.5 216.688 105.5Z" fill="#3E414D"/>
<rect x="220.656" y="103" width="1.34375" height="2.34375" rx="0.671875" fill="#494D59"/>
<path d="M220.957 108.005C220.296 107.557 219.469 107.348 218.616 107.48C218.442 107.506 218.274 107.546 218.112 107.598" stroke="#9A695E" stroke-width="1.07527" stroke-linecap="round"/>
<path d="M238.973 109H237.672V101.805H237.625L235.598 103.129V101.898L237.707 100.516H238.973V109ZM244.023 100.398C244.594 100.398 245.119 100.527 245.6 100.785C246.084 101.039 246.479 101.469 246.783 102.074C247.092 102.676 247.246 103.469 247.246 104.453C247.246 105.434 247.111 106.273 246.842 106.973C246.576 107.672 246.193 108.205 245.693 108.572C245.197 108.936 244.609 109.117 243.93 109.117C243.418 109.117 242.957 109.02 242.547 108.824C242.141 108.625 241.809 108.35 241.551 107.998C241.297 107.643 241.137 107.234 241.07 106.773H242.348C242.438 107.145 242.619 107.441 242.893 107.664C243.17 107.883 243.516 107.992 243.93 107.992C244.363 107.992 244.734 107.871 245.043 107.629C245.355 107.383 245.594 107.029 245.758 106.568C245.926 106.104 246.012 105.551 246.016 104.91H245.91C245.68 105.27 245.373 105.551 244.99 105.754C244.611 105.957 244.195 106.059 243.742 106.059C243.238 106.059 242.777 105.939 242.359 105.701C241.941 105.463 241.609 105.131 241.363 104.705C241.121 104.279 241 103.801 241 103.27C241 102.734 241.125 102.248 241.375 101.811C241.629 101.373 241.984 101.029 242.441 100.779C242.902 100.525 243.43 100.398 244.023 100.398ZM244.047 101.477C243.711 101.477 243.406 101.557 243.133 101.717C242.859 101.873 242.645 102.088 242.488 102.361C242.332 102.631 242.254 102.926 242.254 103.246C242.254 103.57 242.33 103.867 242.482 104.137C242.635 104.406 242.846 104.619 243.115 104.775C243.385 104.928 243.688 105.004 244.023 105.004C244.355 105.004 244.66 104.922 244.938 104.758C245.215 104.594 245.434 104.377 245.594 104.107C245.758 103.834 245.84 103.543 245.84 103.234C245.84 102.93 245.762 102.643 245.605 102.373C245.453 102.104 245.238 101.887 244.961 101.723C244.688 101.559 244.383 101.477 244.047 101.477ZM250.551 104.547C250.172 104.551 249.848 104.465 249.578 104.289C249.309 104.113 249.105 103.867 248.969 103.551C248.832 103.23 248.766 102.859 248.77 102.438C248.766 102.023 248.834 101.658 248.975 101.342C249.115 101.025 249.32 100.779 249.59 100.604C249.859 100.428 250.18 100.34 250.551 100.34C250.93 100.34 251.252 100.428 251.518 100.604C251.787 100.779 251.99 101.025 252.127 101.342C252.264 101.654 252.332 102.02 252.332 102.438C252.332 102.859 252.262 103.23 252.121 103.551C251.98 103.871 251.775 104.119 251.506 104.295C251.24 104.467 250.922 104.551 250.551 104.547ZM250.551 103.727C250.82 103.727 251.021 103.611 251.154 103.381C251.291 103.15 251.359 102.836 251.359 102.438C251.359 102.039 251.293 101.727 251.16 101.5C251.027 101.273 250.824 101.16 250.551 101.16C250.285 101.164 250.082 101.281 249.941 101.512C249.801 101.738 249.73 102.047 249.73 102.438C249.73 102.836 249.799 103.15 249.936 103.381C250.076 103.611 250.281 103.727 250.551 103.727ZM255.906 109.176C255.527 109.176 255.203 109.088 254.934 108.912C254.664 108.736 254.461 108.49 254.324 108.174C254.188 107.857 254.121 107.488 254.125 107.066C254.121 106.648 254.189 106.281 254.33 105.965C254.471 105.645 254.676 105.396 254.945 105.221C255.219 105.045 255.539 104.957 255.906 104.957C256.285 104.957 256.607 105.045 256.873 105.221C257.143 105.396 257.346 105.643 257.482 105.959C257.619 106.275 257.688 106.645 257.688 107.066C257.688 107.484 257.617 107.854 257.477 108.174C257.336 108.49 257.131 108.736 256.861 108.912C256.596 109.088 256.277 109.176 255.906 109.176ZM255.906 108.344C256.172 108.344 256.373 108.23 256.51 108.004C256.646 107.773 256.715 107.461 256.715 107.066C256.715 106.664 256.648 106.35 256.516 106.123C256.383 105.893 256.18 105.777 255.906 105.777C255.641 105.781 255.438 105.9 255.297 106.135C255.156 106.365 255.086 106.676 255.086 107.066C255.086 107.457 255.156 107.768 255.297 107.998C255.441 108.229 255.645 108.344 255.906 108.344ZM255.555 100.516H256.621L250.797 109H249.73L255.555 100.516Z" fill="#C6C6C6"/>
<rect x="195" y="125" width="8" height="8" rx="2" fill="#D6DCE4"/>
<g clip-path="url(#clip3_1_32657)">
<path d="M219 137C223.418 137 227 133.418 227 129C227 124.582 223.418 121 219 121C214.582 121 211 124.582 211 129C211 133.418 214.582 137 219 137Z" fill="#FBC85B"/>
<path d="M217.443 132.541C217.443 133.464 216.748 134.212 215.889 134.212C215.029 134.212 214.334 133.464 214.334 132.541C214.334 131.809 215.303 130.484 215.706 129.959C215.726 129.931 215.753 129.908 215.784 129.893C215.814 129.877 215.848 129.869 215.883 129.869C215.917 129.869 215.951 129.877 215.982 129.893C216.013 129.908 216.039 129.931 216.06 129.959C216.475 130.484 217.443 131.812 217.443 132.541Z" fill="#5195EE"/>
<path d="M216.938 128.25C217.421 128.25 217.813 127.858 217.813 127.375C217.813 126.892 217.421 126.5 216.938 126.5C216.454 126.5 216.062 126.892 216.062 127.375C216.062 127.858 216.454 128.25 216.938 128.25Z" fill="#3E414D"/>
<path d="M221.063 128.25C221.546 128.25 221.938 127.858 221.938 127.375C221.938 126.892 221.546 126.5 221.063 126.5C220.579 126.5 220.188 126.892 220.188 127.375C220.188 127.858 220.579 128.25 221.063 128.25Z" fill="#3E414D"/>
<path d="M221.25 132.688C220.665 132.145 219.879 131.813 219.016 131.813C218.84 131.813 218.668 131.826 218.5 131.853" stroke="#9A695E" stroke-width="1.43369" stroke-linecap="round"/>
</g>
<path d="M238.973 133H237.672V125.805H237.625L235.598 127.129V125.898L237.707 124.516H238.973V133ZM245.207 125.688V125.617H240.836V124.516H246.543V125.664L242.77 133H241.422L245.207 125.688ZM249.789 128.547C249.41 128.551 249.086 128.465 248.816 128.289C248.547 128.113 248.344 127.867 248.207 127.551C248.07 127.23 248.004 126.859 248.008 126.438C248.004 126.023 248.072 125.658 248.213 125.342C248.354 125.025 248.559 124.779 248.828 124.604C249.098 124.428 249.418 124.34 249.789 124.34C250.168 124.34 250.49 124.428 250.756 124.604C251.025 124.779 251.229 125.025 251.365 125.342C251.502 125.654 251.57 126.02 251.57 126.438C251.57 126.859 251.5 127.23 251.359 127.551C251.219 127.871 251.014 128.119 250.744 128.295C250.479 128.467 250.16 128.551 249.789 128.547ZM249.789 127.727C250.059 127.727 250.26 127.611 250.393 127.381C250.529 127.15 250.598 126.836 250.598 126.438C250.598 126.039 250.531 125.727 250.398 125.5C250.266 125.273 250.062 125.16 249.789 125.16C249.523 125.164 249.32 125.281 249.18 125.512C249.039 125.738 248.969 126.047 248.969 126.438C248.969 126.836 249.037 127.15 249.174 127.381C249.314 127.611 249.52 127.727 249.789 127.727ZM255.145 133.176C254.766 133.176 254.441 133.088 254.172 132.912C253.902 132.736 253.699 132.49 253.562 132.174C253.426 131.857 253.359 131.488 253.363 131.066C253.359 130.648 253.428 130.281 253.568 129.965C253.709 129.645 253.914 129.396 254.184 129.221C254.457 129.045 254.777 128.957 255.145 128.957C255.523 128.957 255.846 129.045 256.111 129.221C256.381 129.396 256.584 129.643 256.721 129.959C256.857 130.275 256.926 130.645 256.926 131.066C256.926 131.484 256.855 131.854 256.715 132.174C256.574 132.49 256.369 132.736 256.1 132.912C255.834 133.088 255.516 133.176 255.145 133.176ZM255.145 132.344C255.41 132.344 255.611 132.23 255.748 132.004C255.885 131.773 255.953 131.461 255.953 131.066C255.953 130.664 255.887 130.35 255.754 130.123C255.621 129.893 255.418 129.777 255.145 129.777C254.879 129.781 254.676 129.9 254.535 130.135C254.395 130.365 254.324 130.676 254.324 131.066C254.324 131.457 254.395 131.768 254.535 131.998C254.68 132.229 254.883 132.344 255.145 132.344ZM254.793 124.516H255.859L250.035 133H248.969L254.793 124.516Z" fill="#C6C6C6"/>
<rect x="195" y="149" width="8" height="8" rx="2" fill="#DDE2EB"/>
<path d="M219 161C223.418 161 227 157.418 227 153C227 148.582 223.418 145 219 145C214.582 145 211 148.582 211 153C211 157.418 214.582 161 219 161Z" fill="#E46E80"/>
<path d="M224.419 154.548H213.581C213.296 154.548 213.064 154.779 213.064 155.064V158.677C213.064 158.962 213.296 159.193 213.581 159.193H224.419C224.704 159.193 224.935 158.962 224.935 158.677V155.064C224.935 154.779 224.704 154.548 224.419 154.548Z" fill="#494D59"/>
<path d="M223.365 157.517L223.57 157.312C223.67 157.211 223.67 157.048 223.57 156.947C223.469 156.846 223.305 156.846 223.205 156.947L223 157.152L222.819 156.971C223.006 156.829 223.129 156.607 223.129 156.355C223.129 155.928 222.782 155.581 222.355 155.581C221.928 155.581 221.581 155.928 221.581 156.355C221.581 156.438 221.597 156.516 221.621 156.591C221.416 156.778 221.302 157.053 221.326 157.337C221.365 157.799 221.777 158.162 222.265 158.162C222.534 158.162 222.796 158.057 222.996 157.877L223.205 158.086C223.255 158.136 223.321 158.162 223.387 158.162C223.453 158.162 223.519 158.136 223.57 158.086C223.67 157.985 223.67 157.822 223.57 157.721L223.365 157.517ZM222.355 156.097C222.497 156.097 222.613 156.213 222.613 156.355C222.613 156.498 222.497 156.613 222.355 156.613C222.212 156.613 222.097 156.498 222.097 156.355C222.097 156.213 222.212 156.097 222.355 156.097ZM222.265 157.646C222.047 157.646 221.857 157.487 221.84 157.293C221.831 157.184 221.867 157.082 221.936 157.004C222.025 157.062 222.127 157.1 222.236 157.117L222.631 157.512C222.528 157.596 222.398 157.646 222.265 157.646Z" fill="#F9FAFC"/>
<path d="M216.574 155.633C216.46 155.547 216.298 155.57 216.213 155.684L214.665 157.749C214.579 157.863 214.602 158.024 214.716 158.11C214.763 158.145 214.817 158.162 214.871 158.162C214.949 158.162 215.027 158.126 215.077 158.058L216.626 155.994C216.711 155.88 216.688 155.718 216.574 155.633Z" fill="#F9FAFC"/>
<path d="M217.71 157.387C217.852 157.387 217.968 157.272 217.968 157.129V155.839C217.968 155.696 217.852 155.581 217.71 155.581C217.567 155.581 217.452 155.696 217.452 155.839V157.129C217.452 157.272 217.567 157.387 217.71 157.387Z" fill="#F9FAFC"/>
<path d="M217.71 157.646C217.567 157.646 217.452 157.761 217.452 157.904C217.452 158.046 217.567 158.162 217.71 158.162H217.712C217.855 158.162 217.969 158.046 217.969 157.904C217.969 157.761 217.852 157.646 217.71 157.646Z" fill="#F9FAFC"/>
<path d="M220.806 156.097H220.75L220.799 155.901C220.833 155.763 220.749 155.623 220.611 155.588C220.473 155.552 220.333 155.637 220.298 155.776L220.218 156.097H219.718L219.766 155.901C219.801 155.763 219.717 155.623 219.579 155.588C219.44 155.552 219.3 155.637 219.266 155.776L219.186 156.097H219C218.857 156.097 218.742 156.212 218.742 156.355C218.742 156.497 218.857 156.613 219 156.613H219.057L218.928 157.129H218.742C218.599 157.129 218.484 157.244 218.484 157.387C218.484 157.53 218.599 157.645 218.742 157.645H218.799L218.75 157.841C218.715 157.979 218.799 158.119 218.938 158.153C218.958 158.159 218.98 158.161 219 158.161C219.116 158.161 219.221 158.083 219.25 157.966L219.33 157.645H219.831L219.782 157.841C219.747 157.979 219.831 158.119 219.97 158.153C219.991 158.159 220.012 158.161 220.033 158.161C220.148 158.161 220.253 158.083 220.283 157.966L220.363 157.645H220.548C220.691 157.645 220.806 157.53 220.806 157.387C220.806 157.244 220.691 157.129 220.548 157.129H220.492L220.621 156.613H220.806C220.949 156.613 221.065 156.497 221.065 156.355C221.065 156.212 220.949 156.097 220.806 156.097ZM219.96 157.129H219.459L219.588 156.613H220.089L219.96 157.129Z" fill="#F9FAFC"/>
<path d="M215.387 156.097C215.387 155.813 215.156 155.581 214.871 155.581C214.587 155.581 214.355 155.813 214.355 156.097C214.355 156.382 214.587 156.613 214.871 156.613C215.156 156.613 215.387 156.382 215.387 156.097Z" fill="#F9FAFC"/>
<path d="M216.419 157.129C216.135 157.129 215.903 157.36 215.903 157.645C215.903 157.93 216.135 158.161 216.419 158.161C216.704 158.161 216.936 157.93 216.936 157.645C216.936 157.36 216.704 157.129 216.419 157.129Z" fill="#F9FAFC"/>
<path d="M222.921 149.357C222.833 149.23 222.686 149.225 222.53 149.285C222.53 149.285 221.823 149.609 221.389 149.719C220.955 149.829 220.249 149.931 220.249 149.931C220.107 149.959 219.946 150.08 219.956 150.235C219.965 150.391 220.098 150.509 220.253 150.499L220.282 150.497C220.3 150.496 220.326 150.494 220.359 150.491C220.424 150.485 220.519 150.475 220.636 150.459C220.87 150.428 221.197 150.373 221.572 150.282C221.96 150.188 222.275 150.057 222.494 149.949C222.604 149.895 222.69 149.846 222.75 149.811C222.78 149.793 222.804 149.778 222.82 149.767L222.849 149.749C222.977 149.66 223.009 149.485 222.921 149.357Z" fill="#3E414D"/>
<path d="M215.073 149.357C215.161 149.23 215.307 149.225 215.463 149.285C215.463 149.285 216.17 149.609 216.604 149.719C217.038 149.829 217.744 149.931 217.744 149.931C217.886 149.959 218.047 150.08 218.038 150.235C218.028 150.391 217.895 150.509 217.74 150.499L217.711 150.497C217.693 150.496 217.667 150.494 217.634 150.491C217.569 150.485 217.475 150.475 217.357 150.459C217.123 150.428 216.796 150.373 216.421 150.282C216.034 150.188 215.718 150.057 215.499 149.949C215.389 149.895 215.303 149.846 215.243 149.811C215.213 149.793 215.189 149.778 215.173 149.767L215.145 149.749C215.017 149.66 214.984 149.485 215.073 149.357Z" fill="#3E414D"/>
<path d="M216.938 153C217.421 153 217.813 152.608 217.813 152.125C217.813 151.642 217.421 151.25 216.938 151.25C216.454 151.25 216.062 151.642 216.062 152.125C216.062 152.608 216.454 153 216.938 153Z" fill="#3E414D"/>
<path d="M221.063 153C221.546 153 221.938 152.608 221.938 152.125C221.938 151.642 221.546 151.25 221.063 151.25C220.579 151.25 220.188 151.642 220.188 152.125C220.188 152.608 220.579 153 221.063 153Z" fill="#3E414D"/>
<path d="M238.645 148.398C239.215 148.398 239.74 148.527 240.221 148.785C240.705 149.039 241.1 149.469 241.404 150.074C241.713 150.676 241.867 151.469 241.867 152.453C241.867 153.434 241.732 154.273 241.463 154.973C241.197 155.672 240.814 156.205 240.314 156.572C239.818 156.936 239.23 157.117 238.551 157.117C238.039 157.117 237.578 157.02 237.168 156.824C236.762 156.625 236.43 156.35 236.172 155.998C235.918 155.643 235.758 155.234 235.691 154.773H236.969C237.059 155.145 237.24 155.441 237.514 155.664C237.791 155.883 238.137 155.992 238.551 155.992C238.984 155.992 239.355 155.871 239.664 155.629C239.977 155.383 240.215 155.029 240.379 154.568C240.547 154.104 240.633 153.551 240.637 152.91H240.531C240.301 153.27 239.994 153.551 239.611 153.754C239.232 153.957 238.816 154.059 238.363 154.059C237.859 154.059 237.398 153.939 236.98 153.701C236.562 153.463 236.23 153.131 235.984 152.705C235.742 152.279 235.621 151.801 235.621 151.27C235.621 150.734 235.746 150.248 235.996 149.811C236.25 149.373 236.605 149.029 237.062 148.779C237.523 148.525 238.051 148.398 238.645 148.398ZM238.668 149.477C238.332 149.477 238.027 149.557 237.754 149.717C237.48 149.873 237.266 150.088 237.109 150.361C236.953 150.631 236.875 150.926 236.875 151.246C236.875 151.57 236.951 151.867 237.104 152.137C237.256 152.406 237.467 152.619 237.736 152.775C238.006 152.928 238.309 153.004 238.645 153.004C238.977 153.004 239.281 152.922 239.559 152.758C239.836 152.594 240.055 152.377 240.215 152.107C240.379 151.834 240.461 151.543 240.461 151.234C240.461 150.93 240.383 150.643 240.227 150.373C240.074 150.104 239.859 149.887 239.582 149.723C239.309 149.559 239.004 149.477 238.668 149.477ZM245.172 152.547C244.793 152.551 244.469 152.465 244.199 152.289C243.93 152.113 243.727 151.867 243.59 151.551C243.453 151.23 243.387 150.859 243.391 150.438C243.387 150.023 243.455 149.658 243.596 149.342C243.736 149.025 243.941 148.779 244.211 148.604C244.48 148.428 244.801 148.34 245.172 148.34C245.551 148.34 245.873 148.428 246.139 148.604C246.408 148.779 246.611 149.025 246.748 149.342C246.885 149.654 246.953 150.02 246.953 150.438C246.953 150.859 246.883 151.23 246.742 151.551C246.602 151.871 246.396 152.119 246.127 152.295C245.861 152.467 245.543 152.551 245.172 152.547ZM245.172 151.727C245.441 151.727 245.643 151.611 245.775 151.381C245.912 151.15 245.98 150.836 245.98 150.438C245.98 150.039 245.914 149.727 245.781 149.5C245.648 149.273 245.445 149.16 245.172 149.16C244.906 149.164 244.703 149.281 244.562 149.512C244.422 149.738 244.352 150.047 244.352 150.438C244.352 150.836 244.42 151.15 244.557 151.381C244.697 151.611 244.902 151.727 245.172 151.727ZM250.527 157.176C250.148 157.176 249.824 157.088 249.555 156.912C249.285 156.736 249.082 156.49 248.945 156.174C248.809 155.857 248.742 155.488 248.746 155.066C248.742 154.648 248.811 154.281 248.951 153.965C249.092 153.645 249.297 153.396 249.566 153.221C249.84 153.045 250.16 152.957 250.527 152.957C250.906 152.957 251.229 153.045 251.494 153.221C251.764 153.396 251.967 153.643 252.104 153.959C252.24 154.275 252.309 154.645 252.309 155.066C252.309 155.484 252.238 155.854 252.098 156.174C251.957 156.49 251.752 156.736 251.482 156.912C251.217 157.088 250.898 157.176 250.527 157.176ZM250.527 156.344C250.793 156.344 250.994 156.23 251.131 156.004C251.268 155.773 251.336 155.461 251.336 155.066C251.336 154.664 251.27 154.35 251.137 154.123C251.004 153.893 250.801 153.777 250.527 153.777C250.262 153.781 250.059 153.9 249.918 154.135C249.777 154.365 249.707 154.676 249.707 155.066C249.707 155.457 249.777 155.768 249.918 155.998C250.062 156.229 250.266 156.344 250.527 156.344ZM250.176 148.516H251.242L245.418 157H244.352L250.176 148.516Z" fill="#C6C6C6"/>
<path fill-rule="evenodd" clip-rule="evenodd" d="M76.4038 12.2962C76.3803 8.68454 73.4299 5.75302 69.8278 6.01758C57.2855 6.9388 45.0363 10.2685 33.7511 15.8243C30.5184 17.4157 29.458 21.4265 31.2581 24.5477C33.0618 27.675 37.0517 28.7198 40.306 27.1569C49.396 22.7912 59.3822 19.9972 69.9133 19.1264C73.5131 18.8288 76.4273 15.9082 76.4038 12.2962Z" fill="#DDE2EB"/>
<path d="M69.9133 19.1264L69.7617 17.2933L69.9133 19.1264ZM40.306 27.1569L39.5097 25.4988L40.306 27.1569ZM34.5635 17.4745C45.6368 12.0231 57.6559 8.75596 69.9626 7.85206L69.6931 4.18311C56.9151 5.12164 44.4358 8.51386 32.9386 14.174L34.5635 17.4745ZM41.1024 28.815C49.9938 24.5446 59.7619 21.8115 70.0649 20.9596L69.7617 17.2933C59.0025 18.1829 48.7981 21.0378 39.5097 25.4988L41.1024 28.815ZM70.0649 20.9596C74.5337 20.5901 78.2735 16.945 78.2431 12.2843L74.5644 12.3082C74.5811 14.8713 72.4924 17.0675 69.7617 17.2933L70.0649 20.9596ZM29.6647 25.4667C31.9931 29.5037 37.0625 30.7552 41.1024 28.815L39.5097 25.4988C37.041 26.6844 34.1305 25.8463 32.8515 23.6288L29.6647 25.4667ZM69.9626 7.85206C72.4217 7.67144 74.5473 9.6771 74.5644 12.3082L78.2431 12.2843C78.2133 7.69197 74.4381 3.8346 69.6931 4.18311L69.9626 7.85206ZM32.9386 14.174C28.6788 16.2711 27.3749 21.4965 29.6647 25.4667L32.8515 23.6288C31.541 21.3565 32.358 18.5603 34.5635 17.4745L32.9386 14.174Z" fill="#ECEFF4"/>
<path fill-rule="evenodd" clip-rule="evenodd" d="M29.0131 33.7382C31.9843 31.6979 33.0684 27.7276 31.2677 24.6054C29.4635 21.4772 25.4498 20.3875 22.4507 22.3991C13.5968 28.3376 5.75723 35.6906 -0.748471 44.1779C-7.25963 52.6723 -12.3288 62.1644 -15.7675 72.2721C-16.9271 75.6806 -14.8425 79.2638 -11.3652 80.1965C-7.88367 81.1304 -4.32898 79.0515 -3.13286 75.6512C2.9039 58.4899 14.2863 43.8512 29.0131 33.7382Z" fill="#D6DCE4"/>
<path d="M-0.748471 44.1779L0.711397 45.2969L-0.748471 44.1779ZM0.711397 45.2969C7.0951 36.9688 14.7876 29.7537 23.4753 23.9267L21.4261 20.8715C12.406 26.9214 4.41936 34.4125 -2.20834 43.0589L0.711397 45.2969ZM-14.0261 72.8646C-10.6518 62.9463 -5.67767 53.632 0.711397 45.2969L-2.20834 43.0589C-8.8416 51.7125 -14.0057 61.3826 -17.5089 71.6797L-14.0261 72.8646ZM-1.39767 76.2615C4.50767 59.4739 15.644 45.1502 30.0544 35.2545L27.9719 32.2219C12.9285 42.5522 1.30014 57.506 -4.86804 75.0408L-1.39767 76.2615ZM-11.8417 81.9732C-7.34629 83.179 -2.88275 80.4833 -1.39767 76.2615L-4.86804 75.0408C-5.7752 77.6196 -8.42106 79.0818 -10.8886 78.4199L-11.8417 81.9732ZM-17.5089 71.6797C-19.0372 76.1719 -16.2661 80.7864 -11.8417 81.9732L-10.8886 78.4199C-13.419 77.7412 -14.817 75.1892 -14.0261 72.8646L-17.5089 71.6797ZM29.6743 25.5244C30.9518 27.7394 30.2259 30.674 27.9719 32.2219L30.0544 35.2545C33.7426 32.7218 35.185 27.7158 32.8611 23.6864L29.6743 25.5244ZM32.8611 23.6864C30.5667 19.7082 25.3775 18.2212 21.4261 20.8715L23.4753 23.9267C25.5222 22.5539 28.3604 23.2462 29.6743 25.5244L32.8611 23.6864Z" fill="#ECEFF4"/>
<path fill-rule="evenodd" clip-rule="evenodd" d="M12.328 168.636C14.8776 166.083 14.8561 161.964 12.5088 159.224C-0.234306 144.354 -7.93345 125.025 -7.93345 103.896C-7.93345 98.5482 -7.44019 93.3154 -6.49671 88.2412C-5.83848 84.701 -7.87708 81.1299 -11.355 80.197C-14.837 79.263 -18.4393 81.3271 -19.138 84.8638C-22.0417 99.5611 -21.5492 114.76 -17.6607 129.287C-13.7738 143.809 -6.61297 157.213 3.23663 168.485C5.61383 171.205 9.77473 171.191 12.328 168.636Z" fill="#B7C2D2"/>
<path d="M3.23663 168.485L1.85151 169.695L3.23663 168.485ZM13.9055 158.027C1.43742 143.478 -6.09404 124.57 -6.09404 103.896H-9.77286C-9.77286 125.48 -1.90603 145.23 11.112 160.421L13.9055 158.027ZM-6.09404 103.896C-6.09404 98.6615 -5.61125 93.5413 -4.6883 88.5774L-8.30513 87.9049C-9.26912 93.0896 -9.77286 98.4348 -9.77286 103.896H-6.09404ZM-15.8839 128.811C-19.6995 114.556 -20.1828 99.6423 -17.3335 85.2203L-20.9426 84.5073C-23.9006 99.4799 -23.399 114.963 -19.4376 129.763L-15.8839 128.811ZM4.62175 167.274C-5.04311 156.214 -12.0697 143.061 -15.8839 128.811L-19.4376 129.763C-15.4778 144.556 -8.18282 158.211 1.85151 169.695L4.62175 167.274ZM-10.8785 78.4204C-15.3081 77.2322 -20.0218 79.8465 -20.9426 84.5073L-17.3335 85.2203C-16.8569 82.8076 -14.3659 81.2938 -11.8315 81.9736L-10.8785 78.4204ZM-4.6883 88.5774C-3.87103 84.182 -6.38855 79.6247 -10.8785 78.4204L-11.8315 81.9736C-9.3656 82.6351 -7.80592 85.22 -8.30513 87.9049L-4.6883 88.5774ZM1.85151 169.695C4.98321 173.279 10.3825 173.186 13.6294 169.936L11.0267 167.336C9.16697 169.197 6.24445 169.131 4.62175 167.274L1.85151 169.695ZM11.112 160.421C12.8925 162.499 12.8358 165.525 11.0267 167.336L13.6294 169.936C16.9194 166.642 16.8198 161.428 13.9055 158.027L11.112 160.421Z" fill="#ECEFF4"/>
<path fill-rule="evenodd" clip-rule="evenodd" d="M122.741 183.207C120.937 180.08 116.948 179.035 113.693 180.598C102.587 185.932 90.1418 188.92 76.9998 188.92C55.898 188.92 36.5935 181.217 21.7398 168.466C18.9986 166.112 14.8714 166.091 12.3182 168.647C9.76867 171.199 9.75507 175.353 12.4688 177.73C26.99 190.448 44.9822 198.627 64.2081 201.161C83.4359 203.695 102.932 200.456 120.248 191.93C123.48 190.339 124.541 186.328 122.741 183.207Z" fill="#FBC85B"/>
<path d="M64.2081 201.161L63.9677 202.984L64.2081 201.161ZM120.248 191.93L119.435 190.28L120.248 191.93ZM112.897 178.94C102.033 184.157 89.8602 187.081 76.9998 187.081V190.76C90.4234 190.76 103.14 187.707 114.49 182.256L112.897 178.94ZM76.9998 187.081C56.3541 187.081 37.4709 179.546 22.938 167.07L20.5417 169.861C35.7162 182.888 55.4419 190.76 76.9998 190.76V187.081ZM64.4484 199.337C45.5838 196.851 27.9294 188.826 13.6807 176.346L11.2568 179.113C26.0505 192.071 44.3806 200.403 63.9677 202.984L64.4484 199.337ZM119.435 190.28C102.444 198.645 83.3149 201.824 64.4484 199.337L63.9677 202.984C83.5569 205.566 103.419 202.266 121.06 193.581L119.435 190.28ZM11.0168 167.347C7.77467 170.592 7.682 175.982 11.2568 179.113L13.6807 176.346C11.8281 174.723 11.7627 171.806 13.6195 169.947L11.0168 167.347ZM22.938 167.07C19.5349 164.149 14.3117 164.049 11.0168 167.347L13.6195 169.947C15.4312 168.133 18.4623 168.076 20.5417 169.861L22.938 167.07ZM121.06 193.581C125.32 191.484 126.624 186.258 124.334 182.288L121.148 184.126C122.458 186.398 121.641 189.194 119.435 190.28L121.06 193.581ZM114.49 182.256C116.958 181.071 119.869 181.909 121.148 184.126L124.334 182.288C122.006 178.251 116.937 177 112.897 178.94L114.49 182.256Z" fill="#ECEFF4"/>
<path fill-rule="evenodd" clip-rule="evenodd" d="M167.539 141.44C160.12 159.37 147.575 174.648 131.549 185.397C128.55 187.408 124.536 186.319 122.732 183.191C120.931 180.069 122.016 176.098 124.987 174.058C147.298 158.736 161.932 133.028 161.932 103.897C161.932 59.144 127.391 22.4667 83.5394 19.1239C79.9379 18.8494 76.9995 15.9475 76.9995 12.3356C76.9995 8.72357 79.9312 5.77272 83.5351 6.0138C102.783 7.30131 121.277 14.2534 136.658 26.0679C153.773 39.2145 166.076 57.6471 171.66 78.5068C177.244 99.3666 175.795 121.488 167.539 141.44Z" fill="#48BB98"/>
<path d="M167.539 141.44L165.84 140.736L167.539 141.44ZM136.658 26.0679L137.778 24.6092L136.658 26.0679ZM171.66 78.5068L173.437 78.0312L171.66 78.5068ZM83.5394 19.1239L83.3996 20.958L83.5394 19.1239ZM124.987 174.058L123.945 172.541L124.987 174.058ZM131.549 185.397L132.574 186.925L131.549 185.397ZM132.574 186.925C148.901 175.974 161.681 160.409 169.239 142.143L165.84 140.736C158.559 158.331 146.25 173.322 130.524 183.869L132.574 186.925ZM160.093 103.897C160.093 132.397 145.778 157.549 123.945 172.541L126.028 175.574C148.818 159.924 163.772 133.659 163.772 103.897H160.093ZM83.3996 20.958C126.298 24.2282 160.093 60.1114 160.093 103.897H163.772C163.772 58.1766 128.484 20.7053 83.6792 17.2898L83.3996 20.958ZM137.778 24.6092C122.109 12.5729 103.267 5.4902 83.6579 4.17848L83.4123 7.84911C102.298 9.11243 120.445 15.9339 135.537 27.5267L137.778 24.6092ZM173.437 78.0312C167.749 56.7807 155.215 38.0025 137.778 24.6092L135.537 27.5267C152.331 40.4265 164.404 58.5134 169.883 78.9824L173.437 78.0312ZM169.239 142.143C177.649 121.817 179.125 99.2817 173.437 78.0312L169.883 78.9824C175.362 99.4515 173.941 121.158 165.84 140.736L169.239 142.143ZM83.6792 17.2898C80.9453 17.0814 78.8389 14.897 78.8389 12.3356L75.1601 12.3356C75.1601 16.9981 78.9305 20.6173 83.3996 20.958L83.6792 17.2898ZM124.325 182.272C123.048 180.057 123.774 177.122 126.028 175.574L123.945 172.541C120.257 175.074 118.814 180.08 121.138 184.11L124.325 182.272ZM78.8389 12.3356C78.8389 9.70426 80.9518 7.68451 83.4123 7.84911L83.6579 4.17848C78.9106 3.86092 75.1601 7.74287 75.1601 12.3356L78.8389 12.3356ZM130.524 183.869C128.477 185.242 125.639 184.55 124.325 182.272L121.138 184.11C123.433 188.088 128.622 189.575 132.574 186.925L130.524 183.869Z" fill="#ECEFF4"/>
<g clip-path="url(#clip4_1_32657)">
<path d="M75.3666 104.102C86.1913 104.102 94.9665 95.3178 94.9665 84.4817C94.9665 73.6457 86.1913 64.8613 75.3666 64.8613C64.5418 64.8613 55.7666 73.6457 55.7666 84.4817C55.7666 95.3178 64.5418 104.102 75.3666 104.102Z" fill="#FBC85B"/>
<path d="M70.3132 82.6425C71.4971 82.6425 72.4569 81.6818 72.4569 80.4966C72.4569 79.3114 71.4971 78.3506 70.3132 78.3506C69.1292 78.3506 68.1694 79.3114 68.1694 80.4966C68.1694 81.6818 69.1292 82.6425 70.3132 82.6425Z" fill="#3E414D"/>
<path d="M80.4196 82.6425C81.6036 82.6425 82.5634 81.6818 82.5634 80.4966C82.5634 79.3114 81.6036 78.3506 80.4196 78.3506C79.2357 78.3506 78.2759 79.3114 78.2759 80.4966C78.2759 81.6818 79.2357 82.6425 80.4196 82.6425Z" fill="#3E414D"/>
<path d="M83.9416 89.3105C82.3192 92.3197 79.105 94.3689 75.4049 94.3689C71.7047 94.3689 68.4905 92.3197 66.8682 89.3105" stroke="#9A695E" stroke-width="2.63715" stroke-linecap="round"/>
</g>
<path d="M72.9664 114.745V137.993H69.6708V114.745H72.9664ZM65.9919 117.172C65.9919 124.223 63.5138 130.073 55.2109 134.008L53.4993 131.402C59.5029 128.566 62.1471 124.887 62.6708 119.727H54.7511V117.172H65.9919ZM80.7583 115.307V117.351H82.9299V115.307H85.9445V124.325H77.6926V115.307H80.7583ZM80.7583 121.719H82.9299V119.803H80.7583V121.719ZM90.3897 115.307V117.351H92.4846V115.307H95.5758V124.325H87.2985V115.307H90.3897ZM90.3897 121.719H92.4846V119.803H90.3897V121.719ZM97.2364 125.883V128.489H76.0321V125.883H97.2364ZM94.6561 130.099V137.737H78.4846V130.099H94.6561ZM81.678 132.679V135.132H91.4882V132.679H81.678Z" fill="#3E3E3E"/>
<ellipse cx="76.9999" cy="103.897" rx="76.7665" ry="76.8466" stroke="#E8E8E8" stroke-width="1.63503" stroke-dasharray="1.64 8.18"/>
</g>
<rect x="0.5" y="0.5" width="311" height="208" rx="15.5" stroke="#D2D9E3"/>
<defs>
<clipPath id="clip0_1_32657">
<rect width="312" height="209" rx="16" fill="white"/>
</clipPath>
<clipPath id="clip1_1_32657">
<rect width="16" height="16" fill="white" transform="translate(211 49)"/>
</clipPath>
<clipPath id="clip2_1_32657">
<rect width="16" height="16" fill="white" transform="translate(211 73)"/>
</clipPath>
<clipPath id="clip3_1_32657">
<rect width="16" height="16" fill="white" transform="translate(211 121)"/>
</clipPath>
<clipPath id="clip4_1_32657">
<rect width="39.1999" height="39.2408" fill="white" transform="translate(55.7666 64.8613)"/>
</clipPath>
</defs>
</svg>
