<svg width="744" height="388" viewBox="0 0 744 388" fill="none" xmlns="http://www.w3.org/2000/svg">
<g clip-path="url(#clip0_1_32687)">
<rect width="744" height="388" rx="16" fill="#ECEFF4"/>
<rect x="456" y="100.2" width="14.4" height="14.4" rx="3.6" fill="#48BB98"/>
<g clip-path="url(#clip1_1_32687)">
<path d="M499.2 121.8C507.153 121.8 513.6 115.353 513.6 107.4C513.6 99.4471 507.153 93 499.2 93C491.247 93 484.8 99.4471 484.8 107.4C484.8 115.353 491.247 121.8 499.2 121.8Z" fill="#FBC85B"/>
<path d="M495.487 106.05C496.357 106.05 497.062 105.345 497.062 104.475C497.062 103.606 496.357 102.9 495.487 102.9C494.617 102.9 493.912 103.606 493.912 104.475C493.912 105.345 494.617 106.05 495.487 106.05Z" fill="#3E414D"/>
<path d="M502.912 106.05C503.782 106.05 504.487 105.345 504.487 104.475C504.487 103.606 503.782 102.9 502.912 102.9C502.043 102.9 501.337 103.606 501.337 104.475C501.337 105.345 502.043 106.05 502.912 106.05Z" fill="#3E414D"/>
<path d="M505.5 110.943C504.308 113.152 501.946 114.656 499.228 114.656C496.509 114.656 494.148 113.152 492.956 110.943" stroke="#9A695E" stroke-width="1.93549" stroke-linecap="round"/>
</g>
<path d="M534.771 115.611C533.73 115.611 532.795 115.436 531.966 115.084C531.143 114.732 530.493 114.24 530.014 113.607C529.543 112.968 529.294 112.236 529.266 111.414H531.628C531.656 111.857 531.807 112.243 532.082 112.574C532.363 112.904 532.736 113.161 533.2 113.344C533.664 113.52 534.18 113.607 534.75 113.607C535.355 113.607 535.9 113.502 536.385 113.291C536.87 113.08 537.25 112.788 537.524 112.416C537.798 112.036 537.935 111.604 537.935 111.118C537.935 110.619 537.798 110.173 537.524 109.779C537.25 109.385 536.852 109.079 536.332 108.861C535.819 108.636 535.207 108.524 534.497 108.524H533.189V106.625H534.497C535.066 106.625 535.576 106.523 536.026 106.32C536.476 106.116 536.824 105.831 537.07 105.465C537.323 105.1 537.45 104.678 537.45 104.2C537.45 103.736 537.341 103.328 537.123 102.976C536.905 102.625 536.596 102.35 536.195 102.154C535.794 101.957 535.327 101.858 534.792 101.858C534.272 101.858 533.79 101.95 533.347 102.132C532.904 102.315 532.546 102.575 532.271 102.913C532.004 103.25 531.86 103.644 531.839 104.094H529.603C529.624 103.286 529.867 102.565 530.331 101.932C530.802 101.292 531.431 100.796 532.219 100.445C533.006 100.093 533.871 99.9176 534.813 99.9176C535.784 99.9176 536.638 100.104 537.376 100.477C538.121 100.849 538.695 101.355 539.095 101.995C539.496 102.628 539.693 103.321 539.686 104.073C539.693 104.931 539.45 105.662 538.958 106.267C538.473 106.864 537.816 107.265 536.986 107.469V107.575C538.02 107.722 538.825 108.12 539.401 108.766C539.985 109.413 540.277 110.225 540.277 111.203C540.277 112.039 540.038 112.795 539.559 113.47C539.081 114.138 538.424 114.662 537.587 115.042C536.75 115.421 535.812 115.611 534.771 115.611ZM548.018 115.611C547.069 115.611 546.207 115.432 545.434 115.073C544.661 114.708 544.045 114.209 543.588 113.576C543.131 112.936 542.885 112.215 542.85 111.414H545.107C545.149 111.843 545.304 112.229 545.571 112.574C545.838 112.918 546.186 113.189 546.615 113.386C547.044 113.576 547.512 113.671 548.018 113.671C548.63 113.671 549.175 113.534 549.653 113.259C550.138 112.985 550.518 112.609 550.792 112.131C551.066 111.646 551.203 111.104 551.203 110.507C551.203 109.895 551.063 109.346 550.781 108.861C550.5 108.369 550.11 107.986 549.611 107.712C549.111 107.43 548.545 107.286 547.913 107.279C546.626 107.279 545.733 107.729 545.234 108.629H543.04L544.031 100.128H552.68V102.111H545.951L545.445 106.393H545.592C545.916 106.084 546.33 105.834 546.837 105.645C547.35 105.455 547.891 105.36 548.461 105.36C549.403 105.36 550.254 105.578 551.013 106.014C551.78 106.45 552.377 107.054 552.806 107.828C553.242 108.601 553.46 109.473 553.46 110.443C553.46 111.435 553.228 112.324 552.764 113.112C552.3 113.899 551.653 114.514 550.823 114.957C550.001 115.393 549.066 115.611 548.018 115.611ZM559.43 107.385C558.748 107.392 558.164 107.237 557.679 106.921C557.194 106.604 556.828 106.161 556.582 105.592C556.336 105.015 556.216 104.347 556.223 103.588C556.216 102.843 556.339 102.185 556.593 101.616C556.846 101.046 557.215 100.603 557.7 100.287C558.185 99.9703 558.762 99.8121 559.43 99.8121C560.112 99.8121 560.692 99.9703 561.17 100.287C561.655 100.603 562.021 101.046 562.267 101.616C562.513 102.178 562.636 102.836 562.636 103.588C562.636 104.347 562.509 105.015 562.256 105.592C562.003 106.168 561.634 106.615 561.149 106.931C560.671 107.241 560.098 107.392 559.43 107.385ZM559.43 105.908C559.915 105.908 560.277 105.701 560.516 105.286C560.762 104.871 560.885 104.305 560.885 103.588C560.885 102.871 560.766 102.308 560.527 101.9C560.288 101.493 559.922 101.289 559.43 101.289C558.952 101.296 558.586 101.507 558.333 101.921C558.08 102.329 557.953 102.885 557.953 103.588C557.953 104.305 558.076 104.871 558.322 105.286C558.575 105.701 558.945 105.908 559.43 105.908ZM569.07 115.717C568.388 115.717 567.804 115.559 567.319 115.242C566.834 114.926 566.468 114.483 566.222 113.913C565.976 113.344 565.856 112.679 565.863 111.92C565.856 111.168 565.979 110.507 566.232 109.937C566.486 109.361 566.855 108.914 567.34 108.598C567.832 108.281 568.409 108.123 569.07 108.123C569.752 108.123 570.332 108.281 570.81 108.598C571.295 108.914 571.661 109.357 571.907 109.927C572.153 110.496 572.276 111.161 572.276 111.92C572.276 112.672 572.149 113.337 571.896 113.913C571.643 114.483 571.274 114.926 570.789 115.242C570.311 115.559 569.738 115.717 569.07 115.717ZM569.07 114.219C569.548 114.219 569.91 114.015 570.156 113.607C570.402 113.193 570.525 112.63 570.525 111.92C570.525 111.196 570.406 110.63 570.166 110.222C569.927 109.807 569.562 109.6 569.07 109.6C568.591 109.607 568.226 109.821 567.973 110.243C567.72 110.658 567.593 111.217 567.593 111.92C567.593 112.623 567.72 113.182 567.973 113.597C568.233 114.012 568.598 114.219 569.07 114.219ZM568.437 100.128H570.356L559.873 115.4H557.953L568.437 100.128Z" fill="#3E3E3E"/>
<rect x="456" y="143.4" width="14.4" height="14.4" rx="3.6" fill="#FBC85B"/>
<g clip-path="url(#clip2_1_32687)">
<path d="M499.2 164.999C507.153 164.999 513.6 158.552 513.6 150.599C513.6 142.646 507.153 136.199 499.2 136.199C491.247 136.199 484.8 142.646 484.8 150.599C484.8 158.552 491.247 164.999 499.2 164.999Z" fill="#FBC85B"/>
<path d="M504.429 155.799C504.416 156.46 503.836 158.066 501.783 159.06C500.977 159.452 500.094 159.656 499.2 159.656C498.305 159.656 497.422 159.452 496.616 159.06C494.56 158.069 493.983 156.46 493.97 155.799C493.947 155.428 494.136 154.985 494.639 155.127C495.46 155.427 496.748 155.604 497.747 155.696C498.713 155.787 499.686 155.787 500.652 155.696C501.651 155.6 502.939 155.427 503.76 155.127C504.263 154.985 504.453 155.428 504.429 155.799Z" fill="#9A695E"/>
<path d="M500.708 145.253C500.5 146.036 500.599 146.829 501.023 147.752C501.4 148.578 502.021 149.479 502.741 150.522C502.986 150.878 503.263 151.282 503.55 151.709C503.626 151.821 503.74 151.903 503.871 151.939C504.003 151.976 504.144 151.962 504.267 151.9C504.729 151.673 505.162 151.457 505.562 151.277C506.707 150.733 507.695 150.263 508.435 149.738C509.263 149.149 509.746 148.513 509.956 147.73C510.164 147.004 510.089 146.227 509.748 145.554C509.582 145.235 509.351 144.954 509.07 144.73C508.789 144.506 508.464 144.343 508.115 144.253C507.587 144.108 507.025 144.148 506.523 144.367C506.251 144.481 505.998 144.635 505.77 144.822C505.667 144.546 505.525 144.286 505.349 144.051C505.022 143.614 504.558 143.3 504.031 143.16C503.684 143.065 503.321 143.043 502.965 143.097C502.61 143.15 502.269 143.277 501.965 143.47C501.337 143.886 500.889 144.522 500.708 145.253Z" fill="#E46E80"/>
<path d="M496.431 143.479C496.127 143.286 495.786 143.159 495.431 143.106C495.075 143.052 494.712 143.074 494.365 143.169C493.838 143.308 493.374 143.622 493.047 144.059C492.871 144.295 492.729 144.555 492.626 144.831C492.398 144.644 492.145 144.49 491.873 144.376C491.371 144.157 490.809 144.117 490.281 144.261C489.932 144.352 489.607 144.514 489.326 144.739C489.045 144.963 488.814 145.244 488.648 145.563C488.306 146.236 488.232 147.013 488.44 147.739C488.65 148.521 489.133 149.158 489.961 149.747C490.701 150.272 491.689 150.742 492.834 151.286C493.224 151.471 493.667 151.681 494.129 151.909C494.252 151.97 494.393 151.984 494.525 151.948C494.656 151.912 494.77 151.83 494.846 151.717C495.133 151.291 495.41 150.886 495.655 150.53C496.375 149.488 496.988 148.585 497.373 147.761C497.797 146.838 497.896 146.044 497.688 145.262C497.507 144.531 497.059 143.894 496.431 143.479Z" fill="#E46E80"/>
</g>
<path d="M529.35 156.913L534.645 151.576C535.284 150.901 535.773 150.36 536.111 149.952C536.448 149.544 536.705 149.147 536.88 148.76C537.063 148.367 537.155 147.955 537.155 147.526C537.155 147.034 537.032 146.602 536.786 146.229C536.539 145.856 536.202 145.568 535.773 145.364C535.344 145.16 534.863 145.058 534.328 145.058C533.773 145.058 533.284 145.171 532.862 145.396C532.44 145.621 532.113 145.937 531.881 146.345C531.656 146.753 531.544 147.224 531.544 147.758H529.35C529.343 146.844 529.554 146.036 529.983 145.333C530.412 144.629 531.009 144.085 531.776 143.698C532.542 143.311 533.407 143.118 534.37 143.118C535.341 143.118 536.202 143.308 536.954 143.687C537.714 144.06 538.304 144.577 538.726 145.238C539.148 145.899 539.363 146.64 539.37 147.463C539.363 148.047 539.25 148.609 539.032 149.151C538.814 149.685 538.441 150.283 537.914 150.944C537.387 151.597 536.641 152.399 535.678 153.348L532.577 156.491V156.618H539.623V158.601H529.35V156.913ZM547.512 158.812C546.338 158.812 545.329 158.506 544.485 157.894C543.648 157.282 543.008 156.389 542.565 155.215C542.122 154.034 541.901 152.617 541.901 150.965C541.901 149.326 542.122 147.92 542.565 146.746C543.015 145.565 543.662 144.665 544.506 144.046C545.35 143.427 546.352 143.118 547.512 143.118C548.672 143.118 549.674 143.427 550.518 144.046C551.361 144.665 552.005 145.565 552.448 146.746C552.898 147.92 553.123 149.326 553.123 150.965C553.123 152.617 552.901 154.03 552.458 155.204C552.015 156.379 551.372 157.275 550.528 157.894C549.684 158.506 548.679 158.812 547.512 158.812ZM547.512 156.808C548.201 156.808 548.791 156.586 549.284 156.143C549.776 155.693 550.152 155.032 550.412 154.16C550.672 153.288 550.802 152.223 550.802 150.965C550.802 149.713 550.669 148.648 550.402 147.769C550.141 146.883 549.765 146.215 549.273 145.765C548.781 145.308 548.194 145.079 547.512 145.079C546.83 145.079 546.243 145.308 545.75 145.765C545.258 146.215 544.879 146.883 544.611 147.769C544.351 148.648 544.221 149.713 544.221 150.965C544.221 152.223 544.351 153.288 544.611 154.16C544.872 155.032 545.248 155.693 545.74 156.143C546.232 156.586 546.823 156.808 547.512 156.808ZM559.029 150.585C558.347 150.592 557.763 150.437 557.278 150.121C556.793 149.804 556.427 149.362 556.181 148.792C555.935 148.215 555.816 147.547 555.823 146.788C555.816 146.043 555.939 145.385 556.192 144.816C556.445 144.246 556.814 143.803 557.299 143.487C557.784 143.17 558.361 143.012 559.029 143.012C559.711 143.012 560.291 143.17 560.769 143.487C561.254 143.803 561.62 144.246 561.866 144.816C562.112 145.378 562.235 146.036 562.235 146.788C562.235 147.547 562.109 148.215 561.856 148.792C561.602 149.369 561.233 149.815 560.748 150.131C560.27 150.441 559.697 150.592 559.029 150.585ZM559.029 149.108C559.514 149.108 559.876 148.901 560.115 148.486C560.361 148.071 560.484 147.505 560.484 146.788C560.484 146.071 560.365 145.508 560.126 145.101C559.887 144.693 559.521 144.489 559.029 144.489C558.551 144.496 558.185 144.707 557.932 145.122C557.679 145.529 557.552 146.085 557.552 146.788C557.552 147.505 557.675 148.071 557.922 148.486C558.175 148.901 558.544 149.108 559.029 149.108ZM568.669 158.917C567.987 158.917 567.403 158.759 566.918 158.442C566.433 158.126 566.067 157.683 565.821 157.113C565.575 156.544 565.456 155.879 565.463 155.12C565.456 154.368 565.579 153.707 565.832 153.137C566.085 152.561 566.454 152.114 566.939 151.798C567.431 151.481 568.008 151.323 568.669 151.323C569.351 151.323 569.931 151.481 570.409 151.798C570.894 152.114 571.26 152.557 571.506 153.127C571.752 153.696 571.875 154.361 571.875 155.12C571.875 155.872 571.748 156.537 571.495 157.113C571.242 157.683 570.873 158.126 570.388 158.442C569.91 158.759 569.337 158.917 568.669 158.917ZM568.669 157.419C569.147 157.419 569.509 157.215 569.755 156.808C570.001 156.393 570.124 155.83 570.124 155.12C570.124 154.396 570.005 153.83 569.766 153.422C569.527 153.007 569.161 152.8 568.669 152.8C568.191 152.807 567.825 153.021 567.572 153.443C567.319 153.858 567.192 154.417 567.192 155.12C567.192 155.823 567.319 156.382 567.572 156.797C567.832 157.212 568.198 157.419 568.669 157.419ZM568.036 143.329H569.956L559.472 158.601H557.552L568.036 143.329Z" fill="#C6C6C6"/>
<rect x="456" y="186.601" width="14.4" height="14.4" rx="3.6" fill="#B7C2D2"/>
<path d="M499.2 208.2C507.153 208.2 513.6 201.753 513.6 193.8C513.6 185.848 507.153 179.4 499.2 179.4C491.247 179.4 484.8 185.848 484.8 193.8C484.8 201.753 491.247 208.2 499.2 208.2Z" fill="#FBC85B"/>
<path d="M497.296 204.205L497.132 203.392L499.218 202.968C499.374 202.933 499.521 202.867 499.649 202.773C499.778 202.679 499.886 202.559 499.966 202.421C500.131 202.153 500.189 201.832 500.13 201.523C500.129 201.51 500.129 201.496 500.13 201.483C500.056 201.182 499.869 200.92 499.609 200.751C499.48 200.664 499.335 200.604 499.184 200.574C499.032 200.543 498.875 200.543 498.723 200.573L492.861 201.766C492.815 201.777 492.768 201.778 492.722 201.769C492.676 201.76 492.633 201.741 492.594 201.714C492.52 201.661 492.468 201.582 492.448 201.493C492.436 201.432 492.44 201.368 492.461 201.309L492.963 199.897V199.884C493.025 199.654 493.026 199.412 492.968 199.181C492.91 198.95 492.794 198.738 492.631 198.564C492.468 198.391 492.264 198.262 492.037 198.189C491.81 198.117 491.569 198.104 491.336 198.151C491.144 198.189 490.962 198.268 490.802 198.381C490.643 198.495 490.509 198.64 490.409 198.809L489.043 201.129C488.325 202.35 488.085 203.792 488.368 205.179C488.626 206.449 489.378 207.565 490.458 208.281C491.538 208.997 492.858 209.255 494.128 208.998C495.184 208.783 496.112 208.158 496.707 207.26C497.303 206.362 497.517 205.265 497.303 204.208L497.296 204.205Z" fill="#E8AA26"/>
<path d="M504.621 187.05C504.621 187.05 503.64 187.231 502.489 187.93C501.338 188.63 500.606 189.279 500.606 189.279" stroke="#3E414D" stroke-width="1.6129" stroke-linecap="round" stroke-linejoin="round"/>
<path d="M492.843 190.657C492.843 190.657 493.797 190.44 495.143 190.379C495.617 190.358 496.042 190.383 496.393 190.424" stroke="#3E414D" stroke-width="1.6129" stroke-linecap="round" stroke-linejoin="round"/>
<path d="M495.037 194.701C495.907 194.701 496.612 193.996 496.612 193.126C496.612 192.256 495.907 191.551 495.037 191.551C494.168 191.551 493.462 192.256 493.462 193.126C493.462 193.996 494.168 194.701 495.037 194.701Z" fill="#3E414D"/>
<rect x="502.181" y="190.201" width="2.41875" height="4.21876" rx="1.20938" fill="#494D59"/>
<path d="M502.722 199.209C501.532 198.403 500.044 198.027 498.508 198.264C498.196 198.312 497.893 198.383 497.601 198.476" stroke="#9A695E" stroke-width="1.93549" stroke-linecap="round"/>
<path d="M535.151 201.801H532.809V188.849H532.725L529.076 191.233V189.018L532.873 186.529H535.151V201.801ZM544.242 186.318C545.269 186.318 546.214 186.55 547.079 187.014C547.951 187.471 548.661 188.245 549.21 189.334C549.765 190.417 550.043 191.845 550.043 193.616C550.043 195.381 549.8 196.893 549.315 198.152C548.837 199.41 548.148 200.37 547.248 201.031C546.355 201.685 545.297 202.012 544.073 202.012C543.152 202.012 542.323 201.836 541.584 201.484C540.853 201.126 540.255 200.63 539.791 199.997C539.334 199.357 539.046 198.623 538.927 197.793H541.226C541.388 198.461 541.714 198.995 542.207 199.396C542.706 199.79 543.328 199.987 544.073 199.987C544.854 199.987 545.522 199.769 546.077 199.333C546.64 198.89 547.069 198.254 547.364 197.424C547.666 196.587 547.821 195.592 547.828 194.439H547.638C547.223 195.086 546.672 195.592 545.982 195.958C545.3 196.323 544.552 196.506 543.736 196.506C542.829 196.506 541.999 196.292 541.247 195.863C540.495 195.434 539.897 194.836 539.454 194.07C539.018 193.304 538.8 192.442 538.8 191.486C538.8 190.523 539.025 189.647 539.475 188.86C539.932 188.072 540.572 187.454 541.395 187.003C542.224 186.546 543.173 186.318 544.242 186.318ZM544.284 188.259C543.68 188.259 543.131 188.403 542.639 188.691C542.147 188.972 541.76 189.359 541.479 189.851C541.198 190.336 541.057 190.867 541.057 191.444C541.057 192.027 541.194 192.562 541.468 193.047C541.743 193.532 542.122 193.915 542.607 194.196C543.093 194.471 543.638 194.608 544.242 194.608C544.84 194.608 545.388 194.46 545.888 194.165C546.387 193.87 546.78 193.479 547.069 192.994C547.364 192.502 547.512 191.978 547.512 191.423C547.512 190.874 547.371 190.357 547.09 189.872C546.816 189.387 546.429 188.997 545.93 188.702C545.438 188.406 544.889 188.259 544.284 188.259ZM555.991 193.785C555.309 193.792 554.726 193.637 554.241 193.321C553.755 193.005 553.39 192.562 553.144 191.992C552.898 191.416 552.778 190.748 552.785 189.988C552.778 189.243 552.901 188.586 553.154 188.016C553.407 187.446 553.777 187.003 554.262 186.687C554.747 186.371 555.323 186.212 555.991 186.212C556.673 186.212 557.254 186.371 557.732 186.687C558.217 187.003 558.582 187.446 558.829 188.016C559.075 188.579 559.198 189.236 559.198 189.988C559.198 190.748 559.071 191.416 558.818 191.992C558.565 192.569 558.196 193.015 557.711 193.332C557.232 193.641 556.659 193.792 555.991 193.785ZM555.991 192.309C556.477 192.309 556.839 192.101 557.078 191.686C557.324 191.271 557.447 190.705 557.447 189.988C557.447 189.271 557.327 188.709 557.088 188.301C556.849 187.893 556.484 187.689 555.991 187.689C555.513 187.696 555.148 187.907 554.895 188.322C554.641 188.73 554.515 189.285 554.515 189.988C554.515 190.705 554.638 191.271 554.884 191.686C555.137 192.101 555.506 192.309 555.991 192.309ZM565.631 202.117C564.949 202.117 564.366 201.959 563.881 201.643C563.395 201.326 563.03 200.883 562.784 200.314C562.538 199.744 562.418 199.08 562.425 198.32C562.418 197.568 562.541 196.907 562.794 196.337C563.047 195.761 563.416 195.314 563.902 194.998C564.394 194.682 564.97 194.523 565.631 194.523C566.313 194.523 566.893 194.682 567.372 194.998C567.857 195.314 568.222 195.757 568.468 196.327C568.714 196.896 568.838 197.561 568.838 198.32C568.838 199.073 568.711 199.737 568.458 200.314C568.205 200.883 567.836 201.326 567.35 201.643C566.872 201.959 566.299 202.117 565.631 202.117ZM565.631 200.62C566.109 200.62 566.472 200.416 566.718 200.008C566.964 199.593 567.087 199.03 567.087 198.32C567.087 197.596 566.967 197.03 566.728 196.622C566.489 196.207 566.123 196 565.631 196C565.153 196.007 564.788 196.221 564.534 196.643C564.281 197.058 564.155 197.617 564.155 198.32C564.155 199.023 564.281 199.582 564.534 199.997C564.795 200.412 565.16 200.62 565.631 200.62ZM564.998 186.529H566.918L556.434 201.801H554.515L564.998 186.529Z" fill="#C6C6C6"/>
<rect x="456" y="229.801" width="14.4" height="14.4" rx="3.6" fill="#D6DCE4"/>
<g clip-path="url(#clip3_1_32687)">
<path d="M499.2 251.401C507.153 251.401 513.6 244.954 513.6 237.001C513.6 229.048 507.153 222.601 499.2 222.601C491.247 222.601 484.8 229.048 484.8 237.001C484.8 244.954 491.247 251.401 499.2 251.401Z" fill="#FBC85B"/>
<path d="M496.397 243.373C496.397 245.035 495.146 246.382 493.599 246.382C492.053 246.382 490.802 245.035 490.802 243.373C490.802 242.057 492.545 239.672 493.27 238.726C493.307 238.676 493.355 238.635 493.41 238.607C493.466 238.579 493.527 238.564 493.589 238.564C493.651 238.564 493.712 238.579 493.767 238.607C493.823 238.635 493.871 238.676 493.907 238.726C494.654 239.672 496.397 242.062 496.397 243.373Z" fill="#5195EE"/>
<path d="M495.487 235.65C496.357 235.65 497.062 234.945 497.062 234.075C497.062 233.205 496.357 232.5 495.487 232.5C494.617 232.5 493.912 233.205 493.912 234.075C493.912 234.945 494.617 235.65 495.487 235.65Z" fill="#3E414D"/>
<path d="M502.912 235.65C503.782 235.65 504.487 234.945 504.487 234.075C504.487 233.205 503.782 232.5 502.912 232.5C502.043 232.5 501.337 233.205 501.337 234.075C501.337 234.945 502.043 235.65 502.912 235.65Z" fill="#3E414D"/>
<path d="M503.25 243.639C502.196 242.662 500.782 242.064 499.228 242.064C498.912 242.064 498.602 242.088 498.3 242.136" stroke="#9A695E" stroke-width="2.58065" stroke-linecap="round"/>
</g>
<path d="M535.151 245.001H532.809V232.049H532.725L529.076 234.433V232.218L532.873 229.729H535.151V245.001ZM546.373 231.838V231.712H538.505V229.729H548.777V231.796L541.985 245.001H539.559L546.373 231.838ZM554.62 236.985C553.938 236.992 553.355 236.838 552.87 236.521C552.384 236.205 552.019 235.762 551.773 235.192C551.527 234.616 551.407 233.948 551.414 233.188C551.407 232.443 551.53 231.786 551.783 231.216C552.036 230.647 552.405 230.204 552.891 229.887C553.376 229.571 553.952 229.413 554.62 229.413C555.302 229.413 555.882 229.571 556.361 229.887C556.846 230.204 557.211 230.647 557.457 231.216C557.704 231.779 557.827 232.436 557.827 233.188C557.827 233.948 557.7 234.616 557.447 235.192C557.194 235.769 556.825 236.215 556.339 236.532C555.861 236.841 555.288 236.992 554.62 236.985ZM554.62 235.509C555.105 235.509 555.468 235.301 555.707 234.887C555.953 234.472 556.076 233.906 556.076 233.188C556.076 232.471 555.956 231.909 555.717 231.501C555.478 231.093 555.113 230.889 554.62 230.889C554.142 230.896 553.777 231.107 553.523 231.522C553.27 231.93 553.144 232.485 553.144 233.188C553.144 233.906 553.267 234.472 553.513 234.887C553.766 235.301 554.135 235.509 554.62 235.509ZM564.26 245.317C563.578 245.317 562.995 245.159 562.509 244.843C562.024 244.526 561.659 244.083 561.413 243.514C561.166 242.944 561.047 242.28 561.054 241.521C561.047 240.768 561.17 240.107 561.423 239.538C561.676 238.961 562.045 238.515 562.531 238.198C563.023 237.882 563.599 237.724 564.26 237.724C564.942 237.724 565.522 237.882 566 238.198C566.486 238.515 566.851 238.958 567.097 239.527C567.343 240.097 567.466 240.761 567.466 241.521C567.466 242.273 567.34 242.937 567.087 243.514C566.834 244.083 566.464 244.526 565.979 244.843C565.501 245.159 564.928 245.317 564.26 245.317ZM564.26 243.82C564.738 243.82 565.1 243.616 565.347 243.208C565.593 242.793 565.716 242.231 565.716 241.521C565.716 240.796 565.596 240.23 565.357 239.822C565.118 239.408 564.752 239.2 564.26 239.2C563.782 239.207 563.416 239.422 563.163 239.844C562.91 240.258 562.784 240.817 562.784 241.521C562.784 242.224 562.91 242.783 563.163 243.197C563.423 243.612 563.789 243.82 564.26 243.82ZM563.627 229.729H565.547L555.063 245.001H553.144L563.627 229.729Z" fill="#C6C6C6"/>
<rect x="456" y="273" width="14.4" height="14.4" rx="3.6" fill="#DDE2EB"/>
<path d="M499.2 294.6C507.153 294.6 513.6 288.153 513.6 280.2C513.6 272.247 507.153 265.8 499.2 265.8C491.247 265.8 484.8 272.247 484.8 280.2C484.8 288.153 491.247 294.6 499.2 294.6Z" fill="#E46E80"/>
<path d="M508.955 282.986H489.445C488.932 282.986 488.516 283.402 488.516 283.915V290.419C488.516 290.932 488.932 291.348 489.445 291.348H508.955C509.468 291.348 509.884 290.932 509.884 290.419V283.915C509.884 283.402 509.468 282.986 508.955 282.986Z" fill="#494D59"/>
<path d="M507.057 288.329L507.425 287.96C507.607 287.779 507.607 287.485 507.425 287.303C507.244 287.122 506.95 287.122 506.768 287.303L506.4 287.672L506.074 287.346C506.411 287.092 506.632 286.692 506.632 286.238C506.632 285.47 506.007 284.845 505.239 284.845C504.47 284.845 503.845 285.47 503.845 286.238C503.845 286.387 503.875 286.528 503.918 286.662C503.549 286.999 503.344 287.494 503.386 288.005C503.457 288.838 504.199 289.49 505.076 289.49C505.561 289.49 506.032 289.301 506.392 288.978L506.768 289.354C506.859 289.444 506.978 289.49 507.097 289.49C507.216 289.49 507.334 289.444 507.425 289.354C507.607 289.172 507.607 288.878 507.425 288.697L507.057 288.329ZM505.239 285.774C505.495 285.774 505.703 285.982 505.703 286.238C505.703 286.495 505.495 286.703 505.239 286.703C504.982 286.703 504.774 286.495 504.774 286.238C504.774 285.982 504.982 285.774 505.239 285.774ZM505.076 288.561C504.685 288.561 504.342 288.276 504.312 287.927C504.296 287.731 504.361 287.547 504.484 287.407C504.645 287.511 504.828 287.58 505.025 287.61L505.736 288.321C505.55 288.472 505.317 288.561 505.076 288.561Z" fill="#F9FAFC"/>
<path d="M494.833 284.937C494.628 284.784 494.337 284.825 494.183 285.03L491.396 288.747C491.242 288.952 491.283 289.243 491.489 289.397C491.572 289.459 491.67 289.49 491.767 289.49C491.908 289.49 492.048 289.426 492.139 289.304L494.926 285.587C495.08 285.382 495.038 285.091 494.833 284.937Z" fill="#F9FAFC"/>
<path d="M496.878 288.096C497.134 288.096 497.342 287.889 497.342 287.632V285.309C497.342 285.052 497.134 284.845 496.878 284.845C496.621 284.845 496.413 285.053 496.413 285.309V287.632C496.413 287.889 496.621 288.096 496.878 288.096Z" fill="#F9FAFC"/>
<path d="M496.878 288.561C496.621 288.561 496.413 288.768 496.413 289.025C496.413 289.282 496.621 289.49 496.878 289.49H496.882C497.139 289.49 497.344 289.282 497.344 289.025C497.344 288.768 497.134 288.561 496.878 288.561Z" fill="#F9FAFC"/>
<path d="M502.452 285.773H502.35L502.438 285.421C502.5 285.173 502.349 284.921 502.1 284.858C501.851 284.794 501.599 284.947 501.537 285.196L501.392 285.773H500.492L500.58 285.421C500.642 285.173 500.491 284.921 500.242 284.858C499.992 284.794 499.74 284.947 499.679 285.196L499.534 285.773H499.2C498.943 285.773 498.736 285.981 498.736 286.238C498.736 286.495 498.943 286.702 499.2 286.702H499.302L499.07 287.632H498.736C498.479 287.632 498.271 287.839 498.271 288.096C498.271 288.353 498.479 288.561 498.736 288.561H498.838L498.75 288.913C498.687 289.161 498.839 289.413 499.088 289.475C499.125 289.485 499.163 289.49 499.2 289.49C499.409 289.49 499.598 289.349 499.65 289.138L499.795 288.561H500.696L500.608 288.913C500.545 289.161 500.697 289.413 500.946 289.475C500.983 289.485 501.021 289.49 501.059 289.49C501.267 289.49 501.456 289.349 501.509 289.138L501.653 288.561H501.987C502.244 288.561 502.452 288.353 502.452 288.096C502.452 287.839 502.244 287.632 501.987 287.632H501.885L502.117 286.702H502.452C502.708 286.702 502.916 286.495 502.916 286.238C502.916 285.981 502.708 285.773 502.452 285.773ZM500.928 287.632H500.027L500.259 286.702H501.16L500.928 287.632Z" fill="#F9FAFC"/>
<path d="M492.696 285.774C492.696 285.262 492.28 284.845 491.767 284.845C491.255 284.845 490.838 285.262 490.838 285.774C490.838 286.286 491.255 286.703 491.767 286.703C492.28 286.703 492.696 286.286 492.696 285.774Z" fill="#F9FAFC"/>
<path d="M494.555 287.632C494.043 287.632 493.626 288.049 493.626 288.561C493.626 289.073 494.043 289.49 494.555 289.49C495.067 289.49 495.484 289.073 495.484 288.561C495.484 288.049 495.067 287.632 494.555 287.632Z" fill="#F9FAFC"/>
<path d="M506.257 273.644C506.099 273.414 505.836 273.406 505.554 273.514C505.554 273.514 504.282 274.096 503.501 274.295C502.72 274.493 501.448 274.676 501.448 274.676C501.193 274.726 500.903 274.946 500.92 275.225C500.937 275.504 501.177 275.716 501.456 275.7L501.508 275.696C501.541 275.694 501.587 275.69 501.646 275.684C501.764 275.673 501.933 275.655 502.145 275.627C502.566 275.57 503.156 275.473 503.831 275.308C504.527 275.138 505.095 274.903 505.49 274.709C505.687 274.611 505.843 274.524 505.951 274.46C506.005 274.428 506.047 274.401 506.077 274.382L506.128 274.348C506.358 274.19 506.416 273.874 506.257 273.644Z" fill="#3E414D"/>
<path d="M492.13 273.644C492.288 273.414 492.552 273.406 492.833 273.514C492.833 273.514 494.105 274.096 494.886 274.295C495.667 274.493 496.939 274.676 496.939 274.676C497.194 274.726 497.484 274.946 497.467 275.225C497.45 275.504 497.21 275.716 496.931 275.7L496.879 275.696C496.847 275.694 496.8 275.69 496.741 275.684C496.623 275.673 496.454 275.655 496.243 275.627C495.821 275.57 495.232 275.473 494.557 275.308C493.86 275.138 493.293 274.903 492.898 274.709C492.7 274.611 492.544 274.524 492.437 274.46C492.383 274.428 492.34 274.401 492.311 274.382L492.26 274.348C492.029 274.19 491.971 273.874 492.13 273.644Z" fill="#3E414D"/>
<path d="M495.488 280.2C496.357 280.2 497.063 279.495 497.063 278.625C497.063 277.755 496.357 277.05 495.488 277.05C494.618 277.05 493.913 277.755 493.913 278.625C493.913 279.495 494.618 280.2 495.488 280.2Z" fill="#3E414D"/>
<path d="M502.912 280.2C503.782 280.2 504.487 279.495 504.487 278.625C504.487 277.755 503.782 277.05 502.912 277.05C502.043 277.05 501.337 277.755 501.337 278.625C501.337 279.495 502.043 280.2 502.912 280.2Z" fill="#3E414D"/>
<path d="M534.56 272.717C535.587 272.717 536.532 272.949 537.397 273.413C538.269 273.87 538.979 274.644 539.528 275.734C540.083 276.817 540.361 278.244 540.361 280.016C540.361 281.781 540.118 283.292 539.633 284.551C539.155 285.81 538.466 286.769 537.566 287.43C536.673 288.084 535.615 288.411 534.391 288.411C533.47 288.411 532.641 288.235 531.902 287.884C531.171 287.525 530.573 287.029 530.109 286.397C529.652 285.757 529.364 285.022 529.245 284.192H531.544C531.705 284.86 532.032 285.395 532.525 285.796C533.024 286.189 533.646 286.386 534.391 286.386C535.172 286.386 535.84 286.168 536.395 285.732C536.958 285.289 537.387 284.653 537.682 283.823C537.984 282.987 538.139 281.992 538.146 280.838H537.956C537.541 281.485 536.989 281.992 536.3 282.357C535.618 282.723 534.87 282.906 534.054 282.906C533.147 282.906 532.317 282.691 531.565 282.262C530.813 281.833 530.215 281.236 529.772 280.469C529.336 279.703 529.118 278.842 529.118 277.885C529.118 276.922 529.343 276.047 529.793 275.259C530.25 274.472 530.89 273.853 531.713 273.403C532.542 272.946 533.491 272.717 534.56 272.717ZM534.602 274.658C533.998 274.658 533.449 274.802 532.957 275.09C532.465 275.372 532.078 275.758 531.797 276.251C531.516 276.736 531.375 277.267 531.375 277.843C531.375 278.427 531.512 278.961 531.786 279.446C532.061 279.931 532.44 280.315 532.925 280.596C533.411 280.87 533.955 281.007 534.56 281.007C535.158 281.007 535.706 280.86 536.205 280.564C536.705 280.269 537.098 279.879 537.387 279.394C537.682 278.901 537.83 278.378 537.83 277.822C537.83 277.274 537.689 276.757 537.408 276.272C537.134 275.787 536.747 275.396 536.248 275.101C535.755 274.806 535.207 274.658 534.602 274.658ZM546.309 280.185C545.627 280.192 545.044 280.037 544.559 279.72C544.073 279.404 543.708 278.961 543.462 278.392C543.216 277.815 543.096 277.147 543.103 276.388C543.096 275.642 543.219 274.985 543.472 274.415C543.725 273.846 544.095 273.403 544.58 273.087C545.065 272.77 545.641 272.612 546.309 272.612C546.991 272.612 547.572 272.77 548.05 273.087C548.535 273.403 548.9 273.846 549.147 274.415C549.393 274.978 549.516 275.635 549.516 276.388C549.516 277.147 549.389 277.815 549.136 278.392C548.883 278.968 548.514 279.415 548.029 279.731C547.55 280.04 546.977 280.192 546.309 280.185ZM546.309 278.708C546.795 278.708 547.157 278.501 547.396 278.086C547.642 277.671 547.765 277.105 547.765 276.388C547.765 275.67 547.645 275.108 547.406 274.7C547.167 274.292 546.802 274.088 546.309 274.088C545.831 274.095 545.466 274.306 545.213 274.721C544.959 275.129 544.833 275.685 544.833 276.388C544.833 277.105 544.956 277.671 545.202 278.086C545.455 278.501 545.824 278.708 546.309 278.708ZM555.949 288.517C555.267 288.517 554.684 288.358 554.198 288.042C553.713 287.726 553.348 287.283 553.102 286.713C552.855 286.144 552.736 285.479 552.743 284.72C552.736 283.967 552.859 283.306 553.112 282.737C553.365 282.16 553.734 281.714 554.22 281.397C554.712 281.081 555.288 280.923 555.949 280.923C556.631 280.923 557.211 281.081 557.689 281.397C558.175 281.714 558.54 282.157 558.786 282.726C559.032 283.296 559.156 283.96 559.156 284.72C559.156 285.472 559.029 286.137 558.776 286.713C558.523 287.283 558.154 287.726 557.668 288.042C557.19 288.358 556.617 288.517 555.949 288.517ZM555.949 287.019C556.427 287.019 556.789 286.815 557.036 286.407C557.282 285.992 557.405 285.43 557.405 284.72C557.405 283.996 557.285 283.429 557.046 283.022C556.807 282.607 556.441 282.399 555.949 282.399C555.471 282.406 555.105 282.621 554.852 283.043C554.599 283.458 554.473 284.017 554.473 284.72C554.473 285.423 554.599 285.982 554.852 286.397C555.113 286.812 555.478 287.019 555.949 287.019ZM555.316 272.928H557.236L546.752 288.2H544.833L555.316 272.928Z" fill="#C6C6C6"/>
<path fill-rule="evenodd" clip-rule="evenodd" d="M166.918 27.4425C166.875 20.941 161.564 15.5585 155.079 16.0309C132.233 17.6952 109.921 23.7588 89.3701 33.888C83.5421 36.7606 81.6722 44.0667 84.9185 49.6952C88.171 55.3345 95.4086 57.2928 101.275 54.4712C117.837 46.506 136.038 41.4137 155.234 39.8396C161.715 39.3082 166.96 33.9446 166.918 27.4425Z" fill="#DDE2EB"/>
<path d="M90.8339 36.8578C111.002 26.9171 132.899 20.9664 155.32 19.333L154.839 12.7287C131.567 14.424 108.839 20.6005 87.9063 30.9182L90.8339 36.8578ZM102.71 57.4549C118.913 49.6621 136.721 44.6798 155.505 43.1395L154.964 36.5398C135.355 38.1476 116.76 43.3498 99.8403 51.4874L102.71 57.4549ZM155.505 43.1395C163.589 42.4766 170.283 35.7751 170.229 27.421L163.607 27.4641C163.637 32.1141 159.84 36.1399 154.964 36.5398L155.505 43.1395ZM82.0504 51.3494C86.2328 58.6011 95.4012 60.9703 102.71 57.4549L99.8403 51.4874C95.416 53.6152 90.1091 52.0679 87.7865 48.041L82.0504 51.3494ZM155.32 19.333C159.709 19.0133 163.576 22.6866 163.607 27.4641L170.229 27.421C170.175 19.1954 163.418 12.1037 154.839 12.7287L155.32 19.333ZM87.9063 30.9182C80.2026 34.7153 77.9392 44.2213 82.0504 51.3494L87.7865 48.041C85.4052 43.9121 86.8815 38.8059 90.8339 36.8578L87.9063 30.9182Z" fill="#ECEFF4"/>
<path fill-rule="evenodd" clip-rule="evenodd" d="M80.9193 66.3314C86.2743 62.659 88.179 55.4223 84.9349 49.7976C81.6845 44.162 74.4056 42.1154 69.0006 45.7363C52.8859 56.5317 38.619 69.9059 26.7828 85.3469C14.9417 100.794 5.7263 118.059 -0.52 136.443C-2.61084 142.597 1.22242 149.084 7.49981 150.768C13.7845 152.453 20.2722 148.72 22.4285 142.581C33.3978 111.35 54.1126 84.7149 80.9193 66.3314Z" fill="#D6DCE4"/>
<path d="M26.7828 85.3469L24.1551 83.3327L26.7828 85.3469ZM29.4106 87.3612C41.0268 72.2071 55.0285 59.0817 70.8434 48.487L67.1578 42.9855C50.7434 53.9818 36.2112 67.6047 24.1551 83.3327L29.4106 87.3612ZM2.61494 137.508C8.74525 119.465 17.7895 102.522 29.4106 87.3612L24.1551 83.3327C12.0939 99.0672 2.70734 116.652 -3.65493 135.378L2.61494 137.508ZM25.5524 143.678C36.285 113.121 56.5561 87.0539 82.7919 69.0619L79.0468 63.6008C51.6691 82.3759 30.5106 109.579 19.3047 141.483L25.5524 143.678ZM6.64206 153.966C14.728 156.134 22.8675 151.322 25.5524 143.678L19.3047 141.483C17.6768 146.118 12.8411 148.772 8.35756 147.57L6.64206 153.966ZM-3.65493 135.378C-6.41705 143.507 -1.31261 151.832 6.64206 153.966L8.35756 147.57C3.75746 146.336 1.19538 141.686 2.61494 137.508L-3.65493 135.378ZM82.0668 51.4518C84.3854 55.4719 83.0807 60.8344 79.0468 63.6008L82.7919 69.0619C89.4679 64.4836 91.9726 55.3728 87.803 48.1434L82.0668 51.4518ZM87.803 48.1434C83.6889 41.0104 74.3061 38.1968 67.1578 42.9855L70.8434 48.487C74.5051 46.034 79.6801 47.3137 82.0668 51.4518L87.803 48.1434Z" fill="#ECEFF4"/>
<path fill-rule="evenodd" clip-rule="evenodd" d="M50.5345 311.401C55.1261 306.805 55.1588 299.314 50.928 294.384C27.7434 267.364 13.7329 232.228 13.7329 193.815C13.7329 184.074 14.6339 174.544 16.3571 165.303C17.5479 158.917 13.7929 152.453 7.51831 150.77C1.23638 149.086 -5.33915 152.789 -6.6026 159.169C-11.8938 185.888 -11.0045 213.521 -3.9348 239.933C3.13396 266.341 16.1638 290.714 34.0881 311.203C38.3721 316.1 45.9362 316.004 50.5345 311.401Z" fill="#B7C2D2"/>
<path d="M-3.9348 239.933L-0.736455 239.076L-3.9348 239.933ZM16.3571 165.303L13.1022 164.696L16.3571 165.303ZM34.0881 311.203L36.5801 309.023L34.0881 311.203ZM50.928 294.384L48.4153 296.54L50.928 294.384ZM53.4407 292.228C30.7519 265.786 17.0439 231.408 17.0439 193.815H10.422C10.422 233.048 24.7349 268.943 48.4153 296.54L53.4407 292.228ZM17.0439 193.815C17.0439 184.279 17.9259 174.952 19.6119 165.91L13.1022 164.696C11.3419 174.136 10.422 183.87 10.422 193.815H17.0439ZM-0.736455 239.076C-7.67492 213.155 -8.54769 186.035 -3.35473 159.812L-9.85047 158.525C-15.2399 185.74 -14.3341 213.887 -7.13314 240.789L-0.736455 239.076ZM36.5801 309.023C18.9889 288.915 6.20107 264.994 -0.736455 239.076L-7.13314 240.789C0.0668526 267.687 13.3387 292.513 31.5962 313.383L36.5801 309.023ZM8.37607 147.573C0.41827 145.438 -8.18086 150.094 -9.85047 158.525L-3.35473 159.812C-2.49743 155.483 2.05448 152.733 6.66056 153.968L8.37607 147.573ZM19.6119 165.91C21.0953 157.955 16.4463 149.737 8.37607 147.573L6.66056 153.968C11.1395 155.17 14.0006 159.878 13.1022 164.696L19.6119 165.91ZM31.5962 313.383C37.2626 319.86 47.0577 319.567 52.8769 313.741L48.1921 309.061C44.8146 312.442 39.4815 312.34 36.5801 309.023L31.5962 313.383ZM48.4153 296.54C51.6005 300.252 51.4749 305.775 48.1921 309.061L52.8769 313.741C58.7774 307.835 58.717 298.377 53.4407 292.228L48.4153 296.54Z" fill="#ECEFF4"/>
<path fill-rule="evenodd" clip-rule="evenodd" d="M251.081 337.866C247.828 332.226 240.591 330.269 234.724 333.09C214.531 342.802 191.9 348.243 168 348.243C129.635 348.243 94.542 334.225 67.5525 311.026C62.6184 306.784 55.1146 306.817 50.5162 311.42C45.9246 316.016 45.8295 323.568 50.7145 327.851C77.1029 350.99 109.812 365.868 144.765 370.475C179.718 375.081 215.157 369.185 246.628 353.672C252.456 350.8 254.327 343.494 251.081 337.866Z" fill="#FBC85B"/>
<path d="M144.765 370.475L144.333 373.757L144.765 370.475ZM234.724 333.09L233.289 330.107L234.724 333.09ZM233.289 330.107C213.534 339.608 191.393 344.932 168 344.932V351.554C192.408 351.554 215.528 345.997 236.159 336.074L233.289 330.107ZM168 344.932C130.457 344.932 96.1227 331.217 69.7107 308.515L65.3943 313.536C92.9612 337.232 128.814 351.554 168 351.554V344.932ZM145.198 367.192C110.895 362.672 78.7951 348.07 52.8974 325.362L48.5316 330.34C75.4108 353.91 108.728 369.065 144.333 373.757L145.198 367.192ZM245.164 350.703C214.279 365.926 179.499 371.713 145.198 367.192L144.333 373.757C179.936 378.45 216.035 372.443 248.092 356.642L245.164 350.703ZM48.1738 309.08C42.3628 314.897 42.0707 324.675 48.5316 330.34L52.8974 325.362C49.5884 322.46 49.4864 317.136 52.8586 313.76L48.1738 309.08ZM69.7107 308.515C63.5576 303.226 54.0831 303.165 48.1738 309.08L52.8586 313.76C56.1461 310.469 61.6792 310.343 65.3943 313.536L69.7107 308.515ZM248.092 356.642C255.795 352.845 258.06 343.34 253.949 336.212L248.212 339.52C250.594 343.648 249.117 348.754 245.164 350.703L248.092 356.642ZM236.159 336.074C240.584 333.946 245.89 335.493 248.212 339.52L253.949 336.212C249.766 328.96 240.598 326.591 233.289 330.107L236.159 336.074Z" fill="#ECEFF4"/>
<path fill-rule="evenodd" clip-rule="evenodd" d="M332.451 262.004C318.962 294.602 296.147 322.372 266.999 341.898C261.594 345.519 254.315 343.473 251.065 337.837C247.821 332.212 249.726 324.975 255.081 321.303C295.65 293.482 322.266 246.76 322.266 193.816C322.266 112.495 259.471 45.8549 179.772 39.8345C173.289 39.3448 168 34.0147 168 27.5131C168 21.0114 173.277 15.5939 179.764 16.024C214.762 18.3439 248.394 30.9748 276.359 52.4553C307.446 76.3334 329.793 109.812 339.935 147.7C350.076 185.588 347.446 225.766 332.451 262.004Z" fill="#48BB98"/>
<path d="M332.451 262.004L329.391 260.739L332.451 262.004ZM276.359 52.4553L274.343 55.0811V55.0811L276.359 52.4553ZM339.935 147.7L336.736 148.556L339.935 147.7ZM179.772 39.8345L179.523 43.1361L179.772 39.8345ZM255.081 321.303L253.209 318.572L255.081 321.303ZM266.999 341.898L265.157 339.147L266.999 341.898ZM268.842 344.649C298.532 324.76 321.771 296.473 335.51 263.27L329.391 260.739C316.153 292.731 293.762 319.985 265.157 339.147L268.842 344.649ZM318.955 193.816C318.955 245.624 292.915 291.342 253.209 318.572L256.954 324.034C298.385 295.621 325.577 247.897 325.577 193.816H318.955ZM179.523 43.1361C257.505 49.0268 318.955 114.237 318.955 193.816H325.577C325.577 110.753 261.437 42.683 180.022 36.533L179.523 43.1361ZM278.376 49.8296C249.891 27.9495 215.633 15.0834 179.983 12.7203L179.545 19.3277C213.892 21.6044 246.898 34.0002 274.343 55.0811L278.376 49.8296ZM343.133 146.844C332.803 108.253 310.041 74.1518 278.376 49.8296L274.343 55.0811C304.851 78.5151 326.783 111.372 336.736 148.556L343.133 146.844ZM335.51 263.27C350.783 226.359 353.463 185.435 343.133 146.844L336.736 148.556C346.69 185.74 344.108 225.173 329.391 260.739L335.51 263.27ZM180.022 36.533C175.14 36.1642 171.311 32.1597 171.311 27.5131H164.689C164.689 35.8697 171.438 42.5254 179.523 43.1361L180.022 36.533ZM253.933 336.183C251.614 332.163 252.919 326.8 256.954 324.034L253.209 318.572C246.533 323.151 244.027 332.262 248.197 339.491L253.933 336.183ZM171.311 27.5131C171.311 22.7355 175.154 19.0365 179.545 19.3277L179.983 12.7203C171.4 12.1513 164.689 19.2874 164.689 27.5131H171.311ZM265.157 339.147C261.495 341.601 256.32 340.321 253.933 336.183L248.197 339.491C252.311 346.625 261.694 349.437 268.842 344.649L265.157 339.147Z" fill="#ECEFF4"/>
<g clip-path="url(#clip4_1_32687)">
<path d="M165.033 194.189C184.694 194.189 200.633 178.234 200.633 158.553C200.633 138.871 184.694 122.916 165.033 122.916C145.372 122.916 129.433 138.871 129.433 158.553C129.433 178.234 145.372 194.189 165.033 194.189Z" fill="#FBC85B"/>
<path d="M155.855 155.211C158.005 155.211 159.748 153.465 159.748 151.313C159.748 149.16 158.005 147.415 155.855 147.415C153.704 147.415 151.961 149.16 151.961 151.313C151.961 153.465 153.704 155.211 155.855 155.211Z" fill="#3E414D"/>
<path d="M174.212 155.211C176.362 155.211 178.105 153.465 178.105 151.313C178.105 149.16 176.362 147.415 174.212 147.415C172.061 147.415 170.318 149.16 170.318 151.313C170.318 153.465 172.061 155.211 174.212 155.211Z" fill="#3E414D"/>
<path d="M180.608 167.322C177.661 172.788 171.823 176.51 165.103 176.51C158.382 176.51 152.544 172.788 149.597 167.322" stroke="#9A695E" stroke-width="4.74687" stroke-linecap="round"/>
</g>
<path d="M160.713 213.451V255.298H154.781V213.451H160.713ZM148.159 217.82C148.159 230.512 143.698 241.043 128.753 248.124L125.672 243.434C136.479 238.329 141.238 231.708 142.181 222.419H127.925V217.82H148.159ZM174.738 214.463V218.142H178.647V214.463H184.073V230.696H169.22V214.463H174.738ZM174.738 226.005H178.647V222.556H174.738V226.005ZM192.075 214.463V218.142H195.846V214.463H201.41V230.696H186.511V214.463H192.075ZM192.075 226.005H195.846V222.556H192.075V226.005ZM204.399 233.501V238.191H166.231V233.501H204.399ZM199.754 241.089V254.838H170.646V241.089H199.754ZM176.394 245.733V250.148H194.052V245.733H176.394Z" fill="#3E3E3E"/>
<ellipse cx="168" cy="193.817" rx="139.433" ry="139.576" stroke="#E8E8E8" stroke-width="2.94306" stroke-dasharray="2.94 14.72"/>
</g>
<rect x="0.5" y="0.5" width="743" height="387" rx="15.5" stroke="#D2D9E3"/>
<defs>
<clipPath id="clip0_1_32687">
<rect width="744" height="388" rx="16" fill="white"/>
</clipPath>
<clipPath id="clip1_1_32687">
<rect width="28.8" height="28.8001" fill="white" transform="translate(484.8 93)"/>
</clipPath>
<clipPath id="clip2_1_32687">
<rect width="28.8" height="28.8001" fill="white" transform="translate(484.8 136.2)"/>
</clipPath>
<clipPath id="clip3_1_32687">
<rect width="28.8" height="28.8001" fill="white" transform="translate(484.8 222.601)"/>
</clipPath>
<clipPath id="clip4_1_32687">
<rect width="71.2" height="71.273" fill="white" transform="translate(129.433 122.916)"/>
</clipPath>
</defs>
</svg>
