<svg width="384" height="240" viewBox="0 0 384 240" fill="none" xmlns="http://www.w3.org/2000/svg">
<g clip-path="url(#clip0_1_32681)">
<rect width="384" height="240" rx="16" fill="#ECEFF4"/>
<path d="M186.516 201.981H184.576L183.676 205.461C183.596 205.741 183.416 205.881 183.136 205.881H182.656C182.376 205.881 182.276 205.741 182.356 205.461L183.256 201.981H180.456L179.556 205.461C179.476 205.741 179.296 205.881 179.016 205.881H178.536C178.256 205.881 178.156 205.741 178.236 205.461L179.136 201.981H177.516C177.236 201.981 177.076 201.841 177.156 201.581L177.276 201.181C177.356 200.941 177.456 200.881 177.736 200.881H179.416L180.176 197.901H178.296C178.016 197.901 177.856 197.761 177.936 197.501L178.056 197.101C178.136 196.861 178.236 196.801 178.516 196.801H180.456L181.376 193.301C181.456 193.021 181.636 192.881 181.916 192.881H182.396C182.676 192.881 182.776 193.021 182.696 193.301L181.776 196.801H184.576L185.496 193.301C185.576 193.021 185.756 192.881 186.036 192.881H186.516C186.796 192.881 186.896 193.021 186.816 193.301L185.896 196.801H187.516C187.796 196.801 187.956 196.941 187.876 197.201L187.756 197.601C187.676 197.841 187.576 197.901 187.296 197.901H185.616L184.856 200.881H186.736C187.016 200.881 187.176 201.021 187.096 201.281L186.976 201.681C186.896 201.921 186.796 201.981 186.516 201.981ZM181.496 197.901L180.736 200.881H183.536L184.296 197.901H181.496ZM202.679 201.441C203.019 201.441 203.479 201.801 203.479 202.061C203.479 202.241 203.419 202.501 203.419 203.041V205.001V205.041C203.419 205.361 203.139 205.821 202.679 205.821H194.499V207.541C194.499 207.841 194.639 208.001 194.939 208.001H203.099C203.479 208.001 203.719 207.901 203.899 207.901C204.059 207.901 204.239 208.101 204.239 208.281C204.239 208.601 203.579 209.081 203.099 209.081H194.459C193.579 209.081 193.119 208.501 193.119 207.701V206.421C193.119 205.801 193.059 205.601 192.259 205.501C191.819 205.441 191.979 204.741 192.319 204.741H202.039V202.641H195.059C194.439 202.641 194.019 202.741 193.699 202.741C193.359 202.741 192.919 202.521 192.459 202.021C192.139 201.701 192.479 201.241 192.839 201.401C193.179 201.561 193.999 201.561 195.059 201.561H201.279C202.139 201.561 202.379 201.441 202.679 201.441ZM199.679 191.441C199.499 192.141 199.179 192.821 198.659 193.461C200.699 194.421 202.579 195.241 204.279 195.921C204.619 196.181 204.919 196.761 204.919 197.121C204.919 197.401 204.619 197.661 204.259 197.461C202.799 196.681 200.679 195.581 197.919 194.261C196.599 195.481 194.639 196.561 192.019 197.521C191.619 197.661 191.139 197.081 191.519 196.901C194.599 195.521 196.819 193.901 197.899 192.061C197.919 191.701 197.559 191.361 196.679 191.041C196.299 190.901 196.499 190.221 196.959 190.321L199.359 190.881C199.759 190.961 199.719 191.301 199.679 191.441ZM189.679 199.001C189.379 198.681 189.699 198.181 190.059 198.361C190.399 198.521 191.219 198.521 192.279 198.521H205.679C206.039 198.521 206.199 198.441 206.379 198.441C206.619 198.441 206.719 198.581 206.719 198.821C206.719 199.221 206.259 199.621 205.679 199.621H192.279C191.659 199.621 191.239 199.721 190.919 199.721C190.579 199.721 190.139 199.501 189.679 199.001ZM220.687 202.041C221.027 202.041 221.487 202.401 221.487 202.661C221.487 202.841 221.427 203.101 221.427 203.641V205.301V205.341C221.427 205.661 221.147 206.121 220.687 206.121H212.507V207.541C212.507 207.841 212.647 208.001 212.947 208.001H221.107C221.487 208.001 221.727 207.901 221.907 207.901C222.067 207.901 222.247 208.101 222.247 208.281C222.247 208.601 221.587 209.081 221.107 209.081H212.467C211.587 209.081 211.127 208.501 211.127 207.701V206.721C211.127 206.101 211.067 205.901 210.267 205.801C209.827 205.741 209.987 205.041 210.327 205.041H220.047V203.241H213.067C212.447 203.241 212.027 203.341 211.707 203.341C211.367 203.341 210.927 203.121 210.467 202.621C210.147 202.301 210.487 201.841 210.847 202.001C211.187 202.161 212.007 202.161 213.067 202.161H219.527C220.187 202.141 220.407 202.041 220.687 202.041ZM221.667 197.381H212.047C211.427 197.381 211.007 197.481 210.687 197.481C210.347 197.481 209.907 197.261 209.447 196.761C209.127 196.441 209.467 195.961 209.827 196.121C210.167 196.281 210.987 196.281 212.047 196.281H212.627V194.641C212.627 193.821 212.587 193.661 211.787 193.441C211.407 193.341 211.527 192.681 212.007 192.741L213.667 192.921C214.067 192.961 214.027 193.221 214.027 193.361C214.027 193.541 213.967 193.801 213.967 194.341V196.281H218.667V194.401C218.667 193.601 218.627 193.401 217.827 193.181C217.447 193.081 217.567 192.421 218.047 192.481L219.707 192.681C220.107 192.741 220.067 192.981 220.067 193.121C220.067 193.301 220.007 193.561 220.007 194.101V196.281H221.667C222.087 196.281 222.387 196.201 222.567 196.201C222.727 196.201 222.907 196.401 222.907 196.581C222.907 196.901 222.167 197.381 221.667 197.381ZM207.687 199.761C207.387 199.441 207.707 198.941 208.067 199.121C208.407 199.281 209.227 199.281 210.287 199.281H223.687C224.047 199.281 224.207 199.201 224.387 199.201C224.627 199.201 224.727 199.341 224.727 199.581C224.727 199.981 224.267 200.381 223.687 200.381H210.287C209.667 200.381 209.247 200.481 208.927 200.481C208.587 200.481 208.147 200.261 207.687 199.761ZM221.187 191.901H212.407C211.787 191.901 211.367 192.001 211.047 192.001C210.707 192.001 210.267 191.781 209.807 191.281C209.487 190.961 209.827 190.481 210.187 190.641C210.527 190.801 211.347 190.801 212.407 190.801H221.187C221.607 190.801 221.907 190.721 222.087 190.721C222.247 190.721 222.427 190.921 222.427 191.101C222.427 191.421 221.687 191.901 221.187 191.901ZM237.695 192.381V197.601H240.175V192.341C240.175 191.401 240.015 191.161 238.995 190.901C238.615 190.801 238.815 190.101 239.235 190.161L241.195 190.461C241.615 190.521 241.575 190.761 241.575 190.901C241.575 191.061 241.495 191.401 241.495 191.961V206.941C241.495 207.721 241.235 208.421 240.655 208.421C240.395 208.421 240.175 208.121 240.175 207.421V198.681H237.695V206.161C237.695 206.941 237.435 207.641 236.875 207.641C236.615 207.641 236.395 207.341 236.395 206.641V202.021C235.275 202.581 234.035 202.981 232.655 203.181C231.995 203.281 231.575 202.901 231.395 202.381C230.475 202.841 229.395 203.101 228.155 203.181C227.275 203.241 226.815 202.601 226.815 201.801V194.981C226.815 194.281 226.755 194.061 226.075 193.961C225.635 193.901 225.815 193.181 226.135 193.181H229.115C229.495 193.181 229.635 193.101 229.815 193.101C229.975 193.101 230.155 193.301 230.155 193.481C230.155 193.801 229.555 194.281 229.115 194.281H228.135V201.521C228.135 201.821 228.275 201.981 228.575 201.981C229.395 201.981 230.375 201.841 231.315 201.561V194.981C231.315 194.281 231.275 194.061 230.715 193.961C230.275 193.881 230.455 193.181 230.775 193.181H234.235C234.615 193.181 234.755 193.101 234.935 193.101C235.095 193.101 235.275 193.301 235.275 193.481C235.275 193.801 234.675 194.281 234.235 194.281H232.635V201.521C232.635 201.821 232.775 202.001 233.075 201.981C234.135 201.881 235.215 201.601 236.395 201.181V192.741C236.395 191.841 236.275 191.601 235.295 191.341C234.935 191.241 235.115 190.561 235.535 190.621L237.395 190.881C237.815 190.941 237.775 191.181 237.775 191.321C237.775 191.481 237.695 191.821 237.695 192.381ZM244.263 198.121C244.263 194.341 245.963 192.921 248.043 192.921C249.923 192.921 251.523 194.121 251.783 197.241C252.083 197.361 252.643 197.381 253.743 197.381H254.263V192.761C254.263 191.861 253.903 191.601 252.923 191.341C252.563 191.241 252.743 190.561 253.163 190.621L255.283 190.901C255.703 190.961 255.663 191.201 255.663 191.341C255.663 191.501 255.583 191.841 255.583 192.401V206.161C255.583 206.941 255.303 207.641 254.743 207.641C254.483 207.641 254.263 207.341 254.263 206.641V198.461H253.743C253.123 198.461 252.923 198.561 252.603 198.561C252.423 198.561 252.123 198.441 251.823 198.221C251.783 201.921 250.083 203.281 248.043 203.281C245.963 203.281 244.263 201.901 244.263 198.121ZM245.683 198.141C245.683 201.141 246.763 202.201 248.043 202.201C249.323 202.201 250.403 201.141 250.403 198.141C250.403 195.101 249.323 194.001 248.043 194.001C246.763 194.001 245.683 195.101 245.683 198.141ZM259.303 191.981V206.941C259.303 207.721 259.023 208.421 258.443 208.421C258.183 208.421 257.963 208.121 257.963 207.421V192.361C257.963 191.421 257.563 191.161 256.543 190.901C256.163 190.801 256.363 190.101 256.783 190.161L259.003 190.481C259.423 190.541 259.383 190.781 259.383 190.921C259.383 191.081 259.303 191.421 259.303 191.981ZM276.85 191.981V199.141C276.85 199.921 276.59 200.661 275.97 200.661C275.67 200.661 275.47 200.361 275.47 199.641V198.001C272.43 198.921 268.93 199.361 265.03 199.441C264.41 199.461 263.99 199.541 263.67 199.541C263.33 199.541 262.89 199.321 262.43 198.821C262.13 198.501 262.45 198.001 262.81 198.181C263.13 198.341 263.93 198.341 264.95 198.341V195.881C264.95 195.081 264.93 194.881 264.11 194.681C263.73 194.581 263.85 193.921 264.33 193.981L265.99 194.161C266.39 194.201 266.35 194.461 266.35 194.601C266.35 194.781 266.29 195.041 266.29 195.581V198.321C267.51 198.301 268.71 198.221 269.89 198.101V195.561C269.89 194.761 269.87 194.541 269.05 194.341C268.67 194.241 268.79 193.581 269.27 193.641L270.93 193.841C271.33 193.881 271.29 194.141 271.29 194.281C271.29 194.461 271.23 194.721 271.23 195.261V197.941C272.67 197.741 274.09 197.481 275.47 197.161V192.361C275.47 191.421 275.07 191.161 274.05 190.901C273.67 190.801 273.87 190.101 274.29 190.161L276.55 190.481C276.97 190.541 276.93 190.781 276.93 190.921C276.93 191.081 276.85 191.421 276.85 191.981ZM275.99 201.401C276.33 201.401 276.79 201.761 276.79 202.021C276.79 202.201 276.73 202.461 276.73 203.001V204.981V205.021C276.73 205.341 276.45 205.801 275.99 205.801H268.01V207.541C268.01 207.841 268.15 208.001 268.45 208.001H276.45C276.83 208.001 277.07 207.901 277.25 207.901C277.41 207.901 277.59 208.101 277.59 208.281C277.59 208.601 276.93 209.081 276.45 209.081H267.97C267.09 209.081 266.63 208.501 266.63 207.701V206.401C266.63 205.781 266.57 205.581 265.77 205.481C265.33 205.421 265.49 204.721 265.83 204.721H275.35V202.601H268.47C267.85 202.601 267.43 202.701 267.11 202.701C266.77 202.701 266.33 202.481 265.87 201.981C265.55 201.661 265.89 201.201 266.25 201.361C266.59 201.521 267.41 201.521 268.47 201.521H274.83C275.49 201.501 275.71 201.401 275.99 201.401ZM271.89 192.901H265.23C264.61 192.901 264.19 193.001 263.87 193.001C263.53 193.001 263.09 192.781 262.63 192.281C262.33 191.961 262.65 191.461 263.01 191.641C263.35 191.801 264.17 191.801 265.23 191.801H271.89C272.31 191.801 272.61 191.721 272.79 191.721C272.95 191.721 273.13 191.921 273.13 192.101C273.13 192.441 272.39 192.901 271.89 192.901ZM292.578 191.581C292.918 191.581 293.378 191.941 293.378 192.201C293.378 192.381 293.318 192.641 293.318 193.181V195.981V196.021C293.318 196.361 292.918 196.821 292.478 196.821H284.358V199.301C284.358 199.601 284.498 199.761 284.798 199.761H292.998C293.358 199.761 293.518 199.681 293.698 199.681C293.858 199.681 294.038 199.901 294.038 200.081C294.038 200.421 293.438 200.861 292.998 200.861H284.318C283.438 200.861 282.978 200.281 282.978 199.481V197.421C282.978 196.801 282.918 196.601 282.118 196.501C281.678 196.441 281.858 195.721 282.178 195.721H291.938V192.801H285.018C284.398 192.801 283.978 192.901 283.658 192.901C283.318 192.901 282.878 192.681 282.418 192.181C282.118 191.861 282.438 191.361 282.798 191.541C283.138 191.701 283.958 191.701 285.018 191.701H291.418C292.078 191.681 292.318 191.581 292.578 191.581ZM279.718 204.941C279.418 204.621 279.738 204.121 280.098 204.301C280.438 204.461 281.258 204.461 282.318 204.461H287.638V203.401C287.638 202.601 287.438 202.401 286.458 202.161C286.078 202.061 286.198 201.361 286.678 201.421L288.718 201.641C289.118 201.681 289.078 201.941 289.078 202.081C289.078 202.261 289.018 202.521 289.018 203.061V204.461H295.718C296.078 204.461 296.238 204.381 296.418 204.381C296.658 204.381 296.758 204.521 296.758 204.761C296.758 205.161 296.298 205.561 295.718 205.561H282.318C281.698 205.561 281.278 205.661 280.958 205.661C280.618 205.661 280.178 205.441 279.718 204.941ZM311.766 193.761C311.486 197.301 310.826 200.581 309.826 203.661H313.726C314.086 203.661 314.246 203.581 314.426 203.581C314.666 203.581 314.766 203.721 314.766 203.961C314.766 204.361 314.306 204.761 313.726 204.761H300.326C299.706 204.761 299.286 204.861 298.966 204.861C298.626 204.861 298.186 204.641 297.726 204.141C297.426 203.821 297.746 203.321 298.106 203.501C298.446 203.661 299.266 203.661 300.326 203.661H308.946C309.586 200.381 309.966 196.941 310.146 193.381H302.586C301.966 193.381 301.546 193.481 301.226 193.481C300.886 193.481 300.446 193.261 299.986 192.761C299.686 192.441 300.006 191.941 300.366 192.121C300.706 192.281 301.526 192.281 302.586 192.281H309.566C310.406 192.281 310.746 192.161 311.026 192.161C311.366 192.161 311.826 192.521 311.826 192.781C311.826 192.961 311.786 193.221 311.766 193.761Z" fill="#ABB8CE"/>
<path d="M162.391 167.531H160.451L159.551 171.011C159.471 171.291 159.291 171.431 159.011 171.431H158.531C158.251 171.431 158.151 171.291 158.231 171.011L159.131 167.531H156.331L155.431 171.011C155.351 171.291 155.171 171.431 154.891 171.431H154.411C154.131 171.431 154.031 171.291 154.111 171.011L155.011 167.531H153.391C153.111 167.531 152.951 167.391 153.031 167.131L153.151 166.731C153.231 166.491 153.331 166.431 153.611 166.431H155.291L156.051 163.451H154.171C153.891 163.451 153.731 163.311 153.811 163.051L153.931 162.651C154.011 162.411 154.111 162.351 154.391 162.351H156.331L157.251 158.851C157.331 158.571 157.511 158.431 157.791 158.431H158.271C158.551 158.431 158.651 158.571 158.571 158.851L157.651 162.351H160.451L161.371 158.851C161.451 158.571 161.631 158.431 161.911 158.431H162.391C162.671 158.431 162.771 158.571 162.691 158.851L161.771 162.351H163.391C163.671 162.351 163.831 162.491 163.751 162.751L163.631 163.151C163.551 163.391 163.451 163.451 163.171 163.451H161.491L160.731 166.431H162.611C162.891 166.431 163.051 166.571 162.971 166.831L162.851 167.231C162.771 167.471 162.671 167.531 162.391 167.531ZM157.371 163.451L156.611 166.431H159.411L160.171 163.451H157.371ZM168.634 160.171C168.634 157.171 171.014 156.071 173.974 156.071C176.934 156.071 179.334 157.171 179.334 160.171C179.334 163.151 176.934 164.231 173.974 164.231C171.014 164.231 168.634 163.151 168.634 160.171ZM170.054 160.191C170.054 162.371 171.834 163.151 173.974 163.151C176.154 163.151 177.934 162.371 177.934 160.191C177.934 157.951 176.154 157.151 173.974 157.151C171.834 157.151 170.054 157.951 170.054 160.191ZM165.554 166.891C165.254 166.571 165.574 166.071 165.934 166.251C166.274 166.411 167.094 166.411 168.154 166.411H181.554C181.914 166.411 182.074 166.331 182.254 166.331C182.494 166.331 182.594 166.471 182.594 166.711C182.594 167.111 182.134 167.511 181.554 167.511H174.674V172.871C174.674 173.651 174.394 174.391 173.754 174.391C173.334 174.391 173.294 173.831 173.294 173.371V167.511H168.154C167.534 167.511 167.114 167.611 166.794 167.611C166.454 167.611 166.014 167.391 165.554 166.891ZM186.341 167.771C186.021 167.451 186.361 166.991 186.721 167.151C187.061 167.311 187.881 167.311 188.941 167.311H191.281V165.091H186.161C185.541 165.091 185.121 165.191 184.801 165.191C184.461 165.191 184.021 164.971 183.561 164.471C183.261 164.151 183.581 163.651 183.941 163.831C184.281 163.991 185.101 163.991 186.161 163.991H199.561C199.921 163.991 200.081 163.911 200.261 163.911C200.501 163.911 200.601 164.051 200.601 164.291C200.601 164.691 200.141 165.091 199.561 165.091H192.661V167.311H195.161C196.021 167.311 196.261 167.191 196.561 167.191C196.901 167.191 197.361 167.551 197.361 167.811C197.361 167.991 197.301 168.251 197.301 168.791V170.691C197.301 171.011 197.021 171.471 196.561 171.471H188.381V173.091C188.381 173.391 188.521 173.551 188.821 173.551H196.981C197.361 173.551 197.601 173.451 197.781 173.451C197.941 173.451 198.121 173.651 198.121 173.831C198.121 174.151 197.461 174.631 196.981 174.631H188.341C187.461 174.631 187.001 174.051 187.001 173.251V172.071C187.001 171.451 186.941 171.251 186.141 171.151C185.701 171.091 185.861 170.391 186.201 170.391H195.921V168.391H188.941C188.321 168.391 187.901 168.491 187.581 168.491C187.241 168.491 186.801 168.271 186.341 167.771ZM186.721 159.271C186.721 156.811 189.061 155.911 191.981 155.911C194.921 155.911 197.281 156.811 197.281 159.271C197.281 161.731 194.921 162.611 191.981 162.611C189.061 162.611 186.721 161.731 186.721 159.271ZM188.141 159.291C188.141 160.951 189.901 161.531 191.981 161.531C194.121 161.531 195.881 160.951 195.881 159.291C195.881 157.591 194.121 156.991 191.981 156.991C189.901 156.991 188.141 157.591 188.141 159.291ZM213.049 157.951V163.151H215.829V157.911C215.829 156.971 215.429 156.711 214.409 156.451C214.029 156.351 214.229 155.651 214.649 155.711L216.869 156.031C217.289 156.091 217.249 156.331 217.249 156.471C217.249 156.631 217.169 156.971 217.169 157.531V172.491C217.169 173.271 216.889 173.971 216.309 173.971C216.049 173.971 215.829 173.671 215.829 172.971V164.231H213.049V171.711C213.049 172.491 212.769 173.191 212.209 173.191C211.949 173.191 211.729 172.891 211.729 172.191V158.311C211.729 157.411 211.369 157.151 210.389 156.891C210.029 156.791 210.209 156.111 210.629 156.171L212.749 156.451C213.169 156.511 213.129 156.751 213.129 156.891C213.129 157.051 213.049 157.391 213.049 157.951ZM202.549 166.351C202.549 163.811 204.209 162.871 206.289 162.871C208.389 162.871 210.069 163.811 210.069 166.351C210.069 168.851 208.389 169.791 206.289 169.791C204.209 169.791 202.549 168.851 202.549 166.351ZM203.969 166.371C203.969 168.091 205.049 168.691 206.289 168.691C207.589 168.691 208.669 168.091 208.669 166.371C208.669 164.591 207.589 163.971 206.289 163.971C205.049 163.971 203.969 164.591 203.969 166.371ZM209.569 161.671H204.309C203.689 161.671 203.269 161.771 202.949 161.771C202.609 161.771 202.169 161.531 201.709 161.031C201.409 160.711 201.729 160.251 202.089 160.431C202.429 160.591 203.249 160.591 204.309 160.591H209.569C209.929 160.591 210.089 160.511 210.269 160.511C210.429 160.511 210.609 160.691 210.609 160.871C210.609 161.211 210.009 161.671 209.569 161.671ZM206.369 158.831C205.389 158.831 204.609 158.851 203.769 158.071C203.449 157.771 203.769 157.231 204.149 157.391C204.489 157.551 205.029 157.651 206.369 157.651H208.429C208.589 157.651 208.749 157.891 208.749 158.111C208.749 158.451 208.029 158.831 206.369 158.831ZM222.657 161.171C222.657 157.991 225.037 156.831 227.997 156.831C230.957 156.831 233.357 157.991 233.357 161.171C233.357 164.331 230.957 165.471 227.997 165.471C225.037 165.471 222.657 164.331 222.657 161.171ZM224.077 161.191C224.077 163.531 225.857 164.391 227.997 164.391C230.177 164.391 231.957 163.531 231.957 161.191C231.957 158.791 230.177 157.911 227.997 157.911C225.857 157.911 224.077 158.791 224.077 161.191ZM219.577 170.291C219.277 169.971 219.597 169.471 219.957 169.651C220.297 169.811 221.117 169.811 222.177 169.811H224.517V167.891C224.517 167.091 224.397 166.931 223.477 166.671C223.097 166.571 223.217 165.871 223.697 165.931L225.597 166.131C225.997 166.171 225.957 166.431 225.957 166.571C225.957 166.751 225.897 167.011 225.897 167.551V169.811H230.677V167.811C230.677 167.011 230.537 166.831 229.637 166.571C229.257 166.471 229.377 165.771 229.857 165.831L231.757 166.051C232.157 166.091 232.117 166.351 232.117 166.491C232.117 166.671 232.057 166.931 232.057 167.471V169.811H235.577C235.937 169.811 236.097 169.731 236.277 169.731C236.517 169.731 236.617 169.871 236.617 170.111C236.617 170.511 236.157 170.911 235.577 170.911H222.177C221.557 170.911 221.137 171.011 220.817 171.011C220.477 171.011 220.037 170.791 219.577 170.291Z" fill="#ABB8CE"/>
<path d="M335.291 201.981H333.351L332.451 205.461C332.371 205.741 332.191 205.881 331.911 205.881H331.431C331.151 205.881 331.051 205.741 331.131 205.461L332.031 201.981H329.231L328.331 205.461C328.251 205.741 328.071 205.881 327.791 205.881H327.311C327.031 205.881 326.931 205.741 327.011 205.461L327.911 201.981H326.291C326.011 201.981 325.851 201.841 325.931 201.581L326.051 201.181C326.131 200.941 326.231 200.881 326.511 200.881H328.191L328.951 197.901H327.071C326.791 197.901 326.631 197.761 326.711 197.501L326.831 197.101C326.911 196.861 327.011 196.801 327.291 196.801H329.231L330.151 193.301C330.231 193.021 330.411 192.881 330.691 192.881H331.171C331.451 192.881 331.551 193.021 331.471 193.301L330.551 196.801H333.351L334.271 193.301C334.351 193.021 334.531 192.881 334.811 192.881H335.291C335.571 192.881 335.671 193.021 335.591 193.301L334.671 196.801H336.291C336.571 196.801 336.731 196.941 336.651 197.201L336.531 197.601C336.451 197.841 336.351 197.901 336.071 197.901H334.391L333.631 200.881H335.511C335.791 200.881 335.951 201.021 335.871 201.281L335.751 201.681C335.671 201.921 335.571 201.981 335.291 201.981ZM330.271 197.901L329.511 200.881H332.311L333.071 197.901H330.271ZM340.554 195.141C340.554 192.441 342.574 191.421 345.074 191.421C347.574 191.421 349.614 192.441 349.614 195.141C349.614 197.841 347.574 198.801 345.074 198.801C342.574 198.801 340.554 197.841 340.554 195.141ZM341.654 200.941C345.034 200.941 348.814 200.701 352.214 200.281V192.361C352.214 191.421 351.814 191.161 350.794 190.901C350.414 190.801 350.614 190.101 351.034 190.161L353.294 190.481C353.714 190.541 353.674 190.781 353.674 190.921C353.674 191.081 353.594 191.421 353.594 191.981V206.921C353.594 207.701 353.334 208.441 352.714 208.441C352.414 208.441 352.214 208.141 352.214 207.421V201.121C350.314 201.461 348.254 201.721 346.154 201.881V206.661C346.154 207.441 345.894 208.181 345.274 208.181C344.974 208.181 344.774 207.881 344.774 207.161V201.961C343.714 202.021 342.674 202.041 341.654 202.041C341.034 202.041 340.614 202.141 340.294 202.141C339.954 202.141 339.514 201.921 339.054 201.421C338.754 201.101 339.074 200.601 339.434 200.781C339.774 200.941 340.594 200.941 341.654 200.941ZM341.994 195.161C341.994 197.061 343.394 197.721 345.074 197.721C346.754 197.721 348.194 197.061 348.194 195.161C348.194 193.141 346.754 192.501 345.074 192.501C343.394 192.501 341.994 193.141 341.994 195.161ZM369.322 191.581C369.662 191.581 370.122 191.941 370.122 192.201C370.122 192.381 370.062 192.641 370.062 193.181V195.981V196.021C370.062 196.361 369.662 196.821 369.222 196.821H361.102V199.301C361.102 199.601 361.242 199.761 361.542 199.761H369.742C370.102 199.761 370.262 199.681 370.442 199.681C370.602 199.681 370.782 199.901 370.782 200.081C370.782 200.421 370.182 200.861 369.742 200.861H361.062C360.182 200.861 359.722 200.281 359.722 199.481V197.421C359.722 196.801 359.662 196.601 358.862 196.501C358.422 196.441 358.602 195.721 358.922 195.721H368.682V192.801H361.762C361.142 192.801 360.722 192.901 360.402 192.901C360.062 192.901 359.622 192.681 359.162 192.181C358.862 191.861 359.182 191.361 359.542 191.541C359.882 191.701 360.702 191.701 361.762 191.701H368.162C368.822 191.681 369.062 191.581 369.322 191.581ZM356.462 204.941C356.162 204.621 356.482 204.121 356.842 204.301C357.182 204.461 358.002 204.461 359.062 204.461H364.382V203.401C364.382 202.601 364.182 202.401 363.202 202.161C362.822 202.061 362.942 201.361 363.422 201.421L365.462 201.641C365.862 201.681 365.822 201.941 365.822 202.081C365.822 202.261 365.762 202.521 365.762 203.061V204.461H372.462C372.822 204.461 372.982 204.381 373.162 204.381C373.402 204.381 373.502 204.521 373.502 204.761C373.502 205.161 373.042 205.561 372.462 205.561H359.062C358.442 205.561 358.022 205.661 357.702 205.661C357.362 205.661 356.922 205.441 356.462 204.941ZM390.71 199.121H388.61V206.921C388.61 207.701 388.35 208.441 387.73 208.441C387.43 208.441 387.23 208.141 387.23 207.421V192.361C387.23 191.421 386.83 191.161 385.81 190.901C385.43 190.801 385.63 190.101 386.05 190.161L388.31 190.481C388.73 190.541 388.69 190.781 388.69 190.921C388.69 191.081 388.61 191.421 388.61 191.981V198.021H390.71C391.09 198.021 391.23 197.941 391.41 197.941C391.57 197.941 391.75 198.141 391.75 198.321C391.75 198.641 391.15 199.121 390.71 199.121ZM374.49 203.341C378.45 201.181 381.05 197.941 382.43 193.961H377.77C377.15 193.961 376.73 194.061 376.41 194.061C376.07 194.061 375.63 193.841 375.17 193.341C374.87 193.021 375.19 192.521 375.55 192.701C375.89 192.861 376.71 192.861 377.77 192.861H381.89C382.73 192.861 383.05 192.741 383.33 192.741C383.67 192.741 384.13 193.101 384.13 193.361C384.13 193.581 383.97 193.901 383.87 194.321C382.45 198.701 379.43 201.921 374.91 204.001C374.51 204.181 374.11 203.541 374.49 203.341Z" fill="#ABB8CE"/>
<path d="M256.883 167.531H254.943L254.043 171.011C253.963 171.291 253.783 171.431 253.503 171.431H253.023C252.743 171.431 252.643 171.291 252.723 171.011L253.623 167.531H250.823L249.923 171.011C249.843 171.291 249.663 171.431 249.383 171.431H248.903C248.623 171.431 248.523 171.291 248.603 171.011L249.503 167.531H247.883C247.603 167.531 247.443 167.391 247.523 167.131L247.643 166.731C247.723 166.491 247.823 166.431 248.103 166.431H249.783L250.543 163.451H248.663C248.383 163.451 248.223 163.311 248.303 163.051L248.423 162.651C248.503 162.411 248.603 162.351 248.883 162.351H250.823L251.743 158.851C251.823 158.571 252.003 158.431 252.283 158.431H252.763C253.043 158.431 253.143 158.571 253.063 158.851L252.143 162.351H254.943L255.863 158.851C255.943 158.571 256.123 158.431 256.403 158.431H256.883C257.163 158.431 257.263 158.571 257.183 158.851L256.263 162.351H257.883C258.163 162.351 258.323 162.491 258.243 162.751L258.123 163.151C258.043 163.391 257.943 163.451 257.663 163.451H255.983L255.223 166.431H257.103C257.383 166.431 257.543 166.571 257.463 166.831L257.343 167.231C257.263 167.471 257.163 167.531 256.883 167.531ZM251.863 163.451L251.103 166.431H253.903L254.663 163.451H251.863ZM268.526 168.311H262.386C261.506 168.311 261.046 167.731 261.046 166.931V160.311C261.046 159.611 260.966 159.431 260.186 159.291C259.746 159.231 259.926 158.511 260.246 158.511H267.466C268.126 158.491 268.346 158.391 268.626 158.391C268.966 158.391 269.426 158.751 269.426 159.011C269.426 159.191 269.366 159.451 269.366 159.991V167.511C269.366 167.851 268.986 168.311 268.526 168.311ZM262.426 166.751C262.426 167.051 262.566 167.211 262.866 167.211H267.986V159.611H262.426V166.751ZM276.286 164.071H274.186V172.471C274.186 173.251 273.926 173.991 273.306 173.991C273.006 173.991 272.806 173.691 272.806 172.971V157.911C272.806 156.971 272.406 156.711 271.386 156.451C271.006 156.351 271.206 155.651 271.626 155.711L273.886 156.031C274.306 156.091 274.266 156.331 274.266 156.471C274.266 156.631 274.186 156.971 274.186 157.531V162.971H276.286C276.666 162.971 276.806 162.891 276.986 162.891C277.146 162.891 277.326 163.091 277.326 163.271C277.326 163.591 276.726 164.071 276.286 164.071ZM290.774 174.651H282.834C281.954 174.651 281.494 174.071 281.494 173.271V170.311C281.494 169.611 281.414 169.431 280.634 169.291C280.194 169.231 280.374 168.511 280.694 168.511H289.474C290.334 168.511 290.574 168.391 290.874 168.391C291.214 168.391 291.674 168.751 291.674 169.011C291.674 169.191 291.614 169.451 291.614 169.991V173.851C291.614 174.191 291.234 174.651 290.774 174.651ZM281.214 159.791C281.214 157.191 283.554 156.231 286.474 156.231C289.414 156.231 291.774 157.191 291.774 159.791C291.774 162.351 289.414 163.291 286.474 163.291C283.554 163.291 281.214 162.351 281.214 159.791ZM282.634 159.811C282.634 161.571 284.374 162.211 286.474 162.211C288.634 162.211 290.374 161.571 290.374 159.811C290.374 157.971 288.634 157.311 286.474 157.311C284.374 157.311 282.634 157.971 282.634 159.811ZM282.874 173.091C282.874 173.391 283.014 173.551 283.314 173.551H290.234V169.611H282.874V173.091ZM278.054 165.651C277.754 165.331 278.074 164.831 278.434 165.011C278.774 165.171 279.594 165.171 280.654 165.171H294.054C294.414 165.171 294.574 165.091 294.754 165.091C294.994 165.091 295.094 165.231 295.094 165.471C295.094 165.871 294.634 166.271 294.054 166.271H280.654C280.034 166.271 279.614 166.371 279.294 166.371C278.954 166.371 278.514 166.151 278.054 165.651ZM311.201 157.531V172.471C311.201 173.251 310.941 173.991 310.321 173.991C310.021 173.991 309.821 173.691 309.821 172.971V157.911C309.821 156.971 309.421 156.711 308.401 156.451C308.021 156.351 308.221 155.651 308.641 155.711L310.901 156.031C311.321 156.091 311.281 156.331 311.281 156.471C311.281 156.631 311.201 156.971 311.201 157.531ZM297.221 163.351C297.221 159.571 299.261 158.151 301.741 158.151C304.221 158.151 306.281 159.571 306.281 163.351C306.281 167.131 304.221 168.511 301.741 168.511C299.261 168.511 297.221 167.131 297.221 163.351ZM298.661 163.371C298.661 166.371 300.081 167.431 301.741 167.431C303.421 167.431 304.841 166.371 304.841 163.371C304.841 160.331 303.421 159.231 301.741 159.231C300.081 159.231 298.661 160.331 298.661 163.371ZM324.829 166.431C324.789 166.711 324.409 166.971 324.089 166.671C323.109 165.771 321.969 164.891 320.389 163.771C318.929 165.051 317.129 166.071 315.029 166.911C314.649 167.071 314.209 166.471 314.569 166.291C317.709 164.751 320.109 162.691 321.669 160.091H317.809C317.189 160.091 316.769 160.191 316.449 160.191C316.109 160.191 315.669 159.971 315.209 159.471C314.909 159.151 315.229 158.651 315.589 158.831C315.929 158.991 316.749 158.991 317.809 158.991H321.229C322.069 158.991 322.389 158.871 322.669 158.871C323.009 158.871 323.469 159.271 323.469 159.491C323.469 159.711 323.289 160.091 323.089 160.451C322.549 161.391 321.909 162.251 321.149 163.031C322.349 163.871 323.349 164.531 324.469 165.191C324.689 165.431 324.869 165.971 324.829 166.431ZM328.209 157.531V161.691H330.309C330.689 161.691 330.829 161.611 331.009 161.611C331.169 161.611 331.349 161.811 331.349 161.991C331.349 162.311 330.749 162.791 330.309 162.791H328.209V165.871C328.209 166.651 327.949 167.391 327.329 167.391C327.029 167.391 326.829 167.091 326.829 166.371V157.911C326.829 156.971 326.429 156.711 325.409 156.451C325.029 156.351 325.229 155.651 325.649 155.711L327.909 156.031C328.329 156.091 328.289 156.331 328.289 156.471C328.289 156.631 328.209 156.971 328.209 157.531ZM328.089 169.891V173.271C328.089 174.051 327.829 174.791 327.209 174.791C326.909 174.791 326.709 174.491 326.709 173.771V169.511H319.889C319.269 169.511 318.849 169.611 318.529 169.611C318.189 169.611 317.749 169.391 317.289 168.891C316.969 168.571 317.309 168.091 317.669 168.251C318.009 168.411 318.829 168.411 319.889 168.411H325.889C326.749 168.411 327.049 168.291 327.349 168.291C327.689 168.291 328.149 168.651 328.149 168.911C328.149 169.091 328.089 169.351 328.089 169.891ZM319.529 157.611C318.549 157.611 317.809 157.631 316.969 156.851C316.649 156.551 316.969 156.011 317.349 156.171C317.689 156.331 318.189 156.431 319.529 156.431H321.649C321.809 156.431 321.969 156.671 321.969 156.891C321.969 157.231 321.189 157.611 319.529 157.611ZM345.257 174.631H337.617C336.737 174.631 336.277 174.051 336.277 173.251V169.731C336.277 168.931 336.137 168.731 335.237 168.511C334.857 168.411 334.977 167.711 335.457 167.771L337.357 167.971C337.757 168.011 337.717 168.271 337.717 168.411C337.717 168.591 337.657 168.851 337.657 169.391V170.311H344.717V169.531C344.717 168.731 344.557 168.531 343.677 168.291C343.297 168.191 343.417 167.491 343.897 167.551L345.797 167.771C346.197 167.811 346.157 168.071 346.157 168.211C346.157 168.391 346.097 168.651 346.097 169.191V173.791V173.831C346.097 174.171 345.717 174.631 345.257 174.631ZM342.897 165.351C342.857 165.631 342.457 165.911 342.157 165.591C341.137 164.571 339.877 163.531 338.437 162.431C336.997 163.831 335.197 164.991 332.977 165.831C332.577 165.991 332.157 165.391 332.517 165.211C335.897 163.531 338.237 161.251 339.697 158.411H335.997C335.377 158.411 334.957 158.511 334.637 158.511C334.297 158.511 333.857 158.291 333.397 157.791C333.097 157.471 333.417 156.971 333.777 157.151C334.117 157.311 334.937 157.311 335.997 157.311H339.257C340.097 157.311 340.417 157.191 340.697 157.191C341.037 157.191 341.497 157.591 341.497 157.811C341.497 158.031 341.317 158.411 341.117 158.771C340.577 159.811 339.937 160.771 339.177 161.651C340.297 162.531 341.417 163.331 342.517 164.071C342.737 164.311 342.937 164.891 342.897 165.351ZM346.217 157.531V160.791H348.317C348.697 160.791 348.837 160.711 349.017 160.711C349.177 160.711 349.357 160.911 349.357 161.091C349.357 161.411 348.757 161.891 348.317 161.891H346.217V165.271C346.217 166.051 345.957 166.791 345.337 166.791C345.037 166.791 344.837 166.491 344.837 165.771V157.911C344.837 156.971 344.437 156.711 343.417 156.451C343.037 156.351 343.237 155.651 343.657 155.711L345.917 156.031C346.337 156.091 346.297 156.331 346.297 156.471C346.297 156.631 346.217 156.971 346.217 157.531ZM338.097 173.531H344.717V171.411H337.657V173.071C337.657 173.371 337.797 173.531 338.097 173.531ZM351.425 163.151C351.425 161.011 353.305 160.191 355.625 160.191C357.965 160.191 359.865 161.011 359.865 163.151C359.865 165.291 357.965 166.091 355.625 166.091C353.305 166.091 351.425 165.291 351.425 163.151ZM363.365 167.351C363.705 167.351 364.165 167.711 364.165 167.971C364.165 168.151 364.105 168.411 364.105 168.951V170.771C364.105 171.091 363.825 171.551 363.365 171.551H355.585V173.091C355.585 173.391 355.725 173.551 356.025 173.551H363.825C364.205 173.551 364.445 173.451 364.625 173.451C364.785 173.451 364.965 173.651 364.965 173.831C364.965 174.151 364.305 174.631 363.825 174.631H355.545C354.665 174.631 354.205 174.051 354.205 173.251V172.151C354.205 171.531 354.145 171.331 353.345 171.231C352.905 171.171 353.065 170.471 353.405 170.471H362.725V168.551H356.045C355.425 168.551 355.005 168.651 354.685 168.651C354.345 168.651 353.905 168.431 353.445 167.931C353.125 167.611 353.465 167.151 353.825 167.311C354.165 167.471 354.985 167.471 356.045 167.471H362.205C362.865 167.451 363.085 167.351 363.365 167.351ZM364.225 157.531V161.311H366.325C366.705 161.311 366.845 161.231 367.025 161.231C367.185 161.231 367.365 161.431 367.365 161.611C367.365 161.931 366.765 162.411 366.325 162.411H364.225V165.091C364.225 165.871 363.965 166.611 363.345 166.611C363.045 166.611 362.845 166.311 362.845 165.591V157.911C362.845 156.971 362.445 156.711 361.425 156.451C361.045 156.351 361.245 155.651 361.665 155.711L363.925 156.031C364.345 156.091 364.305 156.331 364.305 156.471C364.305 156.631 364.225 156.971 364.225 157.531ZM352.845 163.171C352.845 164.551 354.125 165.011 355.625 165.011C357.185 165.011 358.465 164.551 358.465 163.171C358.465 161.751 357.185 161.291 355.625 161.291C354.125 161.291 352.845 161.751 352.845 163.171ZM359.865 159.391H352.845C352.225 159.391 351.805 159.491 351.485 159.491C351.145 159.491 350.705 159.251 350.245 158.751C349.945 158.431 350.265 157.971 350.625 158.151C350.965 158.311 351.785 158.311 352.845 158.311H359.865C360.225 158.311 360.385 158.231 360.565 158.231C360.725 158.231 360.905 158.411 360.905 158.591C360.905 158.931 360.305 159.391 359.865 159.391ZM355.545 157.291C354.565 157.291 353.585 157.311 352.745 156.531C352.425 156.231 352.745 155.691 353.125 155.851C353.465 156.011 354.205 156.111 355.545 156.111H357.905C358.065 156.111 358.225 156.351 358.225 156.571C358.225 156.911 357.205 157.291 355.545 157.291ZM380.093 157.931V163.151H382.573V157.891C382.573 156.951 382.413 156.711 381.393 156.451C381.013 156.351 381.213 155.651 381.633 155.711L383.593 156.011C384.013 156.071 383.973 156.311 383.973 156.451C383.973 156.611 383.893 156.951 383.893 157.511V172.491C383.893 173.271 383.633 173.971 383.053 173.971C382.793 173.971 382.573 173.671 382.573 172.971V164.231H380.093V171.711C380.093 172.491 379.833 173.191 379.273 173.191C379.013 173.191 378.793 172.891 378.793 172.191V167.571C377.673 168.131 376.433 168.531 375.053 168.731C374.393 168.831 373.973 168.451 373.793 167.931C372.873 168.391 371.793 168.651 370.553 168.731C369.673 168.791 369.213 168.151 369.213 167.351V160.531C369.213 159.831 369.153 159.611 368.473 159.511C368.033 159.451 368.213 158.731 368.533 158.731H371.513C371.893 158.731 372.033 158.651 372.213 158.651C372.373 158.651 372.553 158.851 372.553 159.031C372.553 159.351 371.953 159.831 371.513 159.831H370.533V167.071C370.533 167.371 370.673 167.531 370.973 167.531C371.793 167.531 372.773 167.391 373.713 167.111V160.531C373.713 159.831 373.673 159.611 373.113 159.511C372.673 159.431 372.853 158.731 373.173 158.731H376.633C377.013 158.731 377.153 158.651 377.333 158.651C377.493 158.651 377.673 158.851 377.673 159.031C377.673 159.351 377.073 159.831 376.633 159.831H375.033V167.071C375.033 167.371 375.173 167.551 375.473 167.531C376.533 167.431 377.613 167.151 378.793 166.731V158.291C378.793 157.391 378.673 157.151 377.693 156.891C377.333 156.791 377.513 156.111 377.933 156.171L379.793 156.431C380.213 156.491 380.173 156.731 380.173 156.871C380.173 157.031 380.093 157.371 380.093 157.931Z" fill="#ABB8CE"/>
<rect x="-15" y="29" width="64" height="64" rx="16" fill="#AFBACD" fill-opacity="0.15"/>
<g clip-path="url(#clip1_1_32681)">
<path d="M17 77C25.8366 77 33 69.8366 33 61C33 52.1634 25.8366 45 17 45C8.16344 45 1 52.1634 1 61C1 69.8366 8.16344 77 17 77Z" fill="#D6DBE2"/>
<path d="M22.8103 66.7776C22.7958 67.5118 22.1514 69.2955 19.8702 70.4008C18.9754 70.8363 17.9941 71.0625 17 71.0625C16.0059 71.0625 15.0246 70.8363 14.1298 70.4008C11.8446 69.2995 11.2042 67.5118 11.1897 66.7776C11.1633 66.3654 11.3742 65.8724 11.9329 66.0301C12.8449 66.3641 14.276 66.5602 15.3857 66.6623C16.4595 66.7643 17.5405 66.7643 18.6143 66.6623C19.724 66.5562 21.1551 66.3641 22.0671 66.0301C22.6258 65.8724 22.8367 66.3654 22.8103 66.7776Z" fill="#BABFC8"/>
<path d="M18.6765 55.0592C18.445 55.9283 18.5549 56.8096 19.0259 57.8353C19.4454 58.7531 20.1351 59.7541 20.9347 60.9127C21.2076 61.3084 21.5152 61.758 21.8337 62.2317C21.9183 62.3571 22.045 62.4479 22.1908 62.4877C22.3376 62.5282 22.4941 62.5128 22.6301 62.4444C23.144 62.1917 23.6254 61.9523 24.0699 61.752C25.3416 61.1475 26.4394 60.6257 27.2615 60.0425C28.1817 59.3879 28.718 58.6806 28.9517 57.811C29.1824 57.0047 29.0999 56.1411 28.7208 55.3931C28.5366 55.0385 28.2798 54.7265 27.9673 54.4774C27.6547 54.2284 27.2933 54.0478 26.9065 53.9474C26.3195 53.7866 25.6951 53.8314 25.1371 54.0743C24.8354 54.2015 24.5537 54.3719 24.301 54.5801C24.1863 54.2735 24.0285 53.9849 23.8324 53.7228C23.4699 53.2372 22.9538 52.8884 22.368 52.7333C21.9825 52.6277 21.5793 52.6037 21.1841 52.663C20.7889 52.7223 20.4104 52.8636 20.073 53.0778C19.3752 53.5395 18.8767 54.2468 18.6765 55.0592Z" fill="#BABFC8"/>
<path d="M13.9234 53.0867C13.586 52.8725 13.2076 52.7312 12.8123 52.6719C12.4171 52.6126 12.0139 52.6366 11.6284 52.7422C11.0426 52.8973 10.5265 53.2461 10.164 53.7317C9.96788 53.9938 9.81008 54.2824 9.69538 54.589C9.44269 54.3808 9.16105 54.2104 8.85932 54.0832C8.30127 53.8402 7.67693 53.7954 7.08991 53.9562C6.70309 54.0567 6.34168 54.2373 6.02912 54.4863C5.71657 54.7354 5.45983 55.0474 5.27557 55.402C4.89648 56.15 4.81404 57.0136 5.04475 57.8199C5.27837 58.6895 5.81473 59.3968 6.73491 60.0514C7.55699 60.6346 8.65476 61.1564 9.9265 61.7609C10.3604 61.9673 10.8524 62.2006 11.3663 62.4533C11.5023 62.5217 11.6588 62.5371 11.8056 62.4966C11.9514 62.4568 12.0781 62.3659 12.1627 62.2406C12.4812 61.7669 12.7888 61.3173 13.0617 60.9215C13.8613 59.7629 14.5426 58.7598 14.9706 57.8442C15.4415 56.8185 15.5514 55.9372 15.3199 55.0681C15.1198 54.2557 14.6212 53.5483 13.9234 53.0867Z" fill="#BABFC8"/>
</g>
<path d="M15.3359 105.449V107.863H16.8125V108.93H15.3359V111.402H14.0352V105.449H15.3359ZM12.3945 106.094C12.3828 108.848 10.5781 110.758 7.41406 111.602L6.89844 110.559C9.35352 109.926 10.748 108.678 10.9766 107.148H7.40234V106.094H12.3945ZM15.3359 111.824V115.902H8.48047V111.824H15.3359ZM9.78125 112.891V114.871H14.0469V112.891H9.78125ZM27.0195 110.523V111.566H17.3516V110.523H21.5469V109.516H18.5352V105.93H25.8477V106.949H19.8359V108.484H25.9062V109.516H22.8242V110.523H27.0195ZM22.168 112.176C24.4531 112.176 25.8242 112.867 25.8359 114.109C25.8242 115.34 24.4531 116.043 22.168 116.043C19.8594 116.043 18.4766 115.34 18.4766 114.109C18.4766 112.867 19.8594 112.176 22.168 112.176ZM22.168 113.172C20.6211 113.172 19.7891 113.5 19.8008 114.109C19.7891 114.719 20.6211 115.035 22.168 115.035C23.6797 115.035 24.5234 114.719 24.5352 114.109C24.5234 113.5 23.6797 113.172 22.168 113.172Z" fill="#999999"/>
<rect x="57" y="29" width="64" height="64" rx="16" fill="#AFBACD" fill-opacity="0.15"/>
<g clip-path="url(#clip2_1_32681)">
<path d="M89 77C97.8366 77 105 69.8366 105 61C105 52.1634 97.8366 45 89 45C80.1634 45 73 52.1634 73 61C73 69.8366 80.1634 77 89 77Z" fill="#D6DBE2"/>
<path d="M84.875 59.5C85.8415 59.5 86.625 58.7165 86.625 57.75C86.625 56.7835 85.8415 56 84.875 56C83.9085 56 83.125 56.7835 83.125 57.75C83.125 58.7165 83.9085 59.5 84.875 59.5Z" fill="#BABFC8"/>
<path d="M93.125 59.5C94.0915 59.5 94.875 58.7165 94.875 57.75C94.875 56.7835 94.0915 56 93.125 56C92.1585 56 91.375 56.7835 91.375 57.75C91.375 58.7165 92.1585 59.5 93.125 59.5Z" fill="#BABFC8"/>
<path d="M96 64.9375C94.6756 67.3914 92.0518 69.0625 89.0312 69.0625C86.0107 69.0625 83.3869 67.3914 82.0625 64.9375" stroke="#BABFC8" stroke-width="2.15054" stroke-linecap="round"/>
</g>
<path d="M87.8281 105.449V116.043H86.5156V105.449H87.8281ZM84.6641 106.574C84.6641 109.727 83.4453 112.41 79.7305 114.168L79.0508 113.125C81.8223 111.807 83.1113 110.014 83.3398 107.605H79.5898V106.574H84.6641ZM91.3906 105.707V106.738H92.6094V105.707H93.8281V109.785H90.1602V105.707H91.3906ZM91.3906 108.742H92.6094V107.734H91.3906V108.742ZM95.7617 105.707V106.738H96.957V105.707H98.1992V109.785H94.5195V105.707H95.7617ZM95.7617 108.742H96.957V107.734H95.7617V108.742ZM99.0078 110.594V111.648H89.3516V110.594H99.0078ZM97.8242 112.492V115.914H90.4883V112.492H97.8242ZM91.7656 113.523V114.859H96.5469V113.523H91.7656Z" fill="#999999"/>
<rect x="129" y="29" width="64" height="64" rx="16" fill="#AFBACD" fill-opacity="0.15"/>
<path d="M161 77C169.837 77 177 69.8366 177 61C177 52.1634 169.837 45 161 45C152.163 45 145 52.1634 145 61C145 69.8366 152.163 77 161 77Z" fill="#D6DBE2"/>
<path d="M158.885 72.5597L158.702 71.6564L161.021 71.1846C161.194 71.1463 161.357 71.0726 161.5 70.9681C161.643 70.8636 161.762 70.7306 161.851 70.5775C162.034 70.2792 162.1 69.9231 162.034 69.5791C162.033 69.5645 162.033 69.5498 162.034 69.5352C161.951 69.2001 161.744 68.9092 161.454 68.7215C161.311 68.6255 161.151 68.5587 160.982 68.5248C160.813 68.4909 160.639 68.4907 160.471 68.524L153.957 69.8498C153.906 69.8616 153.854 69.8626 153.803 69.8525C153.752 69.8424 153.703 69.8215 153.661 69.7912C153.578 69.7324 153.52 69.6452 153.498 69.5462C153.485 69.4779 153.49 69.4072 153.513 69.3414L154.071 67.7725V67.7579C154.139 67.5024 154.141 67.2336 154.076 66.9771C154.012 66.7206 153.883 66.4848 153.702 66.292C153.521 66.0992 153.294 65.9558 153.042 65.8753C152.79 65.7949 152.521 65.7801 152.262 65.8324C152.049 65.8754 151.847 65.9627 151.67 66.0887C151.492 66.2147 151.343 66.3766 151.233 66.5638L149.715 69.1421C148.918 70.498 148.65 72.1011 148.965 73.6422C149.252 75.0533 150.087 76.2928 151.287 77.0883C152.487 77.8839 153.954 78.1702 155.365 77.8845C156.538 77.6465 157.569 76.9522 158.231 75.9543C158.892 74.9565 159.13 73.7367 158.892 72.5634L158.885 72.5597Z" fill="#BABFC8"/>
<path d="M167.023 53.5002C167.023 53.5002 165.933 53.7008 164.655 54.4781C163.376 55.2553 162.563 55.9766 162.563 55.9766" stroke="#BABFC8" stroke-width="1.79211" stroke-linecap="round" stroke-linejoin="round"/>
<path d="M153.937 57.5079C153.937 57.5079 154.997 57.2661 156.492 57.1988C157.019 57.175 157.491 57.2029 157.882 57.249" stroke="#BABFC8" stroke-width="1.79211" stroke-linecap="round" stroke-linejoin="round"/>
<path d="M156.375 62C157.341 62 158.125 61.2165 158.125 60.25C158.125 59.2835 157.341 58.5 156.375 58.5C155.409 58.5 154.625 59.2835 154.625 60.25C154.625 61.2165 155.409 62 156.375 62Z" fill="#BABFC8"/>
<rect x="164.312" y="57" width="2.6875" height="4.6875" rx="1.34375" fill="#BABFC8"/>
<path d="M164.914 67.0098C163.591 66.1146 161.938 65.6969 160.231 65.9594C159.884 66.0127 159.548 66.0922 159.224 66.1954" stroke="#BABFC8" stroke-width="2.15054" stroke-linecap="round"/>
<path d="M159.629 106.422V107.441C159.617 108.754 159.617 110.23 159.207 112.445L157.895 112.305C158.305 110.242 158.305 108.736 158.316 107.465H151.988V106.422H159.629ZM160.637 113.605V114.672H150.98V113.605H154.543V109.926H155.832V113.605H160.637ZM167 106.328V111.367H161.891V106.328H167ZM163.18 107.371V110.324H165.711V107.371H163.18ZM170.176 105.461V113.02H168.863V105.461H170.176ZM170.469 114.707V115.762H163.168V112.305H164.48V114.707H170.469Z" fill="#999999"/>
<rect x="202.5" y="30.5" width="61" height="61" rx="14.5" stroke="#5195EE" stroke-width="3"/>
<g clip-path="url(#clip3_1_32681)">
<path d="M233 77C241.837 77 249 69.8366 249 61C249 52.1634 241.837 45 233 45C224.163 45 217 52.1634 217 61C217 69.8366 224.163 77 233 77Z" fill="#FBC85B"/>
<path d="M229.886 68.0804C229.886 69.9273 228.496 71.4231 226.778 71.4231C225.059 71.4231 223.669 69.9273 223.669 68.0804C223.669 66.6176 225.605 63.968 226.412 62.9165C226.453 62.861 226.506 62.8158 226.567 62.7847C226.629 62.7535 226.697 62.7373 226.766 62.7373C226.835 62.7373 226.902 62.7535 226.964 62.7847C227.025 62.8158 227.079 62.861 227.119 62.9165C227.95 63.968 229.886 66.6231 229.886 68.0804Z" fill="#5195EE"/>
<path d="M228.875 59.5C229.841 59.5 230.625 58.7165 230.625 57.75C230.625 56.7835 229.841 56 228.875 56C227.909 56 227.125 56.7835 227.125 57.75C227.125 58.7165 227.909 59.5 228.875 59.5Z" fill="#3E414D"/>
<path d="M237.125 59.5C238.091 59.5 238.875 58.7165 238.875 57.75C238.875 56.7835 238.091 56 237.125 56C236.159 56 235.375 56.7835 235.375 57.75C235.375 58.7165 236.159 59.5 237.125 59.5Z" fill="#3E414D"/>
<path d="M237.5 68.375C236.329 67.2893 234.758 66.625 233.031 66.625C232.68 66.625 232.336 66.6524 232 66.7052" stroke="#9A695E" stroke-width="2.15054" stroke-linecap="round"/>
</g>
<path d="M228.477 105.824C228.477 106.949 229.918 108.016 232.145 108.25L231.688 109.234C229.906 109.018 228.482 108.297 227.809 107.266C227.117 108.297 225.699 109.018 223.918 109.234L223.473 108.25C225.688 108.016 227.129 106.949 227.141 105.824V105.531H228.477V105.824ZM232.637 109.727V110.781H222.98V109.727H232.637ZM231.43 111.531V114.156H225.406V114.953H231.723V115.949H224.129V113.23H230.152V112.504H224.117V111.531H231.43ZM243.008 110.57V111.625H233.352V110.57H243.008ZM242.117 105.812V106.867H240.664V108.707H242.059V109.75H234.277V108.707H235.672V106.867H234.219V105.812H242.117ZM241.836 112.516V115.914H234.488V112.516H241.836ZM235.777 113.535V114.859H240.57V113.535H235.777ZM236.973 108.707H239.352V106.867H236.973V108.707Z" fill="#121212"/>
<rect x="273" y="29" width="64" height="64" rx="16" fill="#AFBACD" fill-opacity="0.15"/>
<path d="M305 77C313.837 77 321 69.8366 321 61C321 52.1634 313.837 45 305 45C296.163 45 289 52.1634 289 61C289 69.8366 296.163 77 305 77Z" fill="#D6DBE2"/>
<path d="M315.839 64.0967H294.161C293.591 64.0967 293.129 64.5589 293.129 65.1289V72.3547C293.129 72.9249 293.591 73.387 294.161 73.387H315.839C316.409 73.387 316.871 72.9248 316.871 72.3547V65.129C316.871 64.5589 316.409 64.0967 315.839 64.0967Z" fill="#BABFC8"/>
<path d="M313.73 70.0321L314.139 69.6228C314.341 69.4212 314.341 69.0946 314.139 68.893C313.937 68.6914 313.611 68.6914 313.409 68.893L313 69.3023L312.638 68.9406C313.012 68.6577 313.258 68.2135 313.258 67.7095C313.258 66.8557 312.563 66.1611 311.71 66.1611C310.856 66.1611 310.161 66.8557 310.161 67.7095C310.161 67.8749 310.194 68.0313 310.242 68.1808C309.832 68.5549 309.604 69.1048 309.652 69.6722C309.73 70.5976 310.555 71.3224 311.529 71.3224C312.068 71.3224 312.591 71.1123 312.992 70.7536L313.409 71.1711C313.51 71.2719 313.642 71.3223 313.774 71.3223C313.906 71.3223 314.038 71.2719 314.139 71.1711C314.341 70.9695 314.341 70.6429 314.139 70.4413L313.73 70.0321ZM311.71 67.1934C311.994 67.1934 312.226 67.4248 312.226 67.7095C312.226 67.9943 311.994 68.2256 311.71 68.2256C311.425 68.2256 311.194 67.9943 311.194 67.7095C311.194 67.4247 311.425 67.1934 311.71 67.1934ZM311.529 70.2901C311.094 70.2901 310.713 69.9736 310.68 69.5855C310.662 69.3679 310.735 69.1636 310.872 69.0079C311.05 69.1233 311.254 69.1998 311.472 69.2339L312.262 70.0238C312.055 70.1913 311.796 70.2901 311.529 70.2901Z" fill="#EBEFF4"/>
<path d="M300.148 66.2642C299.92 66.0938 299.597 66.1392 299.426 66.3675L296.329 70.4965C296.158 70.7243 296.204 71.048 296.432 71.2188C296.525 71.2883 296.633 71.3221 296.741 71.3221C296.899 71.3221 297.053 71.251 297.155 71.1155L300.251 66.9864C300.423 66.7586 300.376 66.435 300.148 66.2642Z" fill="#EBEFF4"/>
<path d="M302.419 69.774C302.705 69.774 302.936 69.5431 302.936 69.2579V66.6773C302.936 66.3919 302.705 66.1611 302.419 66.1611C302.134 66.1611 301.903 66.392 301.903 66.6773V69.2579C301.903 69.5432 302.134 69.774 302.419 69.774Z" fill="#EBEFF4"/>
<path d="M302.419 70.29C302.134 70.29 301.903 70.5209 301.903 70.8062C301.903 71.0914 302.134 71.3223 302.419 71.3223H302.425C302.71 71.3223 302.938 71.0914 302.938 70.8062C302.938 70.5209 302.705 70.29 302.419 70.29Z" fill="#EBEFF4"/>
<path d="M308.613 67.1932H308.499L308.597 66.802C308.667 66.5258 308.498 66.2456 308.222 66.1765C307.945 66.105 307.665 66.2748 307.596 66.552L307.436 67.1932H306.435L306.533 66.802C306.602 66.5258 306.434 66.2456 306.157 66.1765C305.88 66.105 305.6 66.2748 305.532 66.552L305.372 67.1932H305C304.715 67.1932 304.484 67.424 304.484 67.7093C304.484 67.9945 304.715 68.2254 305 68.2254H305.113L304.855 69.2577H304.484C304.199 69.2577 303.968 69.4885 303.968 69.7738C303.968 70.059 304.199 70.2899 304.484 70.2899H304.597L304.5 70.681C304.43 70.9572 304.598 71.2375 304.875 71.3065C304.917 71.3171 304.959 71.3222 305.001 71.3222C305.232 71.3222 305.442 71.1659 305.501 70.931L305.661 70.2899H306.662L306.564 70.681C306.494 70.9572 306.663 71.2375 306.94 71.3065C306.981 71.3171 307.024 71.3222 307.065 71.3222C307.296 71.3222 307.507 71.1659 307.565 70.931L307.725 70.2899H308.097C308.382 70.2899 308.613 70.059 308.613 69.7738C308.613 69.4885 308.382 69.2577 308.097 69.2577H307.983L308.241 68.2254H308.613C308.898 68.2254 309.129 67.9945 309.129 67.7093C309.129 67.424 308.898 67.1932 308.613 67.1932ZM306.92 69.2577H305.919L306.177 68.2254H307.178L306.92 69.2577Z" fill="#EBEFF4"/>
<path d="M297.774 67.1934C297.774 66.6243 297.311 66.1611 296.742 66.1611C296.173 66.1611 295.709 66.6243 295.709 67.1934C295.709 67.7624 296.173 68.2256 296.742 68.2256C297.311 68.2256 297.774 67.7624 297.774 67.1934Z" fill="#EBEFF4"/>
<path d="M299.839 69.2578C299.27 69.2578 298.807 69.721 298.807 70.2901C298.807 70.8591 299.27 71.3223 299.839 71.3223C300.408 71.3223 300.871 70.8591 300.871 70.2901C300.871 69.721 300.408 69.2578 299.839 69.2578Z" fill="#EBEFF4"/>
<path d="M312.841 53.7158C312.665 53.4604 312.373 53.4512 312.06 53.5711C312.06 53.5711 310.647 54.2181 309.779 54.4385C308.911 54.6589 307.498 54.8625 307.498 54.8625C307.214 54.9184 306.893 55.1619 306.911 55.4719C306.93 55.782 307.196 56.0183 307.506 55.9997L307.565 55.9956C307.601 55.9929 307.652 55.9887 307.717 55.9826C307.849 55.9703 308.037 55.9503 308.272 55.9189C308.74 55.8562 309.395 55.7479 310.145 55.565C310.919 55.3762 311.549 55.1144 311.988 54.8986C312.208 54.7905 312.381 54.6935 312.501 54.6221C312.561 54.5863 312.607 54.5569 312.64 54.5357L312.697 54.4982C312.953 54.3219 313.018 53.9716 312.841 53.7158Z" fill="#BABFC8"/>
<path d="M297.145 53.7158C297.321 53.4604 297.614 53.4512 297.926 53.5711C297.926 53.5711 299.34 54.2181 300.208 54.4385C301.075 54.6589 302.489 54.8625 302.489 54.8625C302.772 54.9184 303.094 55.1619 303.075 55.4719C303.056 55.782 302.79 56.0183 302.48 55.9997L302.421 55.9956C302.386 55.9929 302.335 55.9887 302.269 55.9826C302.138 55.9703 301.949 55.9503 301.715 55.9189C301.246 55.8562 300.591 55.7479 299.841 55.565C299.067 55.3762 298.437 55.1144 297.998 54.8986C297.778 54.7905 297.606 54.6935 297.486 54.6221C297.426 54.5863 297.379 54.5569 297.346 54.5357L297.289 54.4982C297.033 54.3219 296.969 53.9716 297.145 53.7158Z" fill="#BABFC8"/>
<path d="M300.875 61C301.841 61 302.625 60.2165 302.625 59.25C302.625 58.2835 301.841 57.5 300.875 57.5C299.909 57.5 299.125 58.2835 299.125 59.25C299.125 60.2165 299.909 61 300.875 61Z" fill="#BABFC8"/>
<path d="M309.125 61C310.091 61 310.875 60.2165 310.875 59.25C310.875 58.2835 310.091 57.5 309.125 57.5C308.159 57.5 307.375 58.2835 307.375 59.25C307.375 60.2165 308.159 61 309.125 61Z" fill="#BABFC8"/>
<path d="M304.648 110.934V111.977H300.559V113.805H299.27V111.977H294.969V110.934H304.648ZM303.582 114.777V115.832H296.141V112.914H297.43V114.777H303.582ZM297.523 105.789V106.984H302.094V105.789H303.383V110.102H296.234V105.789H297.523ZM297.523 109.07H302.094V107.957H297.523V109.07ZM313.965 110.102V111.156H310.836V113.723H315.031V114.777H305.352V113.723H309.523V111.156H306.465V106.293H307.801V110.102H313.965Z" fill="#999999"/>
</g>
<rect x="0.5" y="0.5" width="383" height="239" rx="15.5" stroke="#D2D9E3"/>
<defs>
<clipPath id="clip0_1_32681">
<rect width="384" height="240" rx="16" fill="white"/>
</clipPath>
<clipPath id="clip1_1_32681">
<rect width="32" height="32" fill="white" transform="translate(1 45)"/>
</clipPath>
<clipPath id="clip2_1_32681">
<rect width="32" height="32" fill="white" transform="translate(73 45)"/>
</clipPath>
<clipPath id="clip3_1_32681">
<rect width="32" height="32" fill="white" transform="translate(217 45)"/>
</clipPath>
</defs>
</svg>
