<svg width="384" height="240" viewBox="0 0 384 240" fill="none" xmlns="http://www.w3.org/2000/svg">
<g clip-path="url(#clip0_1_32682)">
<rect width="384" height="240" rx="16" fill="#ECEFF4"/>
<rect x="246" y="69" width="8" height="8" rx="2" fill="#48BB98"/>
<g clip-path="url(#clip1_1_32682)">
<path d="M270 81C274.418 81 278 77.4183 278 73C278 68.5817 274.418 65 270 65C265.582 65 262 68.5817 262 73C262 77.4183 265.582 81 270 81Z" fill="#FBC85B"/>
<path d="M267.938 72.25C268.421 72.25 268.813 71.8582 268.813 71.375C268.813 70.8918 268.421 70.5 267.938 70.5C267.454 70.5 267.062 70.8918 267.062 71.375C267.062 71.8582 267.454 72.25 267.938 72.25Z" fill="#3E414D"/>
<path d="M272.063 72.25C272.546 72.25 272.938 71.8582 272.938 71.375C272.938 70.8918 272.546 70.5 272.063 70.5C271.579 70.5 271.188 70.8918 271.188 71.375C271.188 71.8582 271.579 72.25 272.063 72.25Z" fill="#3E414D"/>
<path d="M273.5 74.9688C272.838 76.1957 271.526 77.0313 270.016 77.0313C268.505 77.0313 267.193 76.1957 266.531 74.9688" stroke="#9A695E" stroke-width="1.07527" stroke-linecap="round"/>
</g>
<path d="M289.762 77.1172C289.184 77.1172 288.664 77.0195 288.203 76.8242C287.746 76.6289 287.385 76.3555 287.119 76.0039C286.857 75.6484 286.719 75.2422 286.703 74.7852H288.016C288.031 75.0312 288.115 75.2461 288.268 75.4297C288.424 75.6133 288.631 75.7559 288.889 75.8574C289.146 75.9551 289.434 76.0039 289.75 76.0039C290.086 76.0039 290.389 75.9453 290.658 75.8281C290.928 75.7109 291.139 75.5488 291.291 75.3418C291.443 75.1309 291.52 74.8906 291.52 74.6211C291.52 74.3438 291.443 74.0957 291.291 73.877C291.139 73.6582 290.918 73.4883 290.629 73.3672C290.344 73.2422 290.004 73.1797 289.609 73.1797H288.883V72.125H289.609C289.926 72.125 290.209 72.0684 290.459 71.9551C290.709 71.8418 290.902 71.6836 291.039 71.4805C291.18 71.2773 291.25 71.043 291.25 70.7773C291.25 70.5195 291.189 70.293 291.068 70.0977C290.947 69.9023 290.775 69.75 290.553 69.6406C290.33 69.5312 290.07 69.4766 289.773 69.4766C289.484 69.4766 289.217 69.5273 288.971 69.6289C288.725 69.7305 288.525 69.875 288.373 70.0625C288.225 70.25 288.145 70.4688 288.133 70.7188H286.891C286.902 70.2695 287.037 69.8691 287.295 69.5176C287.557 69.1621 287.906 68.8867 288.344 68.6914C288.781 68.4961 289.262 68.3984 289.785 68.3984C290.324 68.3984 290.799 68.502 291.209 68.709C291.623 68.916 291.941 69.1973 292.164 69.5527C292.387 69.9043 292.496 70.2891 292.492 70.707C292.496 71.1836 292.361 71.5898 292.088 71.9258C291.818 72.2578 291.453 72.4805 290.992 72.5938V72.6523C291.566 72.7344 292.014 72.9551 292.334 73.3145C292.658 73.6738 292.82 74.125 292.82 74.668C292.82 75.1328 292.688 75.5527 292.422 75.9277C292.156 76.2988 291.791 76.5898 291.326 76.8008C290.861 77.0117 290.34 77.1172 289.762 77.1172ZM297.121 77.1172C296.594 77.1172 296.115 77.0176 295.686 76.8184C295.256 76.6152 294.914 76.3379 294.66 75.9863C294.406 75.6309 294.27 75.2305 294.25 74.7852H295.504C295.527 75.0234 295.613 75.2383 295.762 75.4297C295.91 75.6211 296.104 75.7715 296.342 75.8809C296.58 75.9863 296.84 76.0391 297.121 76.0391C297.461 76.0391 297.764 75.9629 298.029 75.8105C298.299 75.6582 298.51 75.4492 298.662 75.1836C298.814 74.9141 298.891 74.6133 298.891 74.2812C298.891 73.9414 298.812 73.6367 298.656 73.3672C298.5 73.0938 298.283 72.8809 298.006 72.7285C297.729 72.5723 297.414 72.4922 297.062 72.4883C296.348 72.4883 295.852 72.7383 295.574 73.2383H294.355L294.906 68.5156H299.711V69.6172H295.973L295.691 71.9961H295.773C295.953 71.8242 296.184 71.6855 296.465 71.5801C296.75 71.4746 297.051 71.4219 297.367 71.4219C297.891 71.4219 298.363 71.543 298.785 71.7852C299.211 72.0273 299.543 72.3633 299.781 72.793C300.023 73.2227 300.145 73.707 300.145 74.2461C300.145 74.7969 300.016 75.291 299.758 75.7285C299.5 76.166 299.141 76.5078 298.68 76.7539C298.223 76.9961 297.703 77.1172 297.121 77.1172ZM303.461 72.5469C303.082 72.5508 302.758 72.4648 302.488 72.2891C302.219 72.1133 302.016 71.8672 301.879 71.5508C301.742 71.2305 301.676 70.8594 301.68 70.4375C301.676 70.0234 301.744 69.6582 301.885 69.3418C302.025 69.0254 302.23 68.7793 302.5 68.6035C302.77 68.4277 303.09 68.3398 303.461 68.3398C303.84 68.3398 304.162 68.4277 304.428 68.6035C304.697 68.7793 304.9 69.0254 305.037 69.3418C305.174 69.6543 305.242 70.0195 305.242 70.4375C305.242 70.8594 305.172 71.2305 305.031 71.5508C304.891 71.8711 304.686 72.1191 304.416 72.2949C304.15 72.4668 303.832 72.5508 303.461 72.5469ZM303.461 71.7266C303.73 71.7266 303.932 71.6113 304.064 71.3809C304.201 71.1504 304.27 70.8359 304.27 70.4375C304.27 70.0391 304.203 69.7266 304.07 69.5C303.938 69.2734 303.734 69.1602 303.461 69.1602C303.195 69.1641 302.992 69.2812 302.852 69.5117C302.711 69.7383 302.641 70.0469 302.641 70.4375C302.641 70.8359 302.709 71.1504 302.846 71.3809C302.986 71.6113 303.191 71.7266 303.461 71.7266ZM308.816 77.1758C308.438 77.1758 308.113 77.0879 307.844 76.9121C307.574 76.7363 307.371 76.4902 307.234 76.1738C307.098 75.8574 307.031 75.4883 307.035 75.0664C307.031 74.6484 307.1 74.2812 307.24 73.9648C307.381 73.6445 307.586 73.3965 307.855 73.2207C308.129 73.0449 308.449 72.957 308.816 72.957C309.195 72.957 309.518 73.0449 309.783 73.2207C310.053 73.3965 310.256 73.6426 310.393 73.959C310.529 74.2754 310.598 74.6445 310.598 75.0664C310.598 75.4844 310.527 75.8535 310.387 76.1738C310.246 76.4902 310.041 76.7363 309.771 76.9121C309.506 77.0879 309.188 77.1758 308.816 77.1758ZM308.816 76.3438C309.082 76.3438 309.283 76.2305 309.42 76.0039C309.557 75.7734 309.625 75.4609 309.625 75.0664C309.625 74.6641 309.559 74.3496 309.426 74.123C309.293 73.8926 309.09 73.7773 308.816 73.7773C308.551 73.7812 308.348 73.9004 308.207 74.1348C308.066 74.3652 307.996 74.6758 307.996 75.0664C307.996 75.457 308.066 75.7676 308.207 75.998C308.352 76.2285 308.555 76.3438 308.816 76.3438ZM308.465 68.5156H309.531L303.707 77H302.641L308.465 68.5156Z" fill="#3E3E3E"/>
<rect x="246" y="93" width="8" height="8" rx="2" fill="#FBC85B"/>
<g clip-path="url(#clip2_1_32682)">
<path d="M270 105C274.418 105 278 101.418 278 97C278 92.5817 274.418 89 270 89C265.582 89 262 92.5817 262 97C262 101.418 265.582 105 270 105Z" fill="#FBC85B"/>
<path d="M272.905 99.8888C272.898 100.256 272.576 101.148 271.435 101.7C270.988 101.918 270.497 102.031 270 102.031C269.503 102.031 269.012 101.918 268.565 101.7C267.422 101.15 267.102 100.256 267.095 99.8888C267.082 99.6827 267.187 99.4362 267.466 99.5151C267.922 99.682 268.638 99.7801 269.193 99.8311C269.73 99.8822 270.27 99.8822 270.807 99.8311C271.362 99.7781 272.078 99.682 272.534 99.5151C272.813 99.4362 272.918 99.6827 272.905 99.8888Z" fill="#9A695E"/>
<path d="M270.838 94.0301C270.722 94.4646 270.777 94.9053 271.013 95.4182C271.222 95.8771 271.567 96.3775 271.967 96.9568C272.104 97.1547 272.257 97.3795 272.417 97.6164C272.459 97.679 272.522 97.7244 272.595 97.7443C272.669 97.7646 272.747 97.7569 272.815 97.7227C273.072 97.5964 273.312 97.4766 273.535 97.3765C274.171 97.0742 274.719 96.8133 275.131 96.5217C275.591 96.1944 275.859 95.8408 275.976 95.406C276.091 95.0029 276.05 94.571 275.86 94.197C275.768 94.0197 275.64 93.8637 275.483 93.7392C275.327 93.6147 275.146 93.5244 274.953 93.4742C274.659 93.3938 274.347 93.4162 274.068 93.5376C273.917 93.6012 273.777 93.6864 273.65 93.7905C273.593 93.6373 273.514 93.4929 273.416 93.3619C273.235 93.1191 272.977 92.9447 272.684 92.8672C272.491 92.8143 272.289 92.8023 272.092 92.832C271.894 92.8617 271.705 92.9323 271.536 93.0394C271.187 93.2702 270.938 93.6239 270.838 94.0301Z" fill="#E46E80"/>
<path d="M268.462 93.0438C268.293 92.9367 268.104 92.8661 267.906 92.8364C267.709 92.8068 267.507 92.8188 267.314 92.8716C267.022 92.9492 266.764 93.1235 266.582 93.3663C266.484 93.4974 266.405 93.6417 266.348 93.795C266.222 93.6909 266.081 93.6057 265.93 93.5421C265.651 93.4206 265.339 93.3982 265.045 93.4786C264.852 93.5288 264.671 93.6191 264.515 93.7437C264.359 93.8682 264.23 94.0242 264.138 94.2015C263.948 94.5755 263.907 95.0073 264.023 95.4104C264.139 95.8452 264.408 96.1989 264.868 96.5262C265.279 96.8178 265.828 97.0787 266.463 97.3809C266.68 97.4842 266.926 97.6008 267.183 97.7271C267.251 97.7613 267.33 97.769 267.403 97.7488C267.476 97.7289 267.539 97.6835 267.582 97.6208C267.741 97.3839 267.895 97.1591 268.031 96.9613C268.431 96.382 268.772 95.8804 268.986 95.4226C269.221 94.9097 269.276 94.4691 269.16 94.0346C269.06 93.6283 268.811 93.2747 268.462 93.0438Z" fill="#E46E80"/>
</g>
<path d="M286.75 100.062L289.691 97.0977C290.047 96.7227 290.318 96.4219 290.506 96.1953C290.693 95.9688 290.836 95.748 290.934 95.5332C291.035 95.3145 291.086 95.0859 291.086 94.8477C291.086 94.5742 291.018 94.334 290.881 94.127C290.744 93.9199 290.557 93.7598 290.318 93.6465C290.08 93.5332 289.812 93.4766 289.516 93.4766C289.207 93.4766 288.936 93.5391 288.701 93.6641C288.467 93.7891 288.285 93.9648 288.156 94.1914C288.031 94.418 287.969 94.6797 287.969 94.9766H286.75C286.746 94.4688 286.863 94.0195 287.102 93.6289C287.34 93.2383 287.672 92.9355 288.098 92.7207C288.523 92.5059 289.004 92.3984 289.539 92.3984C290.078 92.3984 290.557 92.5039 290.975 92.7148C291.396 92.9219 291.725 93.209 291.959 93.5762C292.193 93.9434 292.312 94.3555 292.316 94.8125C292.312 95.1367 292.25 95.4492 292.129 95.75C292.008 96.0469 291.801 96.3789 291.508 96.7461C291.215 97.1094 290.801 97.5547 290.266 98.082L288.543 99.8281V99.8984H292.457V101H286.75V100.062ZM296.84 101.117C296.188 101.117 295.627 100.947 295.158 100.607C294.693 100.268 294.338 99.7715 294.092 99.1191C293.846 98.4629 293.723 97.6758 293.723 96.7578C293.723 95.8477 293.846 95.0664 294.092 94.4141C294.342 93.7578 294.701 93.2578 295.17 92.9141C295.639 92.5703 296.195 92.3984 296.84 92.3984C297.484 92.3984 298.041 92.5703 298.51 92.9141C298.979 93.2578 299.336 93.7578 299.582 94.4141C299.832 95.0664 299.957 95.8477 299.957 96.7578C299.957 97.6758 299.834 98.4609 299.588 99.1133C299.342 99.7656 298.984 100.264 298.516 100.607C298.047 100.947 297.488 101.117 296.84 101.117ZM296.84 100.004C297.223 100.004 297.551 99.8809 297.824 99.6348C298.098 99.3848 298.307 99.0176 298.451 98.5332C298.596 98.0488 298.668 97.457 298.668 96.7578C298.668 96.0625 298.594 95.4707 298.445 94.9824C298.301 94.4902 298.092 94.1191 297.818 93.8691C297.545 93.6152 297.219 93.4883 296.84 93.4883C296.461 93.4883 296.135 93.6152 295.861 93.8691C295.588 94.1191 295.377 94.4902 295.229 94.9824C295.084 95.4707 295.012 96.0625 295.012 96.7578C295.012 97.457 295.084 98.0488 295.229 98.5332C295.373 99.0176 295.582 99.3848 295.855 99.6348C296.129 99.8809 296.457 100.004 296.84 100.004ZM303.238 96.5469C302.859 96.5508 302.535 96.4648 302.266 96.2891C301.996 96.1133 301.793 95.8672 301.656 95.5508C301.52 95.2305 301.453 94.8594 301.457 94.4375C301.453 94.0234 301.521 93.6582 301.662 93.3418C301.803 93.0254 302.008 92.7793 302.277 92.6035C302.547 92.4277 302.867 92.3398 303.238 92.3398C303.617 92.3398 303.939 92.4277 304.205 92.6035C304.475 92.7793 304.678 93.0254 304.814 93.3418C304.951 93.6543 305.02 94.0195 305.02 94.4375C305.02 94.8594 304.949 95.2305 304.809 95.5508C304.668 95.8711 304.463 96.1191 304.193 96.2949C303.928 96.4668 303.609 96.5508 303.238 96.5469ZM303.238 95.7266C303.508 95.7266 303.709 95.6113 303.842 95.3809C303.979 95.1504 304.047 94.8359 304.047 94.4375C304.047 94.0391 303.98 93.7266 303.848 93.5C303.715 93.2734 303.512 93.1602 303.238 93.1602C302.973 93.1641 302.77 93.2812 302.629 93.5117C302.488 93.7383 302.418 94.0469 302.418 94.4375C302.418 94.8359 302.486 95.1504 302.623 95.3809C302.764 95.6113 302.969 95.7266 303.238 95.7266ZM308.594 101.176C308.215 101.176 307.891 101.088 307.621 100.912C307.352 100.736 307.148 100.49 307.012 100.174C306.875 99.8574 306.809 99.4883 306.812 99.0664C306.809 98.6484 306.877 98.2812 307.018 97.9648C307.158 97.6445 307.363 97.3965 307.633 97.2207C307.906 97.0449 308.227 96.957 308.594 96.957C308.973 96.957 309.295 97.0449 309.561 97.2207C309.83 97.3965 310.033 97.6426 310.17 97.959C310.307 98.2754 310.375 98.6445 310.375 99.0664C310.375 99.4844 310.305 99.8535 310.164 100.174C310.023 100.49 309.818 100.736 309.549 100.912C309.283 101.088 308.965 101.176 308.594 101.176ZM308.594 100.344C308.859 100.344 309.061 100.23 309.197 100.004C309.334 99.7734 309.402 99.4609 309.402 99.0664C309.402 98.6641 309.336 98.3496 309.203 98.123C309.07 97.8926 308.867 97.7773 308.594 97.7773C308.328 97.7812 308.125 97.9004 307.984 98.1348C307.844 98.3652 307.773 98.6758 307.773 99.0664C307.773 99.457 307.844 99.7676 307.984 99.998C308.129 100.229 308.332 100.344 308.594 100.344ZM308.242 92.5156H309.309L303.484 101H302.418L308.242 92.5156Z" fill="#C6C6C6"/>
<rect x="246" y="117" width="8" height="8" rx="2" fill="#B7C2D2"/>
<path d="M270 129C274.418 129 278 125.418 278 121C278 116.582 274.418 113 270 113C265.582 113 262 116.582 262 121C262 125.418 265.582 129 270 129Z" fill="#FBC85B"/>
<path d="M268.942 126.78L268.851 126.329L270.01 126.093C270.097 126.074 270.178 126.037 270.25 125.985C270.321 125.932 270.381 125.866 270.425 125.789C270.517 125.64 270.55 125.462 270.517 125.29C270.516 125.283 270.516 125.275 270.517 125.268C270.475 125.101 270.372 124.955 270.227 124.861C270.155 124.813 270.075 124.78 269.991 124.763C269.906 124.746 269.819 124.746 269.735 124.763L266.478 125.425C266.453 125.431 266.427 125.432 266.401 125.427C266.376 125.422 266.351 125.411 266.33 125.396C266.289 125.367 266.26 125.323 266.249 125.274C266.242 125.239 266.245 125.204 266.256 125.171L266.535 124.387V124.379C266.569 124.252 266.57 124.117 266.538 123.989C266.506 123.861 266.441 123.743 266.351 123.646C266.26 123.55 266.147 123.478 266.021 123.438C265.895 123.398 265.76 123.391 265.631 123.417C265.524 123.438 265.423 123.482 265.335 123.545C265.246 123.608 265.171 123.689 265.116 123.782L264.357 125.072C263.959 125.749 263.825 126.551 263.982 127.322C264.126 128.027 264.543 128.647 265.143 129.045C265.743 129.442 266.477 129.586 267.182 129.443C267.769 129.324 268.284 128.977 268.615 128.478C268.946 127.979 269.065 127.369 268.946 126.782L268.942 126.78Z" fill="#E8AA26"/>
<path d="M273.011 117.25C273.011 117.25 272.466 117.35 271.827 117.739C271.187 118.128 270.781 118.488 270.781 118.488" stroke="#3E414D" stroke-width="0.896057" stroke-linecap="round" stroke-linejoin="round"/>
<path d="M266.468 119.254C266.468 119.254 266.998 119.134 267.746 119.1C268.009 119.088 268.246 119.102 268.441 119.125" stroke="#3E414D" stroke-width="0.896057" stroke-linecap="round" stroke-linejoin="round"/>
<path d="M267.688 121.5C268.171 121.5 268.563 121.108 268.563 120.625C268.563 120.142 268.171 119.75 267.688 119.75C267.204 119.75 266.812 120.142 266.812 120.625C266.812 121.108 267.204 121.5 267.688 121.5Z" fill="#3E414D"/>
<rect x="271.656" y="119" width="1.34375" height="2.34375" rx="0.671875" fill="#494D59"/>
<path d="M271.957 124.005C271.296 123.557 270.469 123.348 269.616 123.48C269.442 123.506 269.274 123.546 269.112 123.598" stroke="#9A695E" stroke-width="1.07527" stroke-linecap="round"/>
<path d="M289.973 125H288.672V117.805H288.625L286.598 119.129V117.898L288.707 116.516H289.973V125ZM295.023 116.398C295.594 116.398 296.119 116.527 296.6 116.785C297.084 117.039 297.479 117.469 297.783 118.074C298.092 118.676 298.246 119.469 298.246 120.453C298.246 121.434 298.111 122.273 297.842 122.973C297.576 123.672 297.193 124.205 296.693 124.572C296.197 124.936 295.609 125.117 294.93 125.117C294.418 125.117 293.957 125.02 293.547 124.824C293.141 124.625 292.809 124.35 292.551 123.998C292.297 123.643 292.137 123.234 292.07 122.773H293.348C293.438 123.145 293.619 123.441 293.893 123.664C294.17 123.883 294.516 123.992 294.93 123.992C295.363 123.992 295.734 123.871 296.043 123.629C296.355 123.383 296.594 123.029 296.758 122.568C296.926 122.104 297.012 121.551 297.016 120.91H296.91C296.68 121.27 296.373 121.551 295.99 121.754C295.611 121.957 295.195 122.059 294.742 122.059C294.238 122.059 293.777 121.939 293.359 121.701C292.941 121.463 292.609 121.131 292.363 120.705C292.121 120.279 292 119.801 292 119.27C292 118.734 292.125 118.248 292.375 117.811C292.629 117.373 292.984 117.029 293.441 116.779C293.902 116.525 294.43 116.398 295.023 116.398ZM295.047 117.477C294.711 117.477 294.406 117.557 294.133 117.717C293.859 117.873 293.645 118.088 293.488 118.361C293.332 118.631 293.254 118.926 293.254 119.246C293.254 119.57 293.33 119.867 293.482 120.137C293.635 120.406 293.846 120.619 294.115 120.775C294.385 120.928 294.688 121.004 295.023 121.004C295.355 121.004 295.66 120.922 295.938 120.758C296.215 120.594 296.434 120.377 296.594 120.107C296.758 119.834 296.84 119.543 296.84 119.234C296.84 118.93 296.762 118.643 296.605 118.373C296.453 118.104 296.238 117.887 295.961 117.723C295.688 117.559 295.383 117.477 295.047 117.477ZM301.551 120.547C301.172 120.551 300.848 120.465 300.578 120.289C300.309 120.113 300.105 119.867 299.969 119.551C299.832 119.23 299.766 118.859 299.77 118.438C299.766 118.023 299.834 117.658 299.975 117.342C300.115 117.025 300.32 116.779 300.59 116.604C300.859 116.428 301.18 116.34 301.551 116.34C301.93 116.34 302.252 116.428 302.518 116.604C302.787 116.779 302.99 117.025 303.127 117.342C303.264 117.654 303.332 118.02 303.332 118.438C303.332 118.859 303.262 119.23 303.121 119.551C302.98 119.871 302.775 120.119 302.506 120.295C302.24 120.467 301.922 120.551 301.551 120.547ZM301.551 119.727C301.82 119.727 302.021 119.611 302.154 119.381C302.291 119.15 302.359 118.836 302.359 118.438C302.359 118.039 302.293 117.727 302.16 117.5C302.027 117.273 301.824 117.16 301.551 117.16C301.285 117.164 301.082 117.281 300.941 117.512C300.801 117.738 300.73 118.047 300.73 118.438C300.73 118.836 300.799 119.15 300.936 119.381C301.076 119.611 301.281 119.727 301.551 119.727ZM306.906 125.176C306.527 125.176 306.203 125.088 305.934 124.912C305.664 124.736 305.461 124.49 305.324 124.174C305.188 123.857 305.121 123.488 305.125 123.066C305.121 122.648 305.189 122.281 305.33 121.965C305.471 121.645 305.676 121.396 305.945 121.221C306.219 121.045 306.539 120.957 306.906 120.957C307.285 120.957 307.607 121.045 307.873 121.221C308.143 121.396 308.346 121.643 308.482 121.959C308.619 122.275 308.688 122.645 308.688 123.066C308.688 123.484 308.617 123.854 308.477 124.174C308.336 124.49 308.131 124.736 307.861 124.912C307.596 125.088 307.277 125.176 306.906 125.176ZM306.906 124.344C307.172 124.344 307.373 124.23 307.51 124.004C307.646 123.773 307.715 123.461 307.715 123.066C307.715 122.664 307.648 122.35 307.516 122.123C307.383 121.893 307.18 121.777 306.906 121.777C306.641 121.781 306.438 121.9 306.297 122.135C306.156 122.365 306.086 122.676 306.086 123.066C306.086 123.457 306.156 123.768 306.297 123.998C306.441 124.229 306.645 124.344 306.906 124.344ZM306.555 116.516H307.621L301.797 125H300.73L306.555 116.516Z" fill="#C6C6C6"/>
<rect x="246" y="141" width="8" height="8" rx="2" fill="#D6DCE4"/>
<g clip-path="url(#clip3_1_32682)">
<path d="M270 153C274.418 153 278 149.418 278 145C278 140.582 274.418 137 270 137C265.582 137 262 140.582 262 145C262 149.418 265.582 153 270 153Z" fill="#FBC85B"/>
<path d="M268.443 148.541C268.443 149.464 267.748 150.212 266.889 150.212C266.029 150.212 265.334 149.464 265.334 148.541C265.334 147.809 266.303 146.484 266.706 145.959C266.726 145.931 266.753 145.908 266.784 145.893C266.814 145.877 266.848 145.869 266.883 145.869C266.917 145.869 266.951 145.877 266.982 145.893C267.013 145.908 267.039 145.931 267.06 145.959C267.475 146.484 268.443 147.812 268.443 148.541Z" fill="#5195EE"/>
<path d="M267.938 144.25C268.421 144.25 268.813 143.858 268.813 143.375C268.813 142.892 268.421 142.5 267.938 142.5C267.454 142.5 267.062 142.892 267.062 143.375C267.062 143.858 267.454 144.25 267.938 144.25Z" fill="#3E414D"/>
<path d="M272.063 144.25C272.546 144.25 272.938 143.858 272.938 143.375C272.938 142.892 272.546 142.5 272.063 142.5C271.579 142.5 271.188 142.892 271.188 143.375C271.188 143.858 271.579 144.25 272.063 144.25Z" fill="#3E414D"/>
<path d="M272.25 148.688C271.665 148.145 270.879 147.813 270.016 147.813C269.84 147.813 269.668 147.826 269.5 147.853" stroke="#9A695E" stroke-width="1.43369" stroke-linecap="round"/>
</g>
<path d="M289.973 149H288.672V141.805H288.625L286.598 143.129V141.898L288.707 140.516H289.973V149ZM296.207 141.688V141.617H291.836V140.516H297.543V141.664L293.77 149H292.422L296.207 141.688ZM300.789 144.547C300.41 144.551 300.086 144.465 299.816 144.289C299.547 144.113 299.344 143.867 299.207 143.551C299.07 143.23 299.004 142.859 299.008 142.438C299.004 142.023 299.072 141.658 299.213 141.342C299.354 141.025 299.559 140.779 299.828 140.604C300.098 140.428 300.418 140.34 300.789 140.34C301.168 140.34 301.49 140.428 301.756 140.604C302.025 140.779 302.229 141.025 302.365 141.342C302.502 141.654 302.57 142.02 302.57 142.438C302.57 142.859 302.5 143.23 302.359 143.551C302.219 143.871 302.014 144.119 301.744 144.295C301.479 144.467 301.16 144.551 300.789 144.547ZM300.789 143.727C301.059 143.727 301.26 143.611 301.393 143.381C301.529 143.15 301.598 142.836 301.598 142.438C301.598 142.039 301.531 141.727 301.398 141.5C301.266 141.273 301.062 141.16 300.789 141.16C300.523 141.164 300.32 141.281 300.18 141.512C300.039 141.738 299.969 142.047 299.969 142.438C299.969 142.836 300.037 143.15 300.174 143.381C300.314 143.611 300.52 143.727 300.789 143.727ZM306.145 149.176C305.766 149.176 305.441 149.088 305.172 148.912C304.902 148.736 304.699 148.49 304.562 148.174C304.426 147.857 304.359 147.488 304.363 147.066C304.359 146.648 304.428 146.281 304.568 145.965C304.709 145.645 304.914 145.396 305.184 145.221C305.457 145.045 305.777 144.957 306.145 144.957C306.523 144.957 306.846 145.045 307.111 145.221C307.381 145.396 307.584 145.643 307.721 145.959C307.857 146.275 307.926 146.645 307.926 147.066C307.926 147.484 307.855 147.854 307.715 148.174C307.574 148.49 307.369 148.736 307.1 148.912C306.834 149.088 306.516 149.176 306.145 149.176ZM306.145 148.344C306.41 148.344 306.611 148.23 306.748 148.004C306.885 147.773 306.953 147.461 306.953 147.066C306.953 146.664 306.887 146.35 306.754 146.123C306.621 145.893 306.418 145.777 306.145 145.777C305.879 145.781 305.676 145.9 305.535 146.135C305.395 146.365 305.324 146.676 305.324 147.066C305.324 147.457 305.395 147.768 305.535 147.998C305.68 148.229 305.883 148.344 306.145 148.344ZM305.793 140.516H306.859L301.035 149H299.969L305.793 140.516Z" fill="#C6C6C6"/>
<rect x="246" y="165" width="8" height="8" rx="2" fill="#DDE2EB"/>
<path d="M270 177C274.418 177 278 173.418 278 169C278 164.582 274.418 161 270 161C265.582 161 262 164.582 262 169C262 173.418 265.582 177 270 177Z" fill="#E46E80"/>
<path d="M275.419 170.548H264.581C264.296 170.548 264.064 170.779 264.064 171.064V174.677C264.064 174.962 264.296 175.193 264.581 175.193H275.419C275.704 175.193 275.935 174.962 275.935 174.677V171.064C275.935 170.779 275.704 170.548 275.419 170.548Z" fill="#494D59"/>
<path d="M274.365 173.517L274.57 173.312C274.67 173.211 274.67 173.048 274.57 172.947C274.469 172.846 274.305 172.846 274.205 172.947L274 173.152L273.819 172.971C274.006 172.829 274.129 172.607 274.129 172.355C274.129 171.928 273.782 171.581 273.355 171.581C272.928 171.581 272.581 171.928 272.581 172.355C272.581 172.438 272.597 172.516 272.621 172.591C272.416 172.778 272.302 173.053 272.326 173.337C272.365 173.799 272.777 174.162 273.265 174.162C273.534 174.162 273.796 174.057 273.996 173.877L274.205 174.086C274.255 174.136 274.321 174.162 274.387 174.162C274.453 174.162 274.519 174.136 274.57 174.086C274.67 173.985 274.67 173.822 274.57 173.721L274.365 173.517ZM273.355 172.097C273.497 172.097 273.613 172.213 273.613 172.355C273.613 172.498 273.497 172.613 273.355 172.613C273.212 172.613 273.097 172.498 273.097 172.355C273.097 172.213 273.212 172.097 273.355 172.097ZM273.265 173.646C273.047 173.646 272.857 173.487 272.84 173.293C272.831 173.184 272.867 173.082 272.936 173.004C273.025 173.062 273.127 173.1 273.236 173.117L273.631 173.512C273.528 173.596 273.398 173.646 273.265 173.646Z" fill="#F9FAFC"/>
<path d="M267.574 171.633C267.46 171.547 267.298 171.57 267.213 171.684L265.665 173.749C265.579 173.863 265.602 174.024 265.716 174.11C265.763 174.145 265.817 174.162 265.871 174.162C265.949 174.162 266.027 174.126 266.077 174.058L267.626 171.994C267.711 171.88 267.688 171.718 267.574 171.633Z" fill="#F9FAFC"/>
<path d="M268.71 173.387C268.852 173.387 268.968 173.272 268.968 173.129V171.839C268.968 171.696 268.852 171.581 268.71 171.581C268.567 171.581 268.452 171.696 268.452 171.839V173.129C268.452 173.272 268.567 173.387 268.71 173.387Z" fill="#F9FAFC"/>
<path d="M268.71 173.646C268.567 173.646 268.452 173.761 268.452 173.904C268.452 174.046 268.567 174.162 268.71 174.162H268.712C268.855 174.162 268.969 174.046 268.969 173.904C268.969 173.761 268.852 173.646 268.71 173.646Z" fill="#F9FAFC"/>
<path d="M271.806 172.097H271.75L271.799 171.901C271.833 171.763 271.749 171.623 271.611 171.588C271.473 171.552 271.333 171.637 271.298 171.776L271.218 172.097H270.718L270.766 171.901C270.801 171.763 270.717 171.623 270.579 171.588C270.44 171.552 270.3 171.637 270.266 171.776L270.186 172.097H270C269.857 172.097 269.742 172.212 269.742 172.355C269.742 172.497 269.857 172.613 270 172.613H270.057L269.928 173.129H269.742C269.599 173.129 269.484 173.244 269.484 173.387C269.484 173.53 269.599 173.645 269.742 173.645H269.799L269.75 173.841C269.715 173.979 269.799 174.119 269.938 174.153C269.958 174.159 269.98 174.161 270 174.161C270.116 174.161 270.221 174.083 270.25 173.966L270.33 173.645H270.831L270.782 173.841C270.747 173.979 270.831 174.119 270.97 174.153C270.991 174.159 271.012 174.161 271.033 174.161C271.148 174.161 271.253 174.083 271.283 173.966L271.363 173.645H271.548C271.691 173.645 271.806 173.53 271.806 173.387C271.806 173.244 271.691 173.129 271.548 173.129H271.492L271.621 172.613H271.806C271.949 172.613 272.065 172.497 272.065 172.355C272.065 172.212 271.949 172.097 271.806 172.097ZM270.96 173.129H270.459L270.588 172.613H271.089L270.96 173.129Z" fill="#F9FAFC"/>
<path d="M266.387 172.097C266.387 171.813 266.156 171.581 265.871 171.581C265.587 171.581 265.355 171.813 265.355 172.097C265.355 172.382 265.587 172.613 265.871 172.613C266.156 172.613 266.387 172.382 266.387 172.097Z" fill="#F9FAFC"/>
<path d="M267.419 173.129C267.135 173.129 266.903 173.36 266.903 173.645C266.903 173.93 267.135 174.161 267.419 174.161C267.704 174.161 267.936 173.93 267.936 173.645C267.936 173.36 267.704 173.129 267.419 173.129Z" fill="#F9FAFC"/>
<path d="M273.921 165.357C273.833 165.23 273.686 165.225 273.53 165.285C273.53 165.285 272.823 165.609 272.389 165.719C271.955 165.829 271.249 165.931 271.249 165.931C271.107 165.959 270.946 166.08 270.956 166.235C270.965 166.391 271.098 166.509 271.253 166.499L271.282 166.497C271.3 166.496 271.326 166.494 271.359 166.491C271.424 166.485 271.519 166.475 271.636 166.459C271.87 166.428 272.197 166.373 272.572 166.282C272.96 166.188 273.275 166.057 273.494 165.949C273.604 165.895 273.69 165.846 273.75 165.811C273.78 165.793 273.804 165.778 273.82 165.767L273.849 165.749C273.977 165.66 274.009 165.485 273.921 165.357Z" fill="#3E414D"/>
<path d="M266.073 165.357C266.161 165.23 266.307 165.225 266.463 165.285C266.463 165.285 267.17 165.609 267.604 165.719C268.038 165.829 268.744 165.931 268.744 165.931C268.886 165.959 269.047 166.08 269.038 166.235C269.028 166.391 268.895 166.509 268.74 166.499L268.711 166.497C268.693 166.496 268.667 166.494 268.634 166.491C268.569 166.485 268.475 166.475 268.357 166.459C268.123 166.428 267.796 166.373 267.421 166.282C267.034 166.188 266.718 166.057 266.499 165.949C266.389 165.895 266.303 165.846 266.243 165.811C266.213 165.793 266.189 165.778 266.173 165.767L266.145 165.749C266.017 165.66 265.984 165.485 266.073 165.357Z" fill="#3E414D"/>
<path d="M267.938 169C268.421 169 268.813 168.608 268.813 168.125C268.813 167.642 268.421 167.25 267.938 167.25C267.454 167.25 267.062 167.642 267.062 168.125C267.062 168.608 267.454 169 267.938 169Z" fill="#3E414D"/>
<path d="M272.063 169C272.546 169 272.938 168.608 272.938 168.125C272.938 167.642 272.546 167.25 272.063 167.25C271.579 167.25 271.188 167.642 271.188 168.125C271.188 168.608 271.579 169 272.063 169Z" fill="#3E414D"/>
<path d="M289.645 164.398C290.215 164.398 290.74 164.527 291.221 164.785C291.705 165.039 292.1 165.469 292.404 166.074C292.713 166.676 292.867 167.469 292.867 168.453C292.867 169.434 292.732 170.273 292.463 170.973C292.197 171.672 291.814 172.205 291.314 172.572C290.818 172.936 290.23 173.117 289.551 173.117C289.039 173.117 288.578 173.02 288.168 172.824C287.762 172.625 287.43 172.35 287.172 171.998C286.918 171.643 286.758 171.234 286.691 170.773H287.969C288.059 171.145 288.24 171.441 288.514 171.664C288.791 171.883 289.137 171.992 289.551 171.992C289.984 171.992 290.355 171.871 290.664 171.629C290.977 171.383 291.215 171.029 291.379 170.568C291.547 170.104 291.633 169.551 291.637 168.91H291.531C291.301 169.27 290.994 169.551 290.611 169.754C290.232 169.957 289.816 170.059 289.363 170.059C288.859 170.059 288.398 169.939 287.98 169.701C287.562 169.463 287.23 169.131 286.984 168.705C286.742 168.279 286.621 167.801 286.621 167.27C286.621 166.734 286.746 166.248 286.996 165.811C287.25 165.373 287.605 165.029 288.062 164.779C288.523 164.525 289.051 164.398 289.645 164.398ZM289.668 165.477C289.332 165.477 289.027 165.557 288.754 165.717C288.48 165.873 288.266 166.088 288.109 166.361C287.953 166.631 287.875 166.926 287.875 167.246C287.875 167.57 287.951 167.867 288.104 168.137C288.256 168.406 288.467 168.619 288.736 168.775C289.006 168.928 289.309 169.004 289.645 169.004C289.977 169.004 290.281 168.922 290.559 168.758C290.836 168.594 291.055 168.377 291.215 168.107C291.379 167.834 291.461 167.543 291.461 167.234C291.461 166.93 291.383 166.643 291.227 166.373C291.074 166.104 290.859 165.887 290.582 165.723C290.309 165.559 290.004 165.477 289.668 165.477ZM296.172 168.547C295.793 168.551 295.469 168.465 295.199 168.289C294.93 168.113 294.727 167.867 294.59 167.551C294.453 167.23 294.387 166.859 294.391 166.438C294.387 166.023 294.455 165.658 294.596 165.342C294.736 165.025 294.941 164.779 295.211 164.604C295.48 164.428 295.801 164.34 296.172 164.34C296.551 164.34 296.873 164.428 297.139 164.604C297.408 164.779 297.611 165.025 297.748 165.342C297.885 165.654 297.953 166.02 297.953 166.438C297.953 166.859 297.883 167.23 297.742 167.551C297.602 167.871 297.396 168.119 297.127 168.295C296.861 168.467 296.543 168.551 296.172 168.547ZM296.172 167.727C296.441 167.727 296.643 167.611 296.775 167.381C296.912 167.15 296.98 166.836 296.98 166.438C296.98 166.039 296.914 165.727 296.781 165.5C296.648 165.273 296.445 165.16 296.172 165.16C295.906 165.164 295.703 165.281 295.562 165.512C295.422 165.738 295.352 166.047 295.352 166.438C295.352 166.836 295.42 167.15 295.557 167.381C295.697 167.611 295.902 167.727 296.172 167.727ZM301.527 173.176C301.148 173.176 300.824 173.088 300.555 172.912C300.285 172.736 300.082 172.49 299.945 172.174C299.809 171.857 299.742 171.488 299.746 171.066C299.742 170.648 299.811 170.281 299.951 169.965C300.092 169.645 300.297 169.396 300.566 169.221C300.84 169.045 301.16 168.957 301.527 168.957C301.906 168.957 302.229 169.045 302.494 169.221C302.764 169.396 302.967 169.643 303.104 169.959C303.24 170.275 303.309 170.645 303.309 171.066C303.309 171.484 303.238 171.854 303.098 172.174C302.957 172.49 302.752 172.736 302.482 172.912C302.217 173.088 301.898 173.176 301.527 173.176ZM301.527 172.344C301.793 172.344 301.994 172.23 302.131 172.004C302.268 171.773 302.336 171.461 302.336 171.066C302.336 170.664 302.27 170.35 302.137 170.123C302.004 169.893 301.801 169.777 301.527 169.777C301.262 169.781 301.059 169.9 300.918 170.135C300.777 170.365 300.707 170.676 300.707 171.066C300.707 171.457 300.777 171.768 300.918 171.998C301.062 172.229 301.266 172.344 301.527 172.344ZM301.176 164.516H302.242L296.418 173H295.352L301.176 164.516Z" fill="#C6C6C6"/>
<path fill-rule="evenodd" clip-rule="evenodd" d="M87.4038 28.2962C87.3803 24.6845 84.4299 21.753 80.8278 22.0176C68.2855 22.9388 56.0363 26.2685 44.7511 31.8243C41.5184 33.4157 40.458 37.4265 42.2581 40.5477C44.0618 43.675 48.0517 44.7198 51.306 43.1569C60.396 38.7912 70.3822 35.9972 80.9133 35.1264C84.5131 34.8288 87.4273 31.9082 87.4038 28.2962Z" fill="#DDE2EB"/>
<path d="M80.9133 35.1264L80.7617 33.2933L80.9133 35.1264ZM51.306 43.1569L50.5097 41.4988L51.306 43.1569ZM45.5635 33.4745C56.6368 28.0231 68.6559 24.756 80.9626 23.8521L80.6931 20.1831C67.9151 21.1216 55.4358 24.5139 43.9386 30.174L45.5635 33.4745ZM52.1024 44.815C60.9938 40.5446 70.7619 37.8115 81.0649 36.9596L80.7617 33.2933C70.0025 34.1829 59.7981 37.0378 50.5097 41.4988L52.1024 44.815ZM81.0649 36.9596C85.5337 36.5901 89.2735 32.945 89.2431 28.2843L85.5644 28.3082C85.5811 30.8713 83.4924 33.0675 80.7617 33.2933L81.0649 36.9596ZM40.6647 41.4667C42.9931 45.5037 48.0625 46.7552 52.1024 44.815L50.5097 41.4988C48.041 42.6844 45.1305 41.8463 43.8515 39.6288L40.6647 41.4667ZM80.9626 23.8521C83.4217 23.6714 85.5473 25.6771 85.5644 28.3082L89.2431 28.2843C89.2133 23.692 85.4381 19.8346 80.6931 20.1831L80.9626 23.8521ZM43.9386 30.174C39.6788 32.2711 38.3749 37.4965 40.6647 41.4667L43.8515 39.6288C42.541 37.3565 43.358 34.5603 45.5635 33.4745L43.9386 30.174Z" fill="#ECEFF4"/>
<path fill-rule="evenodd" clip-rule="evenodd" d="M40.0131 49.7382C42.9843 47.6979 44.0684 43.7276 42.2677 40.6054C40.4635 37.4772 36.4498 36.3875 33.4507 38.3991C24.5968 44.3376 16.7572 51.6906 10.2515 60.1779C3.74037 68.6723 -1.32876 78.1644 -4.76751 88.2721C-5.9271 91.6806 -3.84253 95.2638 -0.365162 96.1965C3.11633 97.1304 6.67102 95.0515 7.86714 91.6512C13.9039 74.4899 25.2863 59.8512 40.0131 49.7382Z" fill="#D6DCE4"/>
<path d="M10.2515 60.1779L11.7114 61.2969L10.2515 60.1779ZM11.7114 61.2969C18.0951 52.9688 25.7876 45.7537 34.4753 39.9267L32.4261 36.8715C23.406 42.9214 15.4194 50.4125 8.79166 59.0589L11.7114 61.2969ZM-3.02612 88.8646C0.348202 78.9463 5.32233 69.632 11.7114 61.2969L8.79166 59.0589C2.1584 67.7125 -3.00573 77.3826 -6.50891 87.6797L-3.02612 88.8646ZM9.60233 92.2615C15.5077 75.4739 26.644 61.1502 41.0544 51.2545L38.9719 48.2219C23.9285 58.5522 12.3001 73.506 6.13196 91.0408L9.60233 92.2615ZM-0.841701 97.9732C3.65371 99.179 8.11725 96.4833 9.60233 92.2615L6.13196 91.0408C5.2248 93.6196 2.57894 95.0818 0.111377 94.4199L-0.841701 97.9732ZM-6.50891 87.6797C-8.03722 92.1719 -5.26607 96.7864 -0.841701 97.9732L0.111377 94.4199C-2.419 93.7412 -3.81698 91.1892 -3.02612 88.8646L-6.50891 87.6797ZM40.6743 41.5244C41.9518 43.7394 41.2259 46.674 38.9719 48.2219L41.0544 51.2545C44.7426 48.7218 46.185 43.7158 43.8611 39.6864L40.6743 41.5244ZM43.8611 39.6864C41.5667 35.7082 36.3775 34.2212 32.4261 36.8715L34.4753 39.9267C36.5222 38.5539 39.3604 39.2462 40.6743 41.5244L43.8611 39.6864Z" fill="#ECEFF4"/>
<path fill-rule="evenodd" clip-rule="evenodd" d="M23.328 184.636C25.8776 182.083 25.8561 177.964 23.5088 175.224C10.7657 160.354 3.06655 141.025 3.06655 119.896C3.06655 114.548 3.55981 109.315 4.50329 104.241C5.16152 100.701 3.12292 97.1299 -0.354988 96.197C-3.83702 95.263 -7.43931 97.3271 -8.13804 100.864C-11.0417 115.561 -10.5492 130.76 -6.66074 145.287C-2.77377 159.809 4.38703 173.213 14.2366 184.485C16.6138 187.205 20.7747 187.191 23.328 184.636Z" fill="#B7C2D2"/>
<path d="M14.2366 184.485L12.8515 185.695L14.2366 184.485ZM24.9055 174.027C12.4374 159.478 4.90596 140.57 4.90596 119.896H1.22714C1.22714 141.48 9.09397 161.23 22.112 176.421L24.9055 174.027ZM4.90596 119.896C4.90596 114.661 5.38875 109.541 6.3117 104.577L2.69487 103.905C1.73088 109.09 1.22714 114.435 1.22714 119.896H4.90596ZM-4.88388 144.811C-8.69954 130.556 -9.18276 115.642 -6.33351 101.22L-9.94258 100.507C-12.9006 115.48 -12.399 130.963 -8.4376 145.763L-4.88388 144.811ZM15.6218 183.274C5.95689 172.214 -1.06972 159.061 -4.88388 144.811L-8.4376 145.763C-4.47781 160.556 2.81718 174.211 12.8515 185.695L15.6218 183.274ZM0.12155 94.4204C-4.30813 93.2322 -9.02177 95.8465 -9.94258 100.507L-6.33351 101.22C-5.85685 98.8076 -3.36592 97.2938 -0.831527 97.9736L0.12155 94.4204ZM6.3117 104.577C7.12897 100.182 4.61145 95.6247 0.12155 94.4204L-0.831527 97.9736C1.6344 98.6351 3.19408 101.22 2.69487 103.905L6.3117 104.577ZM12.8515 185.695C15.9832 189.279 21.3825 189.186 24.6294 185.936L22.0267 183.336C20.167 185.197 17.2444 185.131 15.6218 183.274L12.8515 185.695ZM22.112 176.421C23.8925 178.499 23.8358 181.525 22.0267 183.336L24.6294 185.936C27.9194 182.642 27.8198 177.428 24.9055 174.027L22.112 176.421Z" fill="#ECEFF4"/>
<path fill-rule="evenodd" clip-rule="evenodd" d="M133.741 199.207C131.937 196.08 127.948 195.035 124.693 196.598C113.587 201.932 101.142 204.92 87.9998 204.92C66.898 204.92 47.5935 197.217 32.7398 184.466C29.9986 182.112 25.8714 182.091 23.3182 184.647C20.7687 187.199 20.7551 191.353 23.4688 193.73C37.99 206.448 55.9822 214.627 75.2081 217.161C94.4359 219.695 113.932 216.456 131.248 207.93C134.48 206.339 135.541 202.328 133.741 199.207Z" fill="#FBC85B"/>
<path d="M75.2081 217.161L74.9677 218.984L75.2081 217.161ZM131.248 207.93L130.435 206.28L131.248 207.93ZM123.897 194.94C113.033 200.157 100.86 203.081 87.9998 203.081V206.76C101.423 206.76 114.14 203.707 125.49 198.256L123.897 194.94ZM87.9998 203.081C67.3541 203.081 48.4709 195.546 33.938 183.07L31.5417 185.861C46.7162 198.888 66.4419 206.76 87.9998 206.76V203.081ZM75.4484 215.337C56.5838 212.851 38.9294 204.826 24.6807 192.346L22.2568 195.113C37.0505 208.071 55.3806 216.403 74.9677 218.984L75.4484 215.337ZM130.435 206.28C113.444 214.645 94.3149 217.824 75.4484 215.337L74.9677 218.984C94.5569 221.566 114.419 218.266 132.06 209.581L130.435 206.28ZM22.0168 183.347C18.7747 186.592 18.682 191.982 22.2568 195.113L24.6807 192.346C22.8281 190.723 22.7627 187.806 24.6195 185.947L22.0168 183.347ZM33.938 183.07C30.5349 180.149 25.3117 180.049 22.0168 183.347L24.6195 185.947C26.4312 184.133 29.4623 184.076 31.5417 185.861L33.938 183.07ZM132.06 209.581C136.32 207.484 137.624 202.258 135.334 198.288L132.148 200.126C133.458 202.398 132.641 205.194 130.435 206.28L132.06 209.581ZM125.49 198.256C127.958 197.071 130.869 197.909 132.148 200.126L135.334 198.288C133.006 194.251 127.937 193 123.897 194.94L125.49 198.256Z" fill="#ECEFF4"/>
<path fill-rule="evenodd" clip-rule="evenodd" d="M178.539 157.44C171.12 175.37 158.575 190.648 142.549 201.397C139.55 203.408 135.536 202.319 133.732 199.191C131.931 196.069 133.016 192.098 135.987 190.058C158.298 174.736 172.932 149.028 172.932 119.897C172.932 75.144 138.391 38.4667 94.5394 35.1239C90.9379 34.8494 87.9995 31.9475 87.9995 28.3356C87.9995 24.7236 90.9312 21.7727 94.5351 22.0138C113.783 23.3013 132.277 30.2534 147.658 42.0679C164.773 55.2145 177.076 73.6471 182.66 94.5068C188.244 115.367 186.795 137.488 178.539 157.44Z" fill="#48BB98"/>
<path d="M178.539 157.44L176.84 156.736L178.539 157.44ZM147.658 42.0679L148.778 40.6092L147.658 42.0679ZM182.66 94.5068L184.437 94.0312L182.66 94.5068ZM94.5394 35.1239L94.3996 36.958L94.5394 35.1239ZM135.987 190.058L134.945 188.541L135.987 190.058ZM142.549 201.397L143.574 202.925L142.549 201.397ZM143.574 202.925C159.901 191.974 172.681 176.409 180.239 158.143L176.84 156.736C169.559 174.331 157.25 189.322 141.524 199.869L143.574 202.925ZM171.093 119.897C171.093 148.397 156.778 173.549 134.945 188.541L137.028 191.574C159.818 175.924 174.772 149.659 174.772 119.897H171.093ZM94.3996 36.958C137.298 40.2282 171.093 76.1114 171.093 119.897H174.772C174.772 74.1766 139.484 36.7053 94.6792 33.2898L94.3996 36.958ZM148.778 40.6092C133.109 28.5729 114.267 21.4902 94.6579 20.1785L94.4123 23.8491C113.298 25.1124 131.445 31.9339 146.537 43.5267L148.778 40.6092ZM184.437 94.0312C178.749 72.7807 166.215 54.0025 148.778 40.6092L146.537 43.5267C163.331 56.4265 175.404 74.5134 180.883 94.9824L184.437 94.0312ZM180.239 158.143C188.649 137.817 190.125 115.282 184.437 94.0312L180.883 94.9824C186.362 115.451 184.941 137.158 176.84 156.736L180.239 158.143ZM94.6792 33.2898C91.9453 33.0814 89.8389 30.897 89.8389 28.3356L86.1601 28.3356C86.1601 32.9981 89.9305 36.6173 94.3996 36.958L94.6792 33.2898ZM135.325 198.272C134.048 196.057 134.774 193.122 137.028 191.574L134.945 188.541C131.257 191.074 129.814 196.08 132.138 200.11L135.325 198.272ZM89.8389 28.3356C89.8389 25.7043 91.9518 23.6845 94.4123 23.8491L94.6579 20.1785C89.9106 19.8609 86.1601 23.7429 86.1601 28.3356L89.8389 28.3356ZM141.524 199.869C139.477 201.242 136.639 200.55 135.325 198.272L132.138 200.11C134.433 204.088 139.622 205.575 143.574 202.925L141.524 199.869Z" fill="#ECEFF4"/>
<g clip-path="url(#clip4_1_32682)">
<path d="M86.3666 120.102C97.1913 120.102 105.966 111.318 105.966 100.482C105.966 89.6457 97.1913 80.8613 86.3666 80.8613C75.5418 80.8613 66.7666 89.6457 66.7666 100.482C66.7666 111.318 75.5418 120.102 86.3666 120.102Z" fill="#FBC85B"/>
<path d="M81.3132 98.6425C82.4971 98.6425 83.4569 97.6818 83.4569 96.4966C83.4569 95.3114 82.4971 94.3506 81.3132 94.3506C80.1292 94.3506 79.1694 95.3114 79.1694 96.4966C79.1694 97.6818 80.1292 98.6425 81.3132 98.6425Z" fill="#3E414D"/>
<path d="M91.4196 98.6425C92.6036 98.6425 93.5634 97.6818 93.5634 96.4966C93.5634 95.3114 92.6036 94.3506 91.4196 94.3506C90.2357 94.3506 89.2759 95.3114 89.2759 96.4966C89.2759 97.6818 90.2357 98.6425 91.4196 98.6425Z" fill="#3E414D"/>
<path d="M94.9416 105.311C93.3192 108.32 90.105 110.369 86.4049 110.369C82.7047 110.369 79.4905 108.32 77.8682 105.311" stroke="#9A695E" stroke-width="2.63715" stroke-linecap="round"/>
</g>
<path d="M83.9664 130.745V153.993H80.6708V130.745H83.9664ZM76.9919 133.172C76.9919 140.223 74.5138 146.073 66.2109 150.008L64.4993 147.402C70.5029 144.566 73.1471 140.887 73.6708 135.727H65.7511V133.172H76.9919ZM91.7583 131.307V133.351H93.9299V131.307H96.9445V140.325H88.6926V131.307H91.7583ZM91.7583 137.719H93.9299V135.803H91.7583V137.719ZM101.39 131.307V133.351H103.485V131.307H106.576V140.325H98.2985V131.307H101.39ZM101.39 137.719H103.485V135.803H101.39V137.719ZM108.236 141.883V144.489H87.0321V141.883H108.236ZM105.656 146.099V153.737H89.4846V146.099H105.656ZM92.678 148.679V151.132H102.488V148.679H92.678Z" fill="#3E3E3E"/>
<ellipse cx="87.9999" cy="119.897" rx="76.7665" ry="76.8466" stroke="#E8E8E8" stroke-width="1.63503" stroke-dasharray="1.64 8.18"/>
</g>
<rect x="0.5" y="0.5" width="383" height="239" rx="15.5" stroke="#D2D9E3"/>
<defs>
<clipPath id="clip0_1_32682">
<rect width="384" height="240" rx="16" fill="white"/>
</clipPath>
<clipPath id="clip1_1_32682">
<rect width="16" height="16" fill="white" transform="translate(262 65)"/>
</clipPath>
<clipPath id="clip2_1_32682">
<rect width="16" height="16" fill="white" transform="translate(262 89)"/>
</clipPath>
<clipPath id="clip3_1_32682">
<rect width="16" height="16" fill="white" transform="translate(262 137)"/>
</clipPath>
<clipPath id="clip4_1_32682">
<rect width="39.1999" height="39.2408" fill="white" transform="translate(66.7666 80.8613)"/>
</clipPath>
</defs>
</svg>
