<svg width="60" height="60" viewBox="0 0 60 60" fill="none" xmlns="http://www.w3.org/2000/svg">
<path d="M25.9629 29.5875H27.6908L26.8268 27.1934L25.9629 29.5875Z" fill="#331D1E"/>
<path d="M30 17C21.7154 17 15 22.164 15 28.5349C15 32.6536 17.8082 36.2716 22.0312 38.3085C21.8019 39.0808 20.5543 43.2798 20.5053 43.6103C20.5053 43.6103 20.475 43.8579 20.6394 43.9522C20.6944 43.9792 20.7545 43.9951 20.816 43.9987C20.8775 44.0023 20.9392 43.9937 20.9971 43.9733C21.4702 43.9086 26.4779 40.4833 27.3433 39.8939C28.2235 40.0131 29.1113 40.0718 30 40.0697C38.2846 40.0697 45 34.9058 45 28.5349C45 22.164 38.2846 17 30 17ZM22.5764 26.7441C22.5577 28.3759 22.5909 30.0921 22.5635 31.6985C22.5548 32.2119 22.2519 32.3653 21.8423 32.5116C21.796 32.5275 21.7462 32.5309 21.6981 32.5214C21.2293 32.4314 20.8558 32.2682 20.8442 31.6999C20.8111 30.0949 20.8543 28.3759 20.8312 26.7441C20.4346 26.7287 19.8692 26.7596 19.5014 26.7441C18.9909 26.7118 18.6361 26.3953 18.6577 25.924C18.6793 25.4528 18.9375 25.1138 19.5101 25.1053C20.863 25.0857 22.5389 25.0857 23.8918 25.1053C24.4688 25.1138 24.7255 25.4542 24.7428 25.924C24.7601 26.3939 24.4111 26.7118 23.9019 26.7441C23.5385 26.7596 22.9745 26.7287 22.5764 26.7441ZM29.8457 32.4342C29.6727 32.511 29.4848 32.5508 29.2947 32.551C28.9341 32.551 28.6587 32.4103 28.5736 32.1782L28.1409 31.0838H25.5072L25.0745 32.1782C24.9909 32.4075 24.7154 32.551 24.3534 32.551C24.1637 32.551 23.9763 32.5111 23.8038 32.4342C23.5644 32.3273 23.3351 32.0319 23.5976 31.2357L25.6731 25.9212C25.7601 25.6871 25.916 25.4833 26.1212 25.3351C26.3265 25.187 26.5719 25.1012 26.8269 25.0885C27.0817 25.1026 27.3267 25.1891 27.5317 25.3373C27.7367 25.4855 27.8928 25.689 27.9808 25.9226L30.049 31.2343C30.313 32.0319 30.0837 32.3329 29.8457 32.4342ZM34.2187 32.4342H31.4423C31.2273 32.4384 31.0193 32.3593 30.8639 32.2143C30.7085 32.0693 30.6183 31.8702 30.613 31.6605V25.9325C30.6222 25.71 30.7193 25.4996 30.884 25.3454C31.0486 25.1911 31.2681 25.105 31.4964 25.105C31.7247 25.105 31.9442 25.1911 32.1088 25.3454C32.2735 25.4996 32.3706 25.71 32.3798 25.9325V30.8911H34.2187C34.3269 30.8847 34.4353 30.9 34.5372 30.936C34.6392 30.972 34.7325 31.0279 34.8114 31.1004C34.8903 31.1729 34.9532 31.2603 34.9962 31.3574C35.0391 31.4544 35.0613 31.559 35.0613 31.6647C35.0613 31.7705 35.0391 31.8751 34.9962 31.9721C34.9532 32.0692 34.8903 32.1566 34.8114 32.2291C34.7325 32.3015 34.6392 32.3575 34.5372 32.3935C34.4353 32.4295 34.3269 32.4448 34.2187 32.4384V32.4342ZM40.9976 31.7984C40.9751 31.9649 40.9022 32.121 40.7881 32.2469C40.6741 32.3727 40.5242 32.4625 40.3576 32.5048C40.1909 32.5471 40.0152 32.54 39.8527 32.4843C39.6903 32.4286 39.5485 32.3269 39.4457 32.1922L37.4163 29.5716L37.1163 29.8642V31.7055C37.1163 31.9294 37.0252 32.1441 36.8629 32.3023C36.7006 32.4606 36.4805 32.5495 36.251 32.5495C36.0214 32.5495 35.8013 32.4606 35.639 32.3023C35.4768 32.1441 35.3856 31.9294 35.3856 31.7055V25.9381C35.3856 25.7143 35.4768 25.4996 35.639 25.3413C35.8013 25.183 36.0214 25.0941 36.251 25.0941C36.4805 25.0941 36.7006 25.183 36.8629 25.3413C37.0252 25.4996 37.1163 25.7143 37.1163 25.9381V27.7471L39.5308 25.3923C39.594 25.3314 39.669 25.2833 39.7515 25.2509C39.8339 25.2186 39.9222 25.2025 40.0111 25.2038C40.2272 25.2093 40.4335 25.2925 40.5906 25.4374C40.7477 25.5823 40.8443 25.7786 40.862 25.9887C40.8698 26.0825 40.857 26.1768 40.8244 26.2654C40.7918 26.3539 40.7402 26.4346 40.6731 26.5022L38.6971 28.4251L40.8274 31.178C40.9653 31.3566 41.025 31.5812 40.9933 31.8026L40.9976 31.7984Z" fill="#331D1E"/>
</svg>
