<svg width="60" height="60" viewBox="0 0 60 60" fill="none" xmlns="http://www.w3.org/2000/svg">
<path fill-rule="evenodd" clip-rule="evenodd" d="M43.9998 30.8072C44.001 29.881 43.9171 28.9565 43.7494 28.0449H30.7717V33.2669H38.1859C38.032 34.092 37.7091 34.878 37.2367 35.5775C36.7643 36.277 36.1521 36.8754 35.4372 37.3366V40.7246H39.8885C42.4931 38.3744 43.9959 34.9126 43.9959 30.8047L43.9998 30.8072Z" fill="#3E82F1"/>
<path fill-rule="evenodd" clip-rule="evenodd" d="M30.7757 43.9993C34.4951 43.9993 37.6136 42.7911 39.8925 40.7295L35.4412 37.3415C34.207 38.1516 32.6289 38.6311 30.7757 38.6311C27.1874 38.6311 24.1506 36.2554 23.0683 33.0645H18.4651V36.5631C19.6118 38.7993 21.3703 40.6789 23.5443 41.9921C25.7182 43.3053 28.2219 44.0002 30.7757 43.9993Z" fill="#32A753"/>
<path fill-rule="evenodd" clip-rule="evenodd" d="M23.0683 33.0633C22.4921 31.4003 22.4921 29.5973 23.0683 27.9342V24.4355H18.4651C17.5017 26.3173 17 28.3935 17 30.4988C17 32.6041 17.5017 34.6803 18.4651 36.562L23.0683 33.0633Z" fill="#F9BB00"/>
<path fill-rule="evenodd" clip-rule="evenodd" d="M30.7758 22.3682C32.799 22.3682 34.6146 23.0499 36.0421 24.3878L39.9925 20.5152C37.6072 18.3366 34.4887 17 30.7784 17C28.2246 16.9991 25.7209 17.694 23.547 19.0072C21.373 20.3203 19.6145 22.2 18.4678 24.4361L23.0709 27.9348C24.1533 24.7439 27.19 22.3682 30.7784 22.3682H30.7758Z" fill="#E74133"/>
</svg>
